<svg xmlns="http://www.w3.org/2000/svg" width="50" height="48" viewBox="0 0 50 48">
    <g fill="none" fill-rule="evenodd">
        <path d="M1 0h48v48H1z"/>
        <g fill-rule="nonzero">
            <g fill="#8D959D">
                <path d="M40.118 33.074a.7.7 0 0 1 1.4 0v10.199a3.427 3.427 0 1 1-6.854 0V33.074a.7.7 0 1 1 1.4 0v10.199a2.027 2.027 0 1 0 4.054 0V33.074zm-5.454-21.72V6.487a.7.7 0 1 1 1.4 0v5.562m0 3.016V22.1a.7.7 0 0 1-1.4 0v-6.905m5.454-8.707a.7.7 0 0 1 1.4 0v10.394a.7.7 0 0 1-1.4 0V6.488z"/>
                <path d="M32.636 11.578h-1.09a.7.7 0 0 1 0-1.4h1.09c2.798 0 5.064 2.28 5.064 5.09a.7.7 0 0 1-.7.7h-7.636a.7.7 0 1 1 0-1.4h6.87a3.672 3.672 0 0 0-3.598-2.99z"/>
                <path d="M28.664 32.861a.7.7 0 1 1 1.4 0v7.678A5.064 5.064 0 0 1 25 45.602a.7.7 0 1 1 0-1.4 3.664 3.664 0 0 0 3.664-3.663V32.86zM11.909 11.578a3.664 3.664 0 0 0-3.664 3.664v25.192a.7.7 0 1 1-1.4 0V15.242a5.064 5.064 0 0 1 5.064-5.064h20.727c.77 0 .976 1.062.262 1.35-1.057.425-1.75.942-2.1 1.53-.386.644-.633 1.436-.734 2.304v12.919a.7.7 0 1 1-1.4 0l.004-12.997c.127-1.135.434-2.118.927-2.944.162-.272.363-.525.6-.762H11.91z"/>
                <path d="M21.346 43.758c-.579-.594-.978-1.444-1.214-2.546H1.766a3.691 3.691 0 0 0 3.624 2.99h16.442a5.89 5.89 0 0 1-.486-.444zM25 45.602H5.39a5.09 5.09 0 0 1-5.09-5.09.7.7 0 0 1 .7-.7h19.715a.7.7 0 0 1 .692.595c.172 1.129.496 1.916.941 2.373.69.707 1.617 1.187 2.797 1.438.822.174.695 1.384-.145 1.384z"/>
            </g>
            <path fill="#8D959D" d="M49.773 32.756a.7.7 0 0 1-.7.7H24.927a.7.7 0 0 1-.494-1.196l24.147-24a.7.7 0 0 1 1.193.496v24zm-1.4-.7V10.44L26.624 32.056h21.75z"/>
            <path fill="#8D959D" d="M35.285 32.756a.7.7 0 0 1-1.4 0v-2.4a.7.7 0 0 1 1.4 0v2.4zM40.115 32.756a.7.7 0 0 1-1.4 0v-2.4a.7.7 0 0 1 1.4 0v2.4zM44.944 32.756a.7.7 0 0 1-1.4 0v-2.4a.7.7 0 1 1 1.4 0v2.4z"/>
            <path fill="#703DB2" d="M38.207 27.456a.7.7 0 0 1-.493-1.196l6.036-6a.7.7 0 0 1 1.194.496v6a.7.7 0 0 1-.7.7h-6.037zm5.337-1.4V22.44l-3.64 3.617h3.64z"/>
            <path fill="#8D959D" d="M36.313 6.158c.621.252 1.213.376 1.778.376.573 0 1.167-.124 1.785-.376l-1.761-3.585-1.802 3.585zM38.75.691l2.696 5.488a.7.7 0 0 1-.3.927c-1.033.549-2.054.828-3.055.828-.99 0-2.01-.279-3.053-.826a.7.7 0 0 1-.3-.935L37.497.686A.7.7 0 0 1 38.75.69zM35.364 40.115a.7.7 0 1 1 0-1.4h5.454a.7.7 0 0 1 0 1.4h-5.454z"/>
            <path fill="#8D959D" d="M37.197 3.102a.7.7 0 1 1 .594-1.268c.118.055.228.08.338.08a.806.806 0 0 0 .327-.095.7.7 0 0 1 .606 1.262 2.154 2.154 0 0 1-.933.234c-.32 0-.632-.073-.932-.213z"/>
        </g>
    </g>
</svg>
