<svg xmlns="http://www.w3.org/2000/svg" width="48" height="48" viewBox="0 0 48 48">
    <g fill="none" fill-rule="evenodd">
        <path d="M0 0h48v48H0z"/>
        <g fill-rule="nonzero">
            <path fill="#8D959D" d="M13.444 31.37a.7.7 0 0 1 1.275-.58l3.927 8.642c.886 1.877.024 4.144-1.884 5.064-1.968.883-4.214-.008-5.09-2.008L7.037 31.443a.7.7 0 1 1 1.29-.542l3.778 9 .854 2.036c.561 1.282 1.977 1.843 3.212 1.29 1.211-.584 1.76-2.029 1.205-3.207l-3.932-8.65zM8.765 20.14a.7.7 0 1 1 1.4 0v2.782a.7.7 0 1 1-1.4 0V20.14zM13.129 20.14a.7.7 0 1 1 1.4 0v2.782a.7.7 0 1 1-1.4 0V20.14zM34.836 26.39l1.992-.335c.503-.085.872-.52.872-1.031V22.69c0-.51-.369-.947-.872-1.031l-1.987-.335-.005 5.065zm-.578-6.582l2.802.471a2.445 2.445 0 0 1 2.04 2.412v2.333a2.445 2.445 0 0 1-2.04 2.411l-2.809.473a.7.7 0 0 1-.816-.691l.007-6.72a.7.7 0 0 1 .816-.69zM3.49 26.681a.7.7 0 0 1 0 1.4c-2.307 0-4.19-1.9-4.19-4.224 0-2.323 1.883-4.224 4.19-4.224a.7.7 0 0 1 0 1.4C1.96 21.033.7 22.304.7 23.857s1.259 2.824 2.79 2.824z"/>
            <path fill="#8D959D" d="M33.336 9.195L18.67 17.42a.7.7 0 1 1-.685-1.221l15.709-8.81A.7.7 0 0 1 34.736 8v31.714a.7.7 0 0 1-1.042.61l-15.71-8.809a.7.7 0 0 1 .686-1.22l14.666 8.224V9.195z"/>
            <path fill="#8D959D" d="M5.064 17.51v12.695h12.563V17.51H5.064zm-.7-1.4h13.963a.7.7 0 0 1 .7.7v14.095a.7.7 0 0 1-.7.7H4.364a.7.7 0 0 1-.7-.7V16.81a.7.7 0 0 1 .7-.7zM43.002 24.327a.7.7 0 0 1 0-1.4h4.189a.7.7 0 0 1 0 1.4H43zM41.29 14.629a.7.7 0 0 1-.825-1.131l3.25-2.37a.7.7 0 1 1 .825 1.131l-3.25 2.37zM40.486 33.89a.7.7 0 0 1 .69-1.218l3.311 1.878a.7.7 0 0 1-.69 1.217l-3.311-1.877z"/>
            <g fill="#703DB2">
                <path d="M16.7 13a.7.7 0 0 1-1.4 0A4.3 4.3 0 0 0 11 8.7a.7.7 0 0 1 0-1.4 5.7 5.7 0 0 1 5.7 5.7z"/>
                <path d="M21 7.3a.7.7 0 0 1 0 1.4 4.3 4.3 0 0 0-4.3 4.3.7.7 0 0 1-1.4 0A5.7 5.7 0 0 1 21 7.3zM16.7 3a.7.7 0 0 0-1.4 0A4.3 4.3 0 0 1 11 7.3a.7.7 0 1 0 0 1.4A5.7 5.7 0 0 0 16.7 3z"/>
                <path d="M21 8.7a.7.7 0 0 0 0-1.4A4.3 4.3 0 0 1 16.7 3a.7.7 0 0 0-1.4 0A5.7 5.7 0 0 0 21 8.7z"/>
            </g>
        </g>
    </g>
</svg>
