<svg xmlns="http://www.w3.org/2000/svg" width="48" height="48" viewBox="0 0 48 48">
    <g fill="none" fill-rule="evenodd">
        <path d="M0 0h48v48H0z"/>
        <g fill-rule="nonzero">
            <path fill="#8D959D" d="M33.475 30.289a.7.7 0 1 1 1.118.842c-1.133 1.505-2.864 2.406-4.786 2.406a.7.7 0 0 1 0-1.4c1.473 0 2.794-.687 3.668-1.848zM21.818 12.565l-5.532 12.901a4.897 4.897 0 0 0-.368 2.174.7.7 0 1 1-1.398.085c-.057-.942.1-1.89.476-2.802l5.717-13.334a.7.7 0 0 1 .643-.424h7.657a.7.7 0 0 1 .643.424l3.556 8.292a.7.7 0 1 1-1.287.551l-3.373-7.867h-6.734z"/>
            <path fill="#8D959D" d="M36.408 32.53a.7.7 0 0 1-.636 0c-.178-.09-.477-.26-.856-.5-.628-.401-1.256-.866-1.844-1.392-1.73-1.544-2.786-3.296-2.786-5.243v-4.558a.7.7 0 0 1 .45-.654l5.104-1.953a.7.7 0 0 1 .5 0l5.105 1.953a.7.7 0 0 1 .45.654v4.558c0 1.947-1.057 3.7-2.786 5.243a14.415 14.415 0 0 1-2.7 1.892zm.103-1.681a13.033 13.033 0 0 0 1.665-1.255c1.461-1.304 2.319-2.727 2.319-4.199V21.32l-4.405-1.686-4.404 1.686v4.076c0 1.472.857 2.895 2.318 4.2a13.033 13.033 0 0 0 2.086 1.512c.12-.07.262-.157.421-.258z"/>
            <path fill="#8D959D" d="M37.949 22.93a.7.7 0 0 1 1.138.815l-2.682 3.741a.7.7 0 0 1-.98.158l-1.77-1.287a.7.7 0 0 1 .825-1.132l1.198.873 2.271-3.169zM31.565 3.3a.7.7 0 0 1 .666.916l-2.552 7.865a.7.7 0 0 1-.666.484h-7.657a.7.7 0 0 1-.665-.484l-2.553-7.865a.7.7 0 0 1 .666-.916h12.761zM19.767 4.7l2.098 6.465h6.64L30.601 4.7H19.767z"/>
            <path fill="#8D959D" d="M25.885 11.865a.7.7 0 0 1-1.4 0V9.243a.7.7 0 0 1 1.4 0v2.622z"/>
            <path fill="#703DB2" d="M22.57 24.645a.7.7 0 0 1 1.4 0c0 .522.405.938.896.938h.638c.49 0 .895-.416.895-.938 0-.508-.242-.666-1.388-.96-1.725-.444-2.44-.913-2.44-2.317 0-1.288 1.023-2.339 2.295-2.339h.638c1.272 0 2.295 1.051 2.295 2.339a.7.7 0 0 1-1.4 0c0-.523-.405-.939-.895-.939h-.638c-.49 0-.895.416-.895.939 0 .507.241.666 1.388.96 1.725.443 2.44.913 2.44 2.317 0 1.287-1.023 2.338-2.295 2.338h-.638c-1.272 0-2.295-1.05-2.295-2.338z"/>
            <path fill="#703DB2" d="M24.485 26.256a.7.7 0 0 1 1.4 0v2.649a.7.7 0 0 1-1.4 0v-2.65zM24.485 17.108a.7.7 0 0 1 1.4 0v2.594a.7.7 0 0 1-1.4 0v-2.594z"/>
            <path fill="#8D959D" d="M42.375 35.164c-.91-1.018-2.187-1.627-3.944-1.627h-9.117a.7.7 0 0 1 0-1.4h9.117c2.168 0 3.82.787 4.988 2.094.703.786 1.09 1.574 1.252 2.132a.7.7 0 0 1-.431.852l-19.756 7.23c-1.652.394-3.38.331-5.09-.217l-9.127-4.35a.7.7 0 1 1 .603-1.263l9.036 4.314a7.95 7.95 0 0 0 4.175.177l18.984-6.951a5 5 0 0 0-.69-.99z"/>
            <path fill="#8D959D" d="M25.418 31.677h-5.569a.7.7 0 0 1-.582-.311c-1.428-2.137-3.99-3.41-6.842-3.41h-1.857a.7.7 0 0 1 0-1.4h1.857c3.168 0 6.06 1.371 7.788 3.72h5.205c3.084 0 6.268 3.192 6.268 6.282a.7.7 0 0 1-.7.7H17.993a.7.7 0 1 1 0-1.4h12.219c-.435-2.105-2.715-4.181-4.794-4.181z"/>
            <path fill="#8D959D" d="M5.7 39.58h3.873a.304.304 0 0 0 .295-.3V26.394c0-.167-.132-.3-.295-.3H5.7V39.58zm5.568-.3c0 .935-.766 1.7-1.695 1.7H5a.7.7 0 0 1-.7-.7V25.394a.7.7 0 0 1 .7-.7h4.573c.937 0 1.695.76 1.695 1.7v12.884z"/>
        </g>
    </g>
</svg>
