<svg xmlns="http://www.w3.org/2000/svg" width="48" height="50" viewBox="0 0 48 50">
    <g fill="none" fill-rule="evenodd">
        <path d="M0 1h48v48H0z"/>
        <g fill-rule="nonzero">
            <path fill="#703DB2" d="M9.758 15.01a.7.7 0 0 1 .738 1.19c-1.285.799-1.94 2.75-1.706 4.655a.7.7 0 0 1-1.39.17c-.294-2.396.542-4.886 2.358-6.014z"/>
            <path fill="#703DB2" d="M9.969 21.644a.7.7 0 0 0 0-1.4H8.293c-1.355 0-2.448 1.117-2.448 2.486v2.07c0 1.37 1.092 2.487 2.448 2.487h2.323a.7.7 0 0 0 0-1.4H8.293c-.575 0-1.048-.483-1.048-1.086v-2.07c0-.604.473-1.087 1.048-1.087h1.676z"/>
            <path fill="#8D959D" d="M17.047 32.484a.7.7 0 0 1 .897-.672c.813.238 1.52.33 2.118.284.37-.029.748-.076 1.163-.142.217-.035.81-.138.867-.148.139-.022.236-.035.32-.04a.914.914 0 0 1 .242.015c.3.06.578.26.586.69.023 1.27.183 2.093.415 2.414.01.014.147.085.415.152.361.09.874.15 1.502.176.663 0 1.93-.203 1.93.201 0 .744.765 4.24 1.898 5.3 1.205 1.128 3.784.4 4.667 1.09.457.358.131.917.131 1.392v3.795a1.7 1.7 0 0 1-1.7 1.7H8.518a1.7 1.7 0 0 1-1.7-1.7v-3.795c0-4.416 3.883-7.983 8.613-7.983.886-.02 1.368-.166 1.452-.296.107-.167.164-.956.164-2.433zm1.014 3.188c-.414.647-1.283.912-2.615.94-3.997 0-7.227 2.969-7.227 6.584v3.795a.3.3 0 0 0 .3.3h23.98a.3.3 0 0 0 .3-.3v-3.795c0-.577-.083-1.137-.238-1.672-.364-1.261-2.52-.397-3.561-1.246-.793-.647-.357-3.12-1.41-3.4a7.947 7.947 0 0 0-2.046-.266c-1.619-.065-2.59-.306-3.024-.908-.368-.51-.572-1.313-.648-2.44-.162.029-.328.057-.427.073-.45.071-.862.123-1.274.155a6.484 6.484 0 0 1-1.73-.118c-.02 1.283-.105 1.87-.38 2.298zM16.349 7.44a5.309 5.309 0 0 1-.144-1.229c0-2.913 2.357-5.284 5.257-5.284 2.9 0 5.257 2.37 5.257 5.284 0 .785-.17 1.53-.477 2.2m-1.544-.088a3.88 3.88 0 0 0 .62-2.112c0-2.142-1.73-3.884-3.856-3.884-2.125 0-3.857 1.742-3.857 3.884 0 .381.055.75.157 1.097"/>
            <path fill="#8D959D" d="M30.515 20.9a.7.7 0 1 1-1.4 0l.006-.9c1.018-7.794-2.647-11.756-9.256-11.756-5.617 0-9.216 4.29-9.216 10.734a.7.7 0 0 1-1.4 0c0-7.168 4.166-12.134 10.616-12.134 7.437 0 11.774 4.688 10.65 13.247v.808z"/>
            <path fill="#8D959D" d="M26.276 17.528a8.804 8.804 0 0 1-.075-.932c-3.423 3.077-8.638 3.87-15.568 2.428v3.86c0 4.784 4.095 8.865 8.942 9.125 4.457-.11 7.038-2.054 8.257-5.273.651-1.72.824-3.545.727-5.095-1.335-.993-2.056-2.427-2.283-4.113zm3.677 3.981c.115 1.742-.072 3.77-.812 5.723-1.414 3.737-4.489 6.053-9.586 6.176-5.628-.3-10.322-4.978-10.322-10.524V18.85c0-.799.732-1.4 1.514-1.233 7.602 1.616 12.824.445 15.782-3.438.461-.606 1.42-.144 1.236.594-.15.597-.233 1.598-.102 2.567.193 1.43.806 2.58 1.95 3.329a.7.7 0 0 1 .312.507c.009.079.018.182.028.332z"/>
            <path fill="#703DB2" d="M18.988 29.257a.7.7 0 1 1 .182-1.388c3.44.45 6.512-.176 9.244-1.876a.7.7 0 0 1 .37-.106h1.953c.575 0 1.047-.483 1.047-1.086v-2.07c0-.604-.472-1.087-1.047-1.087H30.2a.7.7 0 0 1 0-1.4h.537c1.355 0 2.447 1.117 2.447 2.486v2.07c0 1.37-1.092 2.487-2.447 2.487h-1.755c-2.97 1.795-6.31 2.452-9.994 1.97z"/>
            <path fill="#8D959D" d="M14.728 36.743a.7.7 0 0 1 1.042-.935l1.202 1.34a4.198 4.198 0 0 0 6.637-.501l.753-1.15a.7.7 0 0 1 1.171.768l-.754 1.15a5.598 5.598 0 0 1-8.849.668l-1.202-1.34zM33.562 40.94a.7.7 0 0 0-.342-.089h-.733a4.392 4.392 0 1 1 0-8.784h4.421A4.392 4.392 0 0 1 41.3 36.46v.865a3.528 3.528 0 0 1-3.528 3.527.7.7 0 0 0-.7.7v1.356l-3.51-1.966zm4.91 1.262a4.929 4.929 0 0 0 4.228-4.878v-.865a5.792 5.792 0 0 0-5.792-5.792h-4.421a5.792 5.792 0 0 0 0 11.584h.55l4.393 2.462a.7.7 0 0 0 1.042-.611v-1.9z"/>
        </g>
        <g fill="#8D959D">
            <path d="M32.787 35.906a.55.55 0 1 1 0 1.1.55.55 0 0 1 0-1.1zM34.787 35.906a.55.55 0 1 1 0 1.1.55.55 0 0 1 0-1.1zM36.787 35.906a.55.55 0 1 1 0 1.1.55.55 0 0 1 0-1.1z"/>
        </g>
    </g>
</svg>
