<svg xmlns="http://www.w3.org/2000/svg" width="51" height="48" viewBox="0 0 51 48">
    <g fill="none" fill-rule="evenodd">
        <path d="M2 0h48v48H2z"/>
        <g transform="translate(0 10)">
            <path fill="#8D959D" fill-rule="nonzero" d="M32.37 4.654A2.954 2.954 0 0 0 29.416 1.7H8.134a.3.3 0 0 0-.3.3v23.655a.3.3 0 0 0 .3.3h3.462c.615 0-.696-1.074 0-1.074.515 0 1.701-1.089 2.404-1.089.478 0 1.751.389 2.524.389.409 0 1.692 1.774 2.372 1.774H32.37V4.654zM8.134.3h21.282a4.354 4.354 0 0 1 4.354 4.354v22.001a.7.7 0 0 1-.7.7H19.221c-.567 0-.523-2.474-1.221-2.474-.482 0-1.188-.523-2.036-1.125-.893-.634-2.621 1.125-3.756 1.125-.472 0-.66 2.474-1.187 2.474H8.134a1.7 1.7 0 0 1-1.7-1.7V2a1.7 1.7 0 0 1 1.7-1.7z"/>
            <path fill="#8D959D" fill-rule="nonzero" d="M15.05 32.629c-2.655 0-4.81-2.134-4.81-4.769 0-2.634 2.155-4.768 4.81-4.768 2.656 0 4.811 2.134 4.811 4.768 0 2.635-2.155 4.769-4.81 4.769zm0-1.4c1.886 0 3.411-1.51 3.411-3.369 0-1.858-1.525-3.368-3.41-3.368-1.886 0-3.411 1.51-3.411 3.368 0 1.859 1.525 3.369 3.41 3.369z"/>
            <path d="M4.71 32.612H50.64"/>
            <path fill="#8D959D" fill-rule="nonzero" d="M3.71 33.1a.7.7 0 0 1 0-1.4h2.268a.7.7 0 0 1 0 1.4H3.71zm4.367 0a.7.7 0 0 1 0-1.4H49.64a.7.7 0 1 1 0 1.4H8.077z"/>
            <ellipse cx="15.05" cy="27.86" fill="#8D959D" rx="1" ry="1"/>
            <path fill="#8D959D" fill-rule="nonzero" d="M47.234 19.03a2.04 2.04 0 0 0-1.571-1.985l-2.261-.534a.7.7 0 0 1-.43-.306l-3.54-5.573a2.04 2.04 0 0 0-1.723-.947H33.77v16.27h3.972c.592-1.183 1.155-1.774 1.69-1.774.534 0 1.39-.215 2.568-.644.851.332 1.446.65 1.785.955.338.306.637.793.897 1.463h2.552V19.03zm-1.25-3.348a3.44 3.44 0 0 1 2.65 3.348v7.625a.7.7 0 0 1-.7.7h-2.93c-.366 0-.171-1.496-.51-1.496-.27 0-1.741-2.067-1.994-2.067-1.97 0-2.755.7-3.669.7-.68 0-1.294 2.863-1.848 2.863H33.07a.7.7 0 0 1-.7-.7V8.985a.7.7 0 0 1 .7-.7h4.64a3.44 3.44 0 0 1 2.903 1.596l3.388 5.333 1.983.468z"/>
            <path fill="#8D959D" fill-rule="nonzero" d="M41.084 32.629c-2.656 0-4.811-2.134-4.811-4.769 0-2.634 2.155-4.768 4.81-4.768 2.656 0 4.811 2.134 4.811 4.768 0 2.635-2.155 4.769-4.81 4.769zm0-1.4c1.885 0 3.41-1.51 3.41-3.369 0-1.858-1.525-3.368-3.41-3.368-1.886 0-3.411 1.51-3.411 3.368 0 1.859 1.525 3.369 3.41 3.369z"/>
            <ellipse cx="41.084" cy="27.86" fill="#8D959D" rx="1" ry="1"/>
            <path fill="#8D959D" fill-rule="nonzero" d="M33.26 16.515a.7.7 0 0 1 0-1.4h10.19a.7.7 0 1 1 0 1.4H33.258z"/>
            <path fill="#703DB2" fill-rule="nonzero" d="M1.252 8.252a.7.7 0 0 1 0-1.4h3.864a.7.7 0 1 1 0 1.4H1.252zM2.54 13.676a.7.7 0 1 1 0-1.4h2.576a.7.7 0 0 1 0 1.4H2.54zM3.828 19.1a.7.7 0 0 1 0-1.4h1.288a.7.7 0 0 1 0 1.4H3.828z"/>
            <path fill="#8D959D" fill-rule="nonzero" d="M36.834 20.733a.7.7 0 1 1 0-1.4h.858a.7.7 0 1 1 0 1.4h-.858zM46.807 19.972v1.312h.427v-1.312h-.427zm-.7-1.4h1.827a.7.7 0 0 1 .7.7v2.712a.7.7 0 0 1-.7.7h-1.827a.7.7 0 0 1-.7-.7v-2.712a.7.7 0 0 1 .7-.7z"/>
        </g>
    </g>
</svg>
