<svg xmlns="http://www.w3.org/2000/svg" width="48" height="48" viewBox="0 0 48 48">
    <g fill="none" fill-rule="evenodd">
        <path d="M0 0h48v48H0z"/>
        <g fill="#8D959D" fill-rule="nonzero">
            <path d="M18.3 33.868a.7.7 0 0 1 1.4 0v7.306a.7.7 0 0 1-1.4 0v-7.306zM14.732 33.566a.7.7 0 0 1 1.263.604l-4.363 9.132a.7.7 0 0 1-1.264-.604l4.364-9.132zM22.022 34.203a.7.7 0 0 1 1.23-.67l4.973 9.132a.7.7 0 0 1-1.23.67l-4.973-9.132zM36.064 26.405a.7.7 0 0 1-1.4 0V9.3a.295.295 0 0 0-.298-.302H3.634a.297.297 0 0 0-.298.302v24.568a.7.7 0 0 1-1.4 0V9.3c0-.943.758-1.702 1.698-1.702h30.732c.945 0 1.698.76 1.698 1.702v17.105z"/>
            <path d="M15.666 6.345l-.83 2.2a.7.7 0 0 1-1.31-.494l1-2.653a.7.7 0 0 1 .656-.453h6.636a.7.7 0 0 1 .655.453l1 2.653a.7.7 0 1 1-1.31.493l-.829-2.2h-5.668zM1 34.568a.7.7 0 0 1 0-1.4h28.472a.7.7 0 1 1 0 1.4H1zM9.91 18.13a.7.7 0 0 1 0-1.4h7.272a.7.7 0 1 1 0 1.4H9.909zM9.91 25.436a.7.7 0 0 1 0-1.4h18.18a.7.7 0 0 1 0 1.4H9.91z"/>
        </g>
        <g fill="#703DB2" fill-rule="nonzero">
            <path d="M30.595 27.595v11.31h5.355c.738 0 1.418.25 1.955.67v-9.242c0-1.51-1.253-2.738-2.805-2.738h-4.505zM30 26.405h5.1c2.204 0 3.995 1.756 3.995 3.928V42c0 .793-1.19.793-1.19 0 0-1.05-.873-1.905-1.955-1.905H30a.595.595 0 0 1-.595-.595V27c0-.329.266-.595.595-.595z"/>
            <path d="M47 26.405c.329 0 .595.266.595.595v12.5a.595.595 0 0 1-.595.595h-5.95c-1.082 0-1.955.856-1.955 1.905h-1.19V30.333c0-2.172 1.791-3.928 3.995-3.928H47zm-.595 1.19H41.9c-1.552 0-2.805 1.229-2.805 2.738v9.243a3.165 3.165 0 0 1 1.955-.671h5.355v-11.31zM39.095 42c0 .793-1.19.793-1.19 0a3.07 3.07 0 0 1 1.19-2.424V42z"/>
        </g>
    </g>
</svg>
