<svg xmlns="http://www.w3.org/2000/svg" width="48" height="48" viewBox="0 0 48 48">
    <g fill="none" fill-rule="evenodd">
        <path d="M0 0h48v48H0z"/>
        <g fill-rule="nonzero">
            <path fill="#8D959D" d="M18.48 12.56v27.76c0 .541.439.98.98.98h21a.98.98 0 0 0 .98-.98V12.56H18.48zm-.7-1.4h24.36a.7.7 0 0 1 .7.7v28.46a2.38 2.38 0 0 1-2.38 2.38h-21a2.38 2.38 0 0 1-2.38-2.38V11.86a.7.7 0 0 1 .7-.7z"/>
            <path fill="#8D959D" d="M43.443 27.63h-4.915a.98.98 0 0 0-.963.796l-.011.059c.104.206.159.388.159.58 0 .218-.07.412-.195.607v9.689c.054.206.083.38.083.534 0 .18-.039.382-.119.652a.572.572 0 0 0 .543.753h5.76c.049 0 .098-.005.146-.016.364-.081.593-.442.518-.78l-.113-.43a.7.7 0 0 1-.002-.35l.092-.367v-9.745l-.117-.253a.7.7 0 0 1-.016-.552l.123-.31a.98.98 0 0 0-.973-.867zm-7.221 1.34a.7.7 0 0 1-.091-.497l.06-.31a2.38 2.38 0 0 1 2.337-1.933h4.915c1.252 0 2.29.97 2.374 2.22l.008.107a.7.7 0 0 1-.048.305l-.071.18.055.12a.7.7 0 0 1 .065.295v9.987l-.02.17-.07.277.074.282a2.075 2.075 0 0 1-2.026 2.527h-5.759a1.972 1.972 0 0 1-1.878-2.572 1.36 1.36 0 0 0 .054-.233c0-.022-.017-.113-.056-.25l-.027-.19V29.442a.7.7 0 0 1 .137-.416l-.033-.056z"/>
            <path fill="#FFF" d="M43.443 27.63h-4.915a.98.98 0 0 0-.963.796l-.011.059c.104.206.159.388.159.58 0 .218-.07.412-.195.607v9.689c.054.206.083.38.083.534 0 .18-.039.382-.119.652a.572.572 0 0 0 .543.753h5.76c.049 0 .098-.005.146-.016.364-.081.593-.442.518-.78l-.113-.43a.7.7 0 0 1-.002-.35l.092-.367v-9.745l-.117-.253a.7.7 0 0 1-.016-.552l.123-.31a.98.98 0 0 0-.973-.867z"/>
            <path fill="#8D959D" d="M36.939 30.142a.7.7 0 0 1 0-1.4h8.064a.7.7 0 1 1 0 1.4h-8.064zM37.359 39.806a.7.7 0 0 1 0-1.4h7.38a.7.7 0 0 1 0 1.4h-7.38zM37.213 37.452a.7.7 0 1 1-.334-1.36 1.716 1.716 0 0 0 1.306-1.662c0-.807-.565-1.5-1.346-1.673a.7.7 0 0 1 .301-1.367 3.116 3.116 0 0 1 2.445 3.04c0 1.44-.989 2.682-2.372 3.022z"/>
            <path fill="#703DB2" d="M21.84 17.584v6.135h16.24v-6.135H21.84zm-.7-1.4h17.64a.7.7 0 0 1 .7.7v7.535a.7.7 0 0 1-.7.7H21.14a.7.7 0 0 1-.7-.7v-7.535a.7.7 0 0 1 .7-.7z"/>
            <path fill="#8D959D" d="M3.2 24.035V40.32c0 .541.439.98.98.98h9.24a.98.98 0 0 0 .98-.98V24.008a35.532 35.532 0 0 1-4.31-15.321l-.015-.313H7.822A29.16 29.16 0 0 1 3.2 24.035zM6.422 8.281v-.607a.7.7 0 0 1 .7-.7h3.62a.7.7 0 0 1 .699.667l.047.978a34.132 34.132 0 0 0 4.225 14.87.7.7 0 0 1 .087.34V40.32a2.38 2.38 0 0 1-2.38 2.38H4.18a2.38 2.38 0 0 1-2.38-2.38V23.828a.7.7 0 0 1 .114-.382A27.76 27.76 0 0 0 6.422 8.28z"/>
            <path fill="#703DB2" d="M5.72 25.956v11.158h6.16V25.956H5.72zm-.7-1.4h7.56a.7.7 0 0 1 .7.7v12.558a.7.7 0 0 1-.7.7H5.02a.7.7 0 0 1-.7-.7V25.256a.7.7 0 0 1 .7-.7z"/>
            <path fill="#8D959D" d="M11.111 9.486v-.972a.14.14 0 0 0-.14-.14H6.968a.14.14 0 0 0-.14.14v.972h4.283zM6.968 6.974h4.003c.85 0 1.54.69 1.54 1.54v1.672a.7.7 0 0 1-.7.7H6.128a.7.7 0 0 1-.7-.7V8.514c0-.85.69-1.54 1.54-1.54z"/>
            <path fill="#703DB2" d="M23.225 22.053a.7.7 0 0 1 .244-1.38c1.932.343 3.353-.262 4.394-1.862a.7.7 0 0 1 1.273.24c.36 1.74.977 2.168 2.168 1.667 1.306-.55 1.938-1.156 2.025-1.803l.012-.203c.067-.898 1.4-.846 1.398.054 0 .098-.006.194-.016.289-.05 1.187.272 1.608 1.018 1.608a.7.7 0 0 1 0 1.4c-.987 0-1.68-.406-2.063-1.143-.466.41-1.08.772-1.832 1.089-1.68.706-2.958.184-3.667-1.365-1.28 1.284-2.955 1.762-4.954 1.409z"/>
            <path fill="#8D959D" d="M24.78 13.535a.7.7 0 0 1-1.4 0v-1.713c0-3.603 2.948-6.522 6.58-6.522s6.58 2.919 6.58 6.522v1.713a.7.7 0 0 1-1.4 0v-1.713c0-2.827-2.318-5.122-5.18-5.122-2.862 0-5.18 2.295-5.18 5.122v1.713z"/>
        </g>
    </g>
</svg>
