<svg xmlns="http://www.w3.org/2000/svg" width="48" height="48" viewBox="0 0 48 48">
    <g fill="none" fill-rule="evenodd">
        <path d="M0 0h48v48H0z"/>
        <g fill-rule="nonzero">
            <path fill="#703DB2" d="M22.11 44a.7.7 0 0 1-1.4 0v-6.087a.7.7 0 0 1 .7-.7h5.18a.7.7 0 0 1 .7.7V44a.7.7 0 0 1-1.4 0v-5.387h-3.78V44z"/>
            <path fill="#8D959D" d="M11.91 43.3a.7.7 0 0 1 0 1.4H5a.7.7 0 0 1-.7-.7V29.212a1.57 1.57 0 0 1 1.575-1.564h6.034a.7.7 0 0 1 0 1.4H5.875c-.099 0-.175.075-.175.164V43.3h6.21zM42.3 29.212c0-.089-.076-.164-.175-.164h-6.034a.7.7 0 0 1 0-1.4h6.034a1.57 1.57 0 0 1 1.575 1.564V44a.7.7 0 0 1-.7.7h-6.91a.7.7 0 0 1 0-1.4h6.21V29.212z"/>
            <path fill="#8D959D" d="M36.79 13.566V44a.7.7 0 0 1-.7.7H11.91a.7.7 0 0 1-.7-.7V13.566c0-.86.697-1.57 1.56-1.57h22.46c.868 0 1.56.703 1.56 1.57zM35.39 43.3V13.566c0-.099-.07-.17-.16-.17H12.77c-.084 0-.16.077-.16.17V43.3h22.78z"/>
            <path fill="#8D959D" d="M18.818 18.613a.7.7 0 0 1 0-1.4h1.727a.7.7 0 1 1 0 1.4h-1.727zM27.455 18.613a.7.7 0 1 1 0-1.4h1.727a.7.7 0 0 1 0 1.4h-1.727zM18.818 23.83a.7.7 0 0 1 0-1.4h1.727a.7.7 0 1 1 0 1.4h-1.727zM27.455 23.83a.7.7 0 1 1 0-1.4h1.727a.7.7 0 0 1 0 1.4h-1.727zM18.818 29.048a.7.7 0 0 1 0-1.4h1.727a.7.7 0 1 1 0 1.4h-1.727zM27.455 29.048a.7.7 0 1 1 0-1.4h1.727a.7.7 0 0 1 0 1.4h-1.727zM18.818 34.265a.7.7 0 0 1 0-1.4h1.727a.7.7 0 1 1 0 1.4h-1.727zM27.455 34.265a.7.7 0 1 1 0-1.4h1.727a.7.7 0 0 1 0 1.4h-1.727zM30.21 1.87a.17.17 0 0 0-.17-.17H17.96a.17.17 0 0 0-.17.17v10.126h12.42V1.87zM17.96.3h12.08c.866 0 1.57.703 1.57 1.57v10.826a.7.7 0 0 1-.7.7H17.09a.7.7 0 0 1-.7-.7V1.87c0-.867.704-1.57 1.57-1.57z"/>
            <g fill="#703DB2">
                <path d="M23.3 4.8a.7.7 0 0 1 1.4 0v4.348a.7.7 0 0 1-1.4 0V4.8z"/>
                <path d="M21.84 7.674a.7.7 0 1 1 0-1.4h4.32a.7.7 0 0 1 0 1.4h-4.32z"/>
            </g>
        </g>
    </g>
</svg>
