<svg xmlns="http://www.w3.org/2000/svg" width="48" height="48" viewBox="0 0 48 48">
    <g fill="none" fill-rule="evenodd">
        <path d="M0 0h48v48H0z"/>
        <g fill="#8D959D" fill-rule="nonzero">
            <path d="M6.7 36a.7.7 0 0 1-1.4 0V16a4.7 4.7 0 0 1 4.7-4.7h28a4.7 4.7 0 0 1 4.7 4.7v20a.7.7 0 0 1-1.4 0V16a3.3 3.3 0 0 0-3.3-3.3H10A3.3 3.3 0 0 0 6.7 16v20z"/>
            <path d="M6 39.3h36a3.301 3.301 0 0 0 3.226-2.6H28.522l-1.288.604a.7.7 0 0 1-.297.066h-5.026a.7.7 0 0 1-.369-.105l-.911-.565H2.774A3.301 3.301 0 0 0 6 39.3zm22.07-3.934a.7.7 0 0 1 .296-.066H46a.7.7 0 0 1 .7.7 4.7 4.7 0 0 1-4.7 4.7H6A4.7 4.7 0 0 1 1.3 36a.7.7 0 0 1 .7-.7h18.83a.7.7 0 0 1 .369.105l.911.565h4.671l1.288-.604zM20 23.7a.7.7 0 0 1 0-1.4h8.68a.7.7 0 0 1 0 1.4H20zM20 27.7a.7.7 0 0 1 0-1.4h7a.7.7 0 0 1 0 1.4h-7z"/>
        </g>
    </g>
</svg>
