<svg xmlns="http://www.w3.org/2000/svg" width="48" height="48" viewBox="0 0 48 48">
    <g fill="none" fill-rule="evenodd">
        <path d="M0 0h48v48H0z"/>
        <g fill-rule="nonzero">
            <path fill="#703DB2" d="M29.012 43.575v.908c0 .887-.718 1.608-1.604 1.608H3.904c-.886 0-1.604-.72-1.604-1.608v-.908c0-1.714.831-3.283 2.175-4.254a3.87 3.87 0 0 1-.367-1.648c0-1.034.402-2.01 1.13-2.741a3.836 3.836 0 0 1 2.734-1.137H23.34a3.875 3.875 0 0 1 3.864 3.878 3.88 3.88 0 0 1-.366 1.65 5.244 5.244 0 0 1 2.174 4.252zm-3.686-4.434c.311-.424.478-.933.478-1.468a2.475 2.475 0 0 0-2.464-2.478H7.972c-.66 0-1.275.256-1.741.724a2.464 2.464 0 0 0-.723 1.754c0 .535.17 1.044.48 1.467a.7.7 0 0 1-.237 1.033A3.846 3.846 0 0 0 3.7 43.575v.908c0 .115.092.208.204.208h23.504a.206.206 0 0 0 .204-.208v-.908c0-1.44-.8-2.74-2.05-3.4a.7.7 0 0 1-.236-1.034z"/>
            <g fill="#8D959D">
                <path d="M8.122 18.278l6.319 3.648 7.314-12.668-6.319-3.649-7.314 12.67zm-1.563-.094l8.015-13.88a.7.7 0 0 1 .956-.257l7.531 4.348a.7.7 0 0 1 .257.956l-8.015 13.882a.7.7 0 0 1-.956.256L6.816 19.14a.7.7 0 0 1-.257-.957z"/>
                <path d="M4.68 19.755l10.028 5.79a.757.757 0 0 0 .757-1.312l-10.028-5.79a.757.757 0 1 0-.757 1.312zM3.19 18.02a2.157 2.157 0 0 1 2.947-.79l10.028 5.79a2.157 2.157 0 0 1-2.157 3.736L3.98 20.967a2.157 2.157 0 0 1-.79-2.946zM13.902 2.266A.757.757 0 0 0 14.18 3.3l10.028 5.79a.757.757 0 0 0 .757-1.311l-10.028-5.79a.757.757 0 0 0-1.035.277zm-1.212-.7a2.157 2.157 0 0 1 2.947-.79l10.028 5.79a2.157 2.157 0 1 1-2.157 3.737L13.48 4.513a2.157 2.157 0 0 1-.79-2.947zM34.405 29.404a3.533 3.533 0 0 0 5.305-1.392 3.584 3.584 0 0 0-1.777-4.747l-17.658-8.037-1.554 2.692 15.684 11.484zm-17.21-11.64l2.185-3.786a.7.7 0 0 1 .897-.287l18.236 8.3a4.984 4.984 0 0 1 2.251 7.029 4.933 4.933 0 0 1-7.186 1.513l-16.19-11.855a.7.7 0 0 1-.193-.914z"/>
            </g>
        </g>
        <path fill="#703DB2" fill-rule="nonzero" d="M5.018 40.7a.7.7 0 0 1 0-1.4h21.346a.7.7 0 0 1 0 1.4H5.018z"/>
    </g>
</svg>
