<svg xmlns="http://www.w3.org/2000/svg" width="50" height="44" viewBox="0 0 50 44">
    <g fill="none" fill-rule="nonzero">
        <path fill="#8D959D" d="M30.326 13.1L16.26 19.69a.7.7 0 0 1-.594-1.267l15.064-7.057a.7.7 0 0 1 .997.634v5.953l13.976-6.586A.7.7 0 0 1 46.7 12v31a.7.7 0 0 1-1.4 0V13.104L31.325 19.69a.7.7 0 0 1-.999-.634v-5.955z"/>
        <path fill="#8D959D" d="M16.25 42.3l-1.903-27.6H8.653L6.75 42.3h9.5zm-10.948.652l2-29A.7.7 0 0 1 8 13.3h7a.7.7 0 0 1 .698.652l2 29A.7.7 0 0 1 17 43.7H6a.7.7 0 0 1-.698-.748z"/>
        <path fill="#8D959D" d="M6.7 17.7v1.6h9.6v-1.6H6.7zM6 16.3h11a.7.7 0 0 1 .7.7v3a.7.7 0 0 1-.7.7H6a.7.7 0 0 1-.7-.7v-3a.7.7 0 0 1 .7-.7z"/>
        <g fill="#703DB2">
            <path d="M13.823 11.322a.7.7 0 0 1-1.4 0 2.866 2.866 0 0 1 2.866-2.867h3.812a.835.835 0 1 0 0-1.669H9.498a2.299 2.299 0 1 1 0-4.598h4.458c.828 0 1.499-.67 1.499-1.498a.7.7 0 0 1 1.4 0c0 1.6-1.298 2.898-2.899 2.898H9.498a.899.899 0 1 0 0 1.798h9.603a2.235 2.235 0 0 1 0 4.47h-3.812c-.81 0-1.466.656-1.466 1.466zM4.172 5.043a.7.7 0 1 1 0 1.4H2.995a.731.731 0 1 0 0 1.463h3.494a3.563 3.563 0 0 1 3.563 3.562.7.7 0 0 1-1.4 0 2.163 2.163 0 0 0-2.163-2.162H2.995a2.131 2.131 0 1 1 0-4.263h1.177z"/>
        </g>
        <g fill="#8D959D">
            <path d="M21.7 28.7v8.6h6.6v-8.6h-6.6zm-.7-1.4h8a.7.7 0 0 1 .7.7v10a.7.7 0 0 1-.7.7h-8a.7.7 0 0 1-.7-.7V28a.7.7 0 0 1 .7-.7z"/>
            <path d="M24.238 28.587a.7.7 0 1 1 1.4 0v8.598a.7.7 0 1 1-1.4 0v-8.598z"/>
        </g>
        <path fill="#8D959D" d="M36.7 32.3h2.6v-2.6h-2.6v2.6zm-.7-4h4a.7.7 0 0 1 .7.7v4a.7.7 0 0 1-.7.7h-4a.7.7 0 0 1-.7-.7v-4a.7.7 0 0 1 .7-.7zM1 43.7a.7.7 0 0 1 0-1.4h47.495a.7.7 0 0 1 0 1.4H1z"/>
    </g>
</svg>
