<svg xmlns="http://www.w3.org/2000/svg" width="48" height="48" viewBox="0 0 48 48">
    <g fill="none" fill-rule="evenodd">
        <path d="M0 0h48v48H0z"/>
        <path fill="#8D959D" fill-rule="nonzero" d="M4.998 4.7A2.298 2.298 0 0 0 2.7 6.998V28.41a2.298 2.298 0 0 0 2.298 2.297h21.505A2.298 2.298 0 0 0 28.8 28.41V6.997A2.298 2.298 0 0 0 26.503 4.7H4.997zm0-1.4h21.505A3.697 3.697 0 0 1 30.2 6.998V28.41a3.697 3.697 0 0 1-3.697 3.697H4.998A3.697 3.697 0 0 1 1.3 28.41V6.997A3.698 3.698 0 0 1 4.998 3.3z"/>
        <path fill="#8D959D" fill-rule="nonzero" d="M8.175 4a.7.7 0 0 1 1.4 0v27.407a.7.7 0 0 1-1.4 0V4zM21.925 4a.7.7 0 0 1 1.4 0v27.407a.7.7 0 0 1-1.4 0V4z"/>
        <path fill="#8D959D" fill-rule="nonzero" d="M2 18.404a.7.7 0 0 1 0-1.4h27.5a.7.7 0 0 1 0 1.4H2zM2 11.552a.7.7 0 1 1 0-1.4h6.875a.7.7 0 0 1 0 1.4H2zM2 25.256a.7.7 0 0 1 0-1.4h6.875a.7.7 0 1 1 0 1.4H2z"/>
        <path stroke="#8D959D" stroke-linecap="round" stroke-linejoin="round" stroke-width="1.4" d="M22.625 24.556H29.5"/>
        <path fill="#8D959D" fill-rule="nonzero" d="M22.625 11.552a.7.7 0 0 1 0-1.4H29.5a.7.7 0 0 1 0 1.4h-6.875z"/>
        <path fill="#703DB2" fill-rule="nonzero" d="M45.594 23.985a.7.7 0 0 1 1.106.57V38.26a.7.7 0 0 1-1.106.57l-9.625-6.851a.7.7 0 0 1 0-1.14l9.625-6.853zm-8.012 7.422l7.718 5.495V25.913l-7.718 5.494z"/>
        <path fill="#8D959D" fill-rule="nonzero" d="M22.625 22.515a2.05 2.05 0 0 0-2.05 2.05V38.25a2.05 2.05 0 0 0 2.05 2.05H37.75a2.05 2.05 0 0 0 2.05-2.05V24.565a2.05 2.05 0 0 0-2.05-2.05H22.625zm0-1.4H37.75a3.45 3.45 0 0 1 3.45 3.45V38.25a3.45 3.45 0 0 1-3.45 3.45H22.625a3.45 3.45 0 0 1-3.45-3.45V24.565a3.45 3.45 0 0 1 3.45-3.45z"/>
        <path fill="#FFF" fill-rule="nonzero" d="M22.625 22.515a2.05 2.05 0 0 0-2.05 2.05V38.25a2.05 2.05 0 0 0 2.05 2.05H37.75a2.05 2.05 0 0 0 2.05-2.05V24.565a2.05 2.05 0 0 0-2.05-2.05H22.625z"/>
        <path fill="#703DB2" fill-rule="nonzero" d="M30.813 32.352H33.9a1.013 1.013 0 0 0 0-2.026h-3.087v2.026zm-.7-3.426H33.9a2.413 2.413 0 1 1 0 4.826h-3.787a.7.7 0 0 1-.7-.7v-3.426a.7.7 0 0 1 .7-.7z"/>
    </g>
</svg>
