<svg xmlns="http://www.w3.org/2000/svg" width="48" height="51" viewBox="0 0 48 51">
    <g fill="none" fill-rule="evenodd">
        <path d="M0 2h48v48H0z"/>
        <path fill="#703DB2" fill-rule="nonzero" d="M20.05 23.3a.7.7 0 0 1 0 1.4H16a.7.7 0 0 1-.7-.7V9a.7.7 0 0 1 .7-.7h12a.7.7 0 0 1 .7.7v5.413a.7.7 0 1 1-1.4 0V9.7H16.7v13.6h3.35z"/>
        <path fill="#703DB2" fill-rule="nonzero" d="M16.08 14.88a.7.7 0 0 1 0-1.4h11.553a.7.7 0 1 1 0 1.4H16.08z"/>
        <path fill="#8D959D" fill-rule="nonzero" d="M37.9 9.36a.7.7 0 0 1 .982.64v39.304a.7.7 0 0 1-.7.7H20a.7.7 0 0 1-.7-.7V18a.7.7 0 0 1 .418-.64l18.182-8zm-.418 1.713L20.7 18.457v30.147h16.782V11.073z"/>
        <path fill="#8D959D" fill-rule="nonzero" d="M19.982 23.3a.7.7 0 0 1 .7.7v25.304a.7.7 0 0 1-.7.7H10.8a.7.7 0 0 1-.7-.7V24a.7.7 0 0 1 .7-.7h9.182zM11.5 24.7v23.904h7.782V24.7H11.5zM24.418 23.613a.7.7 0 0 1 0-1.4h10a.7.7 0 0 1 0 1.4h-10zM24.418 28.83a.7.7 0 0 1 0-1.4h10a.7.7 0 0 1 0 1.4h-10zM24.418 34.048a.7.7 0 0 1 0-1.4h10a.7.7 0 0 1 0 1.4h-10zM24.418 39.265a.7.7 0 0 1 0-1.4h10a.7.7 0 0 1 0 1.4h-10zM27.11 49a.7.7 0 0 1-1.4 0v-6.087a.7.7 0 0 1 .7-.7h5.18a.7.7 0 0 1 .7.7V49a.7.7 0 0 1-1.4 0v-5.387h-3.78V49z"/>
        <path fill="#703DB2" fill-rule="nonzero" d="M21.3 1a.7.7 0 0 1 1.4 0v7.26a.7.7 0 0 1-1.4 0V1z"/>
        <path stroke="#8D959D" stroke-dasharray="3" stroke-linecap="round" stroke-linejoin="round" stroke-width="1.4" d="M13.897 27.668v17.464M16.897 27.668v17.464"/>
        <path fill="#8D959D" fill-rule="nonzero" d="M7.837 49.995a.7.7 0 0 1 0-1.4h32.948a.7.7 0 1 1 0 1.4H7.837z"/>
    </g>
</svg>
