<svg xmlns="http://www.w3.org/2000/svg" width="48" height="48" viewBox="0 0 48 48">
    <g fill="none" fill-rule="evenodd">
        <path d="M0 0h48v48H0z"/>
        <g transform="translate(1 5)">
            <path fill="#8D959D" fill-rule="nonzero" d="M1.067 36.083a.82.82 0 1 1 0-1.639h43a.82.82 0 1 1 0 1.64h-43z"/>
            <path fill="#8D959D" fill-rule="nonzero" d="M12.407 5.245v3.72a.7.7 0 0 1-.089.34l-2.044 3.66c-.136.244-.208.52-.208.8v20.808H30.91V14.004c0-.251-.058-.499-.169-.724l-2.1-4.273a.7.7 0 0 1-.073-.308V5.245h-16.16zm-1.4 3.537V4.545a.7.7 0 0 1 .7-.7h17.561a.7.7 0 0 1 .7.7v3.99l2.03 4.127c.205.418.312.877.312 1.342v21.269a.7.7 0 0 1-.7.7H9.366a.7.7 0 0 1-.7-.7V13.765c0-.52.133-1.03.386-1.483l1.955-3.5z"/>
            <path fill="#8D959D" fill-rule="nonzero" d="M11.707 1.7a.47.47 0 0 0-.47.47v3.568c0 .26.21.471.47.471h17.561c.26 0 .471-.21.471-.47V2.17a.47.47 0 0 0-.47-.471H11.706zm0-1.4h17.561a1.87 1.87 0 0 1 1.871 1.87v3.568a1.87 1.87 0 0 1-1.87 1.871H11.706a1.87 1.87 0 0 1-1.87-1.87V2.17A1.87 1.87 0 0 1 11.707.3zM10.066 14.7v8.055H30.91V14.7H10.066zm-.7-1.4H31.61a.7.7 0 0 1 .7.7v9.455a.7.7 0 0 1-.7.7H9.366a.7.7 0 0 1-.7-.7V14a.7.7 0 0 1 .7-.7z"/>
            <path fill="#8D959D" fill-rule="nonzero" d="M19.611 16.698a.7.7 0 0 1 1.4 0v3.43a.7.7 0 1 1-1.4 0v-3.43z"/>
            <path fill="#8D959D" fill-rule="nonzero" d="M18.392 19.246a.7.7 0 0 1 0-1.4h3.81a.7.7 0 1 1 0 1.4h-3.81z"/>
            <path fill="#FFF" fill-rule="nonzero" d="M29.313 17.332a3.883 3.883 0 0 1 5.372 1.142l6.55 10.084a3.883 3.883 0 1 1-6.514 4.23l-6.55-10.084a3.883 3.883 0 0 1 1.142-5.372z"/>
            <path fill="#8D959D" fill-rule="nonzero" d="M29.313 17.332a3.883 3.883 0 0 1 5.372 1.142l6.55 10.084a3.883 3.883 0 1 1-6.514 4.23l-6.55-10.084a3.883 3.883 0 0 1 1.142-5.372zm-.762-1.174a5.283 5.283 0 0 0-1.554 7.308l6.55 10.085a5.283 5.283 0 0 0 8.861-5.755L35.86 17.711a5.283 5.283 0 0 0-7.308-1.553z"/>
            <path fill="#8D959D" fill-rule="nonzero" d="M32.895 19.923a.7.7 0 0 0 1.21-.705c-1.059-1.816-2.641-2.319-4.333-1.044a.7.7 0 0 0 .843 1.118c.958-.722 1.612-.514 2.28.631zM38.692 23.875a.7.7 0 0 0-.762-1.174l-7.283 4.73a.7.7 0 0 0 .762 1.174l7.283-4.73z"/>
            <ellipse cx="40.19" cy="30.074" fill="#8D959D" rx="1" ry="1" transform="scale(-1 1) rotate(-9 0 540.73)"/>
            <ellipse cx="37.681" cy="31.266" fill="#8D959D" rx="1" ry="1" transform="scale(-1 1) rotate(-9 0 510.043)"/>
            <ellipse cx="40.453" cy="33.294" fill="#8D959D" rx="1" ry="1" transform="scale(-1 1) rotate(-9 0 547.297)"/>
            <ellipse cx="34.786" cy="30.013" fill="#8D959D" rx="1" ry="1" transform="scale(-1 1) rotate(-9 0 472.005)"/>
            <ellipse cx="31.89" cy="28.76" fill="#8D959D" rx="1" ry="1" transform="scale(-1 1) rotate(-9 0 433.966)"/>
            <ellipse cx="35.277" cy="26.912" fill="#8D959D" rx="1" ry="1" transform="scale(-1 1) rotate(-9 0 475.144)"/>
            <ellipse cx="38.172" cy="28.165" fill="#8D959D" rx="1" ry="1" transform="scale(-1 1) rotate(-9 0 513.183)"/>
            <ellipse cx="38.54" cy="25.84" fill="#8D959D" rx="1" ry="1" transform="scale(-1 1) rotate(-9 0 515.537)"/>
            <ellipse cx="35.049" cy="33.233" fill="#8D959D" rx="1" ry="1" transform="scale(-1 1) rotate(-9 0 478.571)"/>
            <ellipse cx="37.944" cy="34.486" fill="#8D959D" rx="1" ry="1" transform="scale(-1 1) rotate(-9 0 516.61)"/>
            <path fill="#703DB2" fill-rule="nonzero" d="M8.195 35.973c-4.267 0-7.724-3.49-7.724-7.791 0-4.302 3.457-7.791 7.724-7.791 4.268 0 7.725 3.49 7.725 7.79 0 4.302-3.457 7.792-7.725 7.792zm0-1.4c3.492 0 6.325-2.86 6.325-6.391s-2.833-6.391-6.325-6.391c-3.491 0-6.324 2.86-6.324 6.39 0 3.532 2.833 6.392 6.324 6.392z"/>
            <path fill="#FFF" fill-rule="nonzero" d="M8.195 35.973c-4.267 0-7.724-3.49-7.724-7.791 0-4.302 3.457-7.791 7.724-7.791 4.268 0 7.725 3.49 7.725 7.79 0 4.302-3.457 7.792-7.725 7.792z"/>
            <path fill="#703DB2" fill-rule="nonzero" d="M8.195 35.973c-4.267 0-7.724-3.49-7.724-7.791 0-4.302 3.457-7.791 7.724-7.791 4.268 0 7.725 3.49 7.725 7.79 0 4.302-3.457 7.792-7.725 7.792zm0-1.4c3.492 0 6.325-2.86 6.325-6.391s-2.833-6.391-6.325-6.391c-3.491 0-6.324 2.86-6.324 6.39 0 3.532 2.833 6.392 6.324 6.392z"/>
            <path fill="#703DB2" fill-rule="nonzero" d="M12.803 23.741a.7.7 0 0 1 .877 1.091L3.418 33.08a.7.7 0 1 1-.877-1.091l10.262-8.247z"/>
        </g>
    </g>
</svg>
