<svg xmlns="http://www.w3.org/2000/svg" width="49" height="48" viewBox="0 0 49 48">
    <g fill="none" fill-rule="evenodd">
        <path d="M0 0h48v48H0z"/>
        <g transform="translate(0 6)">
            <path fill="#8D959D" fill-rule="nonzero" d="M8.87 10.965c-2.978 0-5.396-2.386-5.396-5.333S5.892.3 8.87.3c2.977 0 5.395 2.385 5.395 5.332s-2.418 5.333-5.395 5.333zm0-1.4c2.208 0 3.995-1.763 3.995-3.933S11.078 1.7 8.87 1.7c-2.21 0-3.996 1.763-3.996 3.932 0 2.17 1.787 3.933 3.996 3.933z"/>
            <ellipse cx="8.87" cy="5.632" fill="#8D959D" rx="1.565" ry="1.544"/>
            <path fill="#8D959D" fill-rule="nonzero" d="M9.345 10.965a.7.7 0 0 1 0-1.4H39.13c2.21 0 3.996-1.763 3.996-3.933S41.34 1.7 39.13 1.7H9.345a.7.7 0 0 1 0-1.4H39.13c2.978 0 5.396 2.385 5.396 5.332s-2.418 5.333-5.396 5.333H9.345z"/>
            <path fill="#8D959D" fill-rule="nonzero" d="M8.87 21.259c-2.978 0-5.396-2.385-5.396-5.333 0-2.947 2.418-5.332 5.396-5.332 2.977 0 5.395 2.385 5.395 5.332 0 2.948-2.418 5.333-5.395 5.333zm0-1.4c2.208 0 3.995-1.763 3.995-3.933s-1.787-3.932-3.995-3.932c-2.21 0-3.996 1.763-3.996 3.932 0 2.17 1.787 3.933 3.996 3.933z"/>
            <path stroke="#8D959D" stroke-linecap="round" stroke-linejoin="round" stroke-width="1.4" d="M9.345 20.559H39.13c2.594 0 4.696-2.074 4.696-4.633 0-2.558-2.102-4.632-4.696-4.632H9.345"/>
            <path fill="#FFF" fill-rule="nonzero" d="M8.666 11.626c-.863-.12-.774-1.393.097-1.393H40.76l.214.033c1.439.463 2.52 1.842 3.318 4.152.413 1.961.144 3.287-.764 4.939-.132.24-.602 1.05-.652 1.14-.983 1.737-1.416 3.145-1.416 5.39 0 3.91 2.116 6.648 6.475 8.307.718.273.535 1.336-.233 1.354l-32.034.763a.7.7 0 0 1-.377-.1 22.326 22.326 0 0 0-.515-.297 88.935 88.935 0 0 1-.41-.231c-3.828-2.184-4.798-5.19-2.55-13.357 1.858-6.748.761-10.153-3.151-10.7z"/>
            <path fill="#8D959D" fill-rule="nonzero" d="M8.666 11.626c-.863-.12-.774-1.393.097-1.393H40.76l.214.033c1.439.463 2.52 1.842 3.318 4.152.413 1.961.144 3.287-.764 4.939-.132.24-.602 1.05-.652 1.14-.983 1.737-1.416 3.145-1.416 5.39 0 3.91 2.116 6.648 6.475 8.307.718.273.535 1.336-.233 1.354l-32.034.763a.7.7 0 0 1-.377-.1 22.326 22.326 0 0 0-.515-.297 88.935 88.935 0 0 1-.41-.231c-3.828-2.184-4.798-5.19-2.55-13.357 1.858-6.748.761-10.153-3.151-10.7zm4.501 11.071c-2.09 7.59-1.335 9.928 1.894 11.77l.404.228c.148.083.265.15.37.212l28.952-.69c-3.13-1.923-4.726-4.716-4.726-8.33 0-2.51.504-4.146 1.598-6.08.057-.1.52-.901.643-1.124.757-1.378.959-2.372.645-3.891-.622-1.787-1.404-2.818-2.304-3.16H12.16c2.173 1.924 2.49 5.673 1.006 11.065z"/>
            <path fill="#703DB2" fill-rule="nonzero" d="M30.321 22.308a.7.7 0 0 1 .628-.39h7.496a.7.7 0 0 1 .627 1.01c-.262.53-.522 1.71-.533 2.785-.01 1.056.243 2.303.498 2.708a.7.7 0 0 1-.592 1.073h-7.696a.7.7 0 0 1-.584-.313c-1.243-1.875-1.168-4.193.156-6.873zm.823 5.786h6.288a9.503 9.503 0 0 1-.293-2.395c.008-.816.136-1.676.321-2.381h-6.068c-.868 1.926-.935 3.5-.248 4.776zM17.141 16.112a.7.7 0 1 1 0-1.4h20.844a.7.7 0 0 1 0 1.4H17.14zM17.141 20.23a.7.7 0 1 1 0-1.4h20.844a.7.7 0 1 1 0 1.4H17.14z"/>
            <path fill="#8D959D" fill-rule="nonzero" d="M16.098 24.347a.7.7 0 0 1 0-1.4H26.89a.7.7 0 0 1 0 1.4H16.098zM16.098 28.465a.7.7 0 0 1 0-1.4H26.89a.7.7 0 0 1 0 1.4H16.098zM16.226 32.582a.7.7 0 1 1 0-1.4h23.257a.7.7 0 0 1 0 1.4H16.226z"/>
            <path fill="#8D959D" fill-rule="nonzero" d="M1.461 34.896H17.45a.7.7 0 0 1 0 1.4H.754a.7.7 0 0 1-.7-.707l.29-30.471C.343 2.455 2.527.3 5.216.3h5.994a.7.7 0 0 1 0 1.4H5.217c-1.92 0-3.474 1.532-3.474 3.424l-.282 29.772z"/>
            <ellipse cx="8.87" cy="15.926" fill="#8D959D" rx="1.565" ry="1.544"/>
        </g>
    </g>
</svg>
