<svg xmlns="http://www.w3.org/2000/svg" width="48" height="48" viewBox="0 0 48 48">
    <g fill="none" fill-rule="evenodd">
        <path d="M0 0h48v48H0z"/>
        <g fill-rule="nonzero">
            <path fill="#8D959D" d="M35.337 2.7c1.596 1.328 2.563 2.194 2.9 2.6.33.398.55 1.05.657 1.96v1.822l2.508 2.246 1.912-1.623c-2.53-2.823-4.33-4.58-5.347-5.239-.755-.488-1.561-1.534-2.63-1.766zm-1.305-.989c1.889.202 3.468.707 4.731 1.524 1.234.798 3.264 2.804 6.147 6.056.272.307.239.78-.074 1.045l-2.972 2.524a.733.733 0 0 1-.964-.012l-2.463-2.206c-.483-.433-.483-.799 0-1.097-.07-.062-.159-3.46-.2-3.545-.755-1.464-1.422-2.386-2-2.765-.52-.34-1.5-.498-2.942-.472a.733.733 0 0 1 .737-1.052z"/>
            <path fill="#8D959D" d="M26.233 7a.733.733 0 1 1-1.466 0c0-4.063.638-5.5 3.635-5.5.405 0 .733.328.733.733 0 1.57.547 2.198 1.82 2.198 1.274 0 1.82-.628 1.82-2.198 0-.405.329-.734.734-.734a5.84 5.84 0 0 1 5.84 5.84v12.82a.733.733 0 0 1-.733.733H23.295a.733.733 0 0 1-.705-.53l-.333-1.16a.733.733 0 1 1 1.41-.405l.18.628h14.036V7.34a4.375 4.375 0 0 0-3.689-4.32c-.239 1.846-1.36 2.877-3.239 2.877-1.882 0-3.003-1.034-3.24-2.886-1.253.197-1.482 1.109-1.482 3.989z"/>
            <path fill="#8D959D" d="M36.568 20.101a.733.733 0 0 1 1.452-.202l3.437 24.645a.733.733 0 0 1-.412.764c-.912.431-1.628.654-2.191.654-.593 0-1.237-.241-1.954-.699a.733.733 0 0 1-.303-.391l-5.84-17.952-1.053 3.63a.733.733 0 1 1-1.408-.408l1.718-5.92c.2-.693 1.178-.709 1.401-.022l6.492 19.96c.4.228.72.335.947.335.225 0 .59-.097 1.074-.296l-3.36-24.098z"/>
            <path fill="#703DB2" d="M32.777 21.257a.733.733 0 0 1 1.464-.101c.155 2.254 1.113 3.25 3.051 3.25a.733.733 0 1 1 0 1.467c-2.745 0-4.309-1.626-4.515-4.616zM11.581 20.115a.7.7 0 0 1 0-1.4h10.973a.7.7 0 0 1 0 1.4H11.58z"/>
            <path fill="#703DB2" d="M13.476 19.464a.7.7 0 0 1 1.4 0v4.722a.7.7 0 1 1-1.4 0v-4.722zm1.4 7.381a.7.7 0 1 1-1.4 0v-.45a.7.7 0 0 1 1.4 0v.45z"/>
            <path fill="#8D959D" d="M11.144 2.7h-1.22c-.274 0-.501.211-.521.484l-.616 8.355 2.572 4.831a5.589 5.589 0 0 1-.79 6.38c-1.734 1.913-2.903 5.027-3.478 9.375L5.05 44.022a.618.618 0 0 0 .786.696l.715-.214a5.589 5.589 0 0 1 3.036-.05l2.045.542a4.189 4.189 0 0 0 2.123.005l2.246-.582a5.589 5.589 0 0 1 2.811.002l2.256.587c.678.177 1.39.18 2.07.011l2.343-.584a5.589 5.589 0 0 1 3.058.101l.581.186a.53.53 0 0 0 .685-.588l-1.923-12.025c-.636-4.314-1.96-7.42-3.943-9.336a5.589 5.589 0 0 1-1.07-6.61l2.43-4.648-.82-8.344a.522.522 0 0 0-.52-.471h-1.207c-.421 5.338-2.168 8.162-5.346 8.162-3.148 0-5.206-2.802-6.262-8.162zm-1.22-1.4h1.8a.7.7 0 0 1 .69.577c.916 5.148 2.613 7.585 4.992 7.585 2.333 0 3.703-2.383 3.993-7.502a.7.7 0 0 1 .699-.66h1.861c.989 0 1.816.75 1.913 1.734l.841 8.551a.7.7 0 0 1-.076.393l-2.527 4.834a4.189 4.189 0 0 0 .802 4.954c2.236 2.159 3.678 5.544 4.354 10.13l1.922 12.017a1.93 1.93 0 0 1-2.495 2.142l-.581-.186a4.189 4.189 0 0 0-2.293-.075l-2.343.584a5.589 5.589 0 0 1-2.76-.015l-2.257-.588a4.189 4.189 0 0 0-2.107 0l-2.246.581c-.929.241-1.904.239-2.832-.007l-2.045-.541a4.189 4.189 0 0 0-2.276.037l-.715.214a2.018 2.018 0 0 1-2.568-2.273l2.037-11.871c.606-4.578 1.87-7.949 3.824-10.105a4.189 4.189 0 0 0 .593-4.782l-2.668-5.01a.7.7 0 0 1-.08-.38l.63-8.557A1.922 1.922 0 0 1 9.923 1.3z"/>
        </g>
    </g>
</svg>
