<svg xmlns="http://www.w3.org/2000/svg" width="48" height="48" viewBox="0 0 48 48">
    <g fill="none" fill-rule="evenodd">
        <path d="M0 0h48v48H0z"/>
        <g fill-rule="nonzero">
            <path fill="#8D959D" d="M4.47 39.293a.7.7 0 1 1-1.4 0V15.195a4.4 4.4 0 0 1 4.392-4.407h33.076a4.4 4.4 0 0 1 4.393 4.407v24.098a.7.7 0 1 1-1.4 0V15.195a3 3 0 0 0-2.993-3.007H7.462a3 3 0 0 0-2.993 3.007v24.098z"/>
            <path fill="#8D959D" d="M1.7 39.994v1.16c0 .633.513 1.146 1.146 1.146h42.308c.633 0 1.146-.513 1.146-1.146v-1.16l-18.13.027a1.607 1.607 0 0 1-1.456.928h-3.795c-.648 0-1.208-.38-1.47-.928L1.7 39.994zm-.699-1.401l20.992.029a.7.7 0 0 1 .699.7c0 .125.102.227.227.227h3.795a.207.207 0 0 0 .207-.207v-.004a.7.7 0 0 1 .698-.716l19.38-.03a.7.7 0 0 1 .701.7v1.862a2.546 2.546 0 0 1-2.546 2.546H2.846A2.546 2.546 0 0 1 .3 41.154v-1.861a.7.7 0 0 1 .701-.7z"/>
            <path fill="#FFF" d="M17.555 16.929c-.058-.317.055-.642.258-.816l2.001-2.044a3.96 3.96 0 0 1 3.034-1.176l.905.048c3.455-4.587 8.73-7.692 16.135-8.622a2.057 2.057 0 0 1 1.751.607c.453.465.667 1.117.58 1.753-.903 7.57-3.94 12.954-8.441 16.478l.052.947a4.11 4.11 0 0 1-1.162 3.077l-1.993 2.037a.903.903 0 0 1-1.493-.289l-1.064-2.622c-.737.267-1.49.487-2.256.661l-.55.12a.7.7 0 0 1-.65-.193l-4.573-4.674a.7.7 0 0 1-.184-.637l.121-.563c.171-.787.39-1.563.655-2.323l-2.563-1.085a.91.91 0 0 1-.563-.684zm.463 9.19a.7.7 0 0 1 .208 1.201c-1.562 1.279-1.942 2.633-1.66 4.162.955-.705 2.425-1.095 4.085-1.277a2.37 2.37 0 0 0 1.596-.863c.54-.68.491-1.416.094-2.119a3.709 3.709 0 0 1-2.567.896.926.926 0 0 1-.888-.896 3.87 3.87 0 0 1 .88-2.593c-.766-.408-1.382-.366-1.938.007-.407.274-.769.712-1.081 1.255.432.004.861.08 1.271.228zm-2.66.931a1.011 1.011 0 0 1-.198-1.126c.473-1.04 1.073-1.902 1.887-2.449 1.196-.803 2.618-.722 4.174.44.176.16.275.386.275.622 0 .237-.1.463-.308.653-.465.374-.773.91-.87 1.497a2.347 2.347 0 0 0 1.438-.868.84.84 0 0 1 1.304-.007c1.065 1.294 1.489 2.885.277 4.408a3.771 3.771 0 0 1-2.54 1.377c-1.658.182-3.143.633-3.696 1.278a.996.996 0 0 1-1.73-.365c-.528-1.842-.409-3.585.865-5.173a.989.989 0 0 1-.878-.287z"/>
            <path fill="#8D959D" d="M17.555 16.929c-.058-.317.055-.642.258-.816l2.001-2.044a3.96 3.96 0 0 1 3.034-1.176l.905.048c3.455-4.587 8.73-7.692 16.135-8.622a2.057 2.057 0 0 1 1.751.607c.453.465.667 1.117.58 1.753-.903 7.57-3.94 12.954-8.441 16.478l.052.947a4.11 4.11 0 0 1-1.162 3.077l-1.993 2.037a.903.903 0 0 1-1.493-.289l-1.064-2.622c-.737.267-1.49.487-2.256.661l-.55.12a.7.7 0 0 1-.65-.193l-4.573-4.674a.7.7 0 0 1-.184-.637l.121-.563c.171-.787.39-1.563.655-2.323l-2.563-1.085a.91.91 0 0 1-.563-.684zm4.286.74a.7.7 0 0 1 .38.898 18.414 18.414 0 0 0-.826 2.75l-.042.194 4.038 4.127.166-.036c.917-.208 1.816-.49 2.689-.843a.7.7 0 0 1 .91.386l1.04 2.56 1.472-1.503c.523-.534.8-1.271.763-2.025l-.071-1.312a.7.7 0 0 1 .277-.597c4.361-3.29 7.315-8.399 8.194-15.765a.723.723 0 0 0-.195-.6.66.66 0 0 0-.566-.196c-7.188.903-12.187 3.918-15.41 8.364a.7.7 0 0 1-.604.288l-1.284-.068a2.56 2.56 0 0 0-1.96.76L19.3 16.593l2.541 1.076zm-3.823 8.45a.7.7 0 0 1 .208 1.201c-1.562 1.279-1.942 2.633-1.66 4.162.955-.705 2.425-1.095 4.085-1.277a2.37 2.37 0 0 0 1.596-.863c.54-.68.491-1.416.094-2.119a3.709 3.709 0 0 1-2.567.896.926.926 0 0 1-.888-.896 3.87 3.87 0 0 1 .88-2.593c-.766-.408-1.382-.366-1.938.007-.407.274-.769.712-1.081 1.255.432.004.861.08 1.271.228zm-2.66.931a1.011 1.011 0 0 1-.198-1.126c.473-1.04 1.073-1.902 1.887-2.449 1.196-.803 2.618-.722 4.174.44.176.16.275.386.275.622 0 .237-.1.463-.308.653-.465.374-.773.91-.87 1.497a2.347 2.347 0 0 0 1.438-.868.84.84 0 0 1 1.304-.007c1.065 1.294 1.489 2.885.277 4.408a3.771 3.771 0 0 1-2.54 1.377c-1.658.182-3.143.633-3.696 1.278a.996.996 0 0 1-1.73-.365c-.528-1.842-.409-3.585.865-5.173a.989.989 0 0 1-.878-.287z"/>
            <path fill="#8D959D" d="M21.229 18.94a.7.7 0 1 1 .597-1.266c3.062 1.445 5.52 3.977 7.369 7.571a.7.7 0 0 1-1.245.64c-1.715-3.332-3.954-5.639-6.721-6.945zM10.543 33.573a.7.7 0 0 1-.992-.988l3.57-3.584a.7.7 0 1 1 .992.988l-3.57 3.584zM12.414 36.422a.7.7 0 0 1-.992-.987l1.638-1.645a.7.7 0 1 1 .992.988l-1.638 1.644zM17.661 36.464a.7.7 0 0 1-.992-.988l2.818-2.827a.7.7 0 1 1 .992.988l-2.818 2.827z"/>
        </g>
    </g>
</svg>
