<svg xmlns="http://www.w3.org/2000/svg" width="48" height="48" viewBox="0 0 48 48">
    <g fill="none" fill-rule="evenodd">
        <path d="M0 0h48v48H0z"/>
        <g transform="translate(5 1)">
            <path fill="#8D959D" fill-rule="nonzero" d="M30.504 15.707L25.641 45.3h11.533L32.24 15.722l-1.736-.015zm3.02-.796l5.166 30.974a.7.7 0 0 1-.69.815H24.816a.7.7 0 0 1-.69-.814l5.094-30.998a.7.7 0 0 1 .697-.586l2.922.024a.7.7 0 0 1 .685.585z"/>
            <path fill="#8D959D" fill-rule="nonzero" d="M32.488 20.662l-3.14-2.99a.7.7 0 0 1 .966-1.014l3.732 3.555a.7.7 0 0 1-.057 1.063l-3.731 2.86 4.749 3.054a.7.7 0 0 1 .022 1.163l-6.673 4.658 8.307 4.487a.7.7 0 0 1 .025 1.218l-10.845 6.432a.7.7 0 0 1-.714-1.205l9.781-5.8-8.219-4.44a.7.7 0 0 1-.068-1.19l6.748-4.71-4.708-3.029a.7.7 0 0 1-.047-1.144l3.872-2.968zM32.153 14.904a.7.7 0 0 1-1.4 0V7.4a.7.7 0 0 1 1.4 0v7.504z"/>
            <ellipse cx="31.408" cy="6.833" fill="#8D959D" rx="1.163" ry="1.15"/>
            <path fill="#703DB2" fill-rule="nonzero" d="M33.72 9.824a.7.7 0 1 1-.847-1.115 2.35 2.35 0 0 0 .937-1.876c0-1.305-1.073-2.366-2.402-2.366-1.328 0-2.402 1.061-2.402 2.366 0 .74.346 1.423.929 1.87a.7.7 0 0 1-.852 1.11 3.748 3.748 0 0 1-1.477-2.98c0-2.082 1.704-3.766 3.802-3.766S35.21 4.75 35.21 6.833a3.749 3.749 0 0 1-1.49 2.99z"/>
            <path fill="#703DB2" fill-rule="nonzero" d="M35.486 12.25a.7.7 0 0 1-.865-1.1A5.471 5.471 0 0 0 36.7 6.834c0-3.005-2.376-5.434-5.3-5.434s-5.3 2.43-5.3 5.434c0 1.706.77 3.279 2.062 4.302a.7.7 0 1 1-.87 1.097 6.872 6.872 0 0 1-2.592-5.4C24.7 3.064 27.696 0 31.4 0s6.7 3.063 6.7 6.834c0 2.146-.978 4.13-2.614 5.416z"/>
            <path fill="#8D959D" fill-rule="nonzero" d="M.7 23.1v22.2h11.008V23.1H.7zM0 21.7h12.408a.7.7 0 0 1 .7.7V46a.7.7 0 0 1-.7.7H0a.7.7 0 0 1-.7-.7V22.4a.7.7 0 0 1 .7-.7z"/>
            <path fill="#8D959D" fill-rule="nonzero" d="M13.108 45.3H28.77v-6.567H13.11V45.3zm-.7-7.967H29.47a.7.7 0 0 1 .7.7V46a.7.7 0 0 1-.7.7H12.41a.7.7 0 0 1-.7-.7v-7.967a.7.7 0 0 1 .7-.7z"/>
            <path fill="#FFF" fill-rule="nonzero" d="M13.108 45.3H28.77v-6.567H13.11z"/>
            <path fill="#8D959D" fill-rule="nonzero" d="M2.91 27.037a.7.7 0 1 1 0-1.4h6.205a.7.7 0 0 1 0 1.4H2.91zM2.91 30.556a.7.7 0 0 1 0-1.4h6.205a.7.7 0 0 1 0 1.4H2.91zM2.91 34.075a.7.7 0 0 1 0-1.4h6.205a.7.7 0 1 1 0 1.4H2.91zM2.91 37.595a.7.7 0 0 1 0-1.4h6.205a.7.7 0 0 1 0 1.4H2.91zM2.91 41.114a.7.7 0 0 1 0-1.4h6.205a.7.7 0 1 1 0 1.4H2.91zM2.91 44.633a.7.7 0 1 1 0-1.4h6.205a.7.7 0 0 1 0 1.4H2.91zM15.319 43.114a.7.7 0 0 1 0-1.4h1.533a.7.7 0 1 1 0 1.4H15.32zm4.6 0a.7.7 0 0 1 0-1.4h1.533a.7.7 0 1 1 0 1.4H19.92zm4.6 0a.7.7 0 0 1 0-1.4h1.533a.7.7 0 1 1 0 1.4H24.52zM8.813 21.542L6.093 7.228h-.162L3.419 21.542h5.394zM6.025 6.692l-.022-.018-.013.01.019.099.016-.091zM1.896 22.12L4.653 6.407a.7.7 0 0 1 .69-.579h1.33a.7.7 0 0 1 .688.57l2.985 15.713a.7.7 0 0 1-.688.831H2.585a.7.7 0 0 1-.689-.821z"/>
            <path fill="#8D959D" fill-rule="nonzero" d="M7.07 15.858L4.23 13.929a.7.7 0 0 1-.128-1.046l2.537-2.829a.7.7 0 1 1 1.042.935l-2.002 2.232 3.017 2.047a.7.7 0 0 1 .01 1.152l-3.93 2.764L9.338 20.5a.7.7 0 1 1-.388 1.345l-5.966-1.722a.7.7 0 0 1-.21-1.245l4.296-3.021zM6.049 7.293c-1.456 0-2.639-1.17-2.639-2.616C3.41 3.23 4.593 2.06 6.05 2.06c1.456 0 2.639 1.17 2.639 2.617S7.505 7.293 6.049 7.293zm0-1.4c.686 0 1.239-.546 1.239-1.216 0-.67-.553-1.217-1.239-1.217S4.81 4.007 4.81 4.677s.553 1.216 1.239 1.216z"/>
            <path fill="#8D959D" fill-rule="nonzero" d="M9.14 8.928a.7.7 0 0 1-.804-1.146A3.878 3.878 0 0 0 10.002 4.6c0-2.152-1.768-3.9-3.953-3.9-2.185 0-3.953 1.748-3.953 3.9 0 1.315.664 2.519 1.751 3.24a.7.7 0 1 1-.774 1.166A5.28 5.28 0 0 1 .696 4.6c0-2.929 2.398-5.3 5.353-5.3 2.955 0 5.353 2.371 5.353 5.3A5.278 5.278 0 0 1 9.14 8.928z"/>
        </g>
    </g>
</svg>
