<svg xmlns="http://www.w3.org/2000/svg" width="24" height="24" viewBox="0 0 24 24">
    <g fill="none" fill-rule="evenodd">
        <path d="M0 0h24v24H0z"/>
        <path fill="#D8D8D8" fill-rule="nonzero" d="M23.5 8.658a6.725 6.725 0 0 1-1.904 4.7l-8.88 9.09a1 1 0 0 1-1.432 0l-8.88-9.09c-2.538-2.598-2.538-6.801 0-9.4a6.437 6.437 0 0 1 9.246 0l.35.359.35-.358A6.461 6.461 0 0 1 16.972 2c1.736 0 3.4.706 4.623 1.959a6.725 6.725 0 0 1 1.904 4.7zm-4.4 4.392l1.066-1.09A4.725 4.725 0 0 0 21.5 8.658c0-1.24-.48-2.428-1.334-3.301A4.462 4.462 0 0 0 16.973 4a4.462 4.462 0 0 0-3.193 1.356l-1.065 1.09a1 1 0 0 1-1.43 0l-1.066-1.09a4.437 4.437 0 0 0-6.385 0c-1.779 1.821-1.779 4.783 0 6.604L12 20.319l7.1-7.269z"/>
    </g>
</svg>
