<svg xmlns="http://www.w3.org/2000/svg" width="24" height="24" viewBox="0 0 24 24">
    <g fill="none" fill-rule="evenodd">
        <path d="M0 0h24v24H0z"/>
        <g stroke="#4F565E" stroke-linecap="round" stroke-linejoin="round" transform="translate(5 5)">
            <circle cx="7" cy="7" r="2"/>
            <path d="M11.71 8.91a1.05 1.05 0 0 0 .21 1.157l.037.038a1.273 1.273 0 1 1-1.8 1.801l-.039-.038a1.05 1.05 0 0 0-1.158-.21 1.05 1.05 0 0 0-.636.961v.108a1.273 1.273 0 1 1-2.546 0v-.057a1.05 1.05 0 0 0-.687-.96 1.05 1.05 0 0 0-1.158.21l-.038.037a1.273 1.273 0 1 1-1.801-1.8l.038-.039c.3-.307.383-.765.21-1.158a1.05 1.05 0 0 0-.961-.636h-.108a1.273 1.273 0 0 1 0-2.546h.057a1.05 1.05 0 0 0 .96-.687 1.05 1.05 0 0 0-.21-1.158l-.037-.038a1.273 1.273 0 1 1 1.8-1.801l.039.038c.307.3.765.383 1.158.21h.05a1.05 1.05 0 0 0 .637-.961v-.108a1.273 1.273 0 0 1 2.546 0v.057c.001.419.251.796.636.96.393.174.851.091 1.158-.21l.038-.037a1.273 1.273 0 1 1 1.801 1.8l-.038.039a1.05 1.05 0 0 0-.21 1.158v.05c.165.386.543.636.961.637h.108a1.273 1.273 0 1 1 0 2.546h-.057a1.05 1.05 0 0 0-.96.636z"/>
        </g>
    </g>
</svg>
