<svg xmlns="http://www.w3.org/2000/svg" width="32" height="32" viewBox="0 0 32 32">
    <g fill="none" fill-rule="evenodd">
        <path d="M0 0h32v32H0z"/>
        <path stroke="#4F565E" stroke-linecap="round" stroke-linejoin="round" d="M29 6.012a12.24 12.24 0 0 1-3.568 1.79c-1.402-1.66-3.661-2.242-5.657-1.457-1.996.784-3.304 2.769-3.275 4.969v1.17c-4.056.108-7.895-1.882-10.227-5.302 0 0-4.546 10.533 5.682 15.214A12.948 12.948 0 0 1 4 24.737c10.227 5.852 22.727 0 22.727-13.459a5.419 5.419 0 0 0-.09-.97A9.106 9.106 0 0 0 29 6.011z"/>
    </g>
</svg>
