<svg xmlns="http://www.w3.org/2000/svg" width="24" height="24" viewBox="0 0 24 24">
    <g fill="none" fill-rule="evenodd">
        <path d="M0 0h24v24H0z"/>
        <path fill="#7C7C91" d="M20.217 5.737a7.985 7.985 0 0 1-2.305 1.127 3.279 3.279 0 0 0-3.653-.918 3.3 3.3 0 0 0-2.115 3.129v.737A7.812 7.812 0 0 1 5.54 6.474s-2.935 6.631 3.67 9.579a8.516 8.516 0 0 1-5.138 1.473c6.605 3.685 14.677 0 14.677-8.473 0-.206-.02-.41-.059-.612a5.694 5.694 0 0 0 1.527-2.704z" opacity=".787"/>
    </g>
</svg>
