<svg xmlns="http://www.w3.org/2000/svg" xmlns:xlink="http://www.w3.org/1999/xlink" width="216" height="216" viewBox="0 0 216 216">
    <defs>
        <circle id="a" cx="90" cy="90" r="90"/>
        <path id="c" d="M.016 0H123v63.163H.016z"/>
    </defs>
    <g fill="none" fill-rule="evenodd">
        <path d="M0 0h216v216H0z"/>
        <g transform="translate(18 18)">
            <circle cx="90" cy="90" r="90" fill="#DECCF5"/>
            <circle cx="87" cy="104" r="76" fill="#FFF" opacity=".161"/>
            <circle cx="84" cy="120" r="60" fill="#FFF" opacity=".161"/>
            <ellipse cx="84.205" cy="14.2" fill="#FFF" opacity=".19" rx="2.205" ry="2.2"/>
            <path fill="#FFF" fill-rule="nonzero" d="M151.703 43.788l.702 2.475a.36.36 0 0 0 .693-.001l.693-2.47 2.471-.694a.36.36 0 0 0 .001-.693l-2.475-.702-.702-2.475a.36.36 0 0 0-.693 0L151.7 41.7l-2.471.693a.36.36 0 0 0-.001.693l2.475.702zM85.703 52.788l.702 2.475a.36.36 0 0 0 .693-.001l.693-2.47 2.471-.694a.36.36 0 0 0 .001-.693l-2.475-.702-.702-2.475a.36.36 0 0 0-.693 0L85.7 50.7l-2.471.693a.36.36 0 0 0-.001.693l2.475.702z" opacity=".147"/>
            <g fill="#703DB2">
                <path d="M26.325 76.343L13.6 66.098 17.337 62zM23.165 91.818l-10.192 12.793-4.077-3.757zM41.22 72.793L51.413 60l4.077 3.757z"/>
            </g>
            <g>
                <mask id="b" fill="#fff">
                    <use xlink:href="#a"/>
                </mask>
                <g mask="url(#b)">
                    <g transform="translate(32 81.212)">
                        <mask id="d" fill="#fff">
                            <use xlink:href="#c"/>
                        </mask>
                        <path fill="#A87CE1" d="M97.303 59.075l21.456-2.978.587-.082a4.26 4.26 0 0 0 3.654-4.23V4.27c0 20.762-9.63 39.81-25.697 54.806z" mask="url(#d)"/>
                        <path fill="#B487EF" d="M67.862 63.163l29.441-4.088C113.37 44.08 123 25.03 123 4.269 123 1.912 121.1 0 118.759 0H4.24C1.9 0 0 1.912 0 4.27v47.515a4.26 4.26 0 0 0 3.654 4.23l.587.082 50.897 7.066h12.724z" mask="url(#d)"/>
                    </g>
                    <path fill="#643E96" d="M40.15 172.966c.112 0 .212.034.333.034h106.034c2.343 0 4.242-1.912 4.242-4.27V137.31l-21.456 2.977c-21.02 19.623-53.082 32.272-89.154 32.68z"/>
                    <path fill="#683F9D" d="M99.862 144.375H87.138l-50.897-7.066v31.422c.005 2.222 1.707 4.068 3.908 4.235 36.072-.408 68.135-13.057 89.154-32.68l-29.44 4.089z"/>
                    <path fill="#B487EF" d="M74.414 70.538h38.172v10.674h8.483V70.538c0-4.715-3.798-8.538-8.483-8.538H74.414c-4.685 0-8.483 3.823-8.483 8.538v10.674h8.483V70.538z"/>
                    <path fill="#FFF" d="M95.62 134.577h-4.24c-2.34.007-4.235 1.915-4.242 4.27v12.807c.007 2.354 1.902 4.262 4.241 4.27h4.242c2.339-.008 4.234-1.916 4.241-4.27v-12.808c-.007-2.354-1.902-4.262-4.241-4.27z"/>
                </g>
            </g>
            <path fill="#643E96" d="M57.865 172.931c.113 0 .212.035.333.035l88.32.034c2.342 0 4.24-1.912 4.24-4.27V137.31l-21.455 2.977c-21.02 19.623-35.367 32.238-71.438 32.645z"/>
        </g>
    </g>
</svg>
