<svg xmlns="http://www.w3.org/2000/svg" xmlns:xlink="http://www.w3.org/1999/xlink" width="216" height="216" viewBox="0 0 216 216">
    <defs>
        <circle id="a" cx="90" cy="90" r="90"/>
    </defs>
    <g fill="none" fill-rule="evenodd">
        <path d="M0 0h216v216H0z"/>
        <g transform="translate(16 18)">
            <circle cx="90" cy="90" r="90" fill="#DECCF5"/>
            <circle cx="87" cy="104" r="76" fill="#FFF" opacity=".161"/>
            <circle cx="84" cy="120" r="60" fill="#FFF" opacity=".161"/>
            <path fill="#FFF" fill-rule="nonzero" d="M18.806 55.513l1.014 3.578a.36.36 0 0 0 .693 0l1.003-3.575 3.575-1.003a.36.36 0 0 0 0-.693l-3.578-1.014-1.013-3.578a.36.36 0 0 0-.693 0l-1.004 3.575-3.574 1.004a.36.36 0 0 0 0 .693l3.577 1.013zM35.806 175.513l1.014 3.578a.36.36 0 0 0 .693 0l1.003-3.575 3.575-1.003a.36.36 0 0 0 0-.693l-3.578-1.014-1.013-3.578a.36.36 0 0 0-.693 0l-1.004 3.575-3.574 1.004a.36.36 0 0 0 0 .693l3.577 1.013z" opacity=".147"/>
            <ellipse cx="101.205" cy="15.2" fill="#FFF" opacity=".19" rx="2.205" ry="2.2"/>
            <ellipse cx="27.205" cy="129.2" fill="#FFF" opacity=".19" rx="2.205" ry="2.2"/>
            <path fill="#FFF" fill-rule="nonzero" d="M158.703 68.788l.702 2.475a.36.36 0 0 0 .693-.001l.693-2.47 2.471-.694a.36.36 0 0 0 .001-.693l-2.475-.702-.702-2.475a.36.36 0 0 0-.693 0L158.7 66.7l-2.471.693a.36.36 0 0 0-.001.693l2.475.702z" opacity=".147"/>
            <mask id="b" fill="#fff">
                <use xlink:href="#a"/>
            </mask>
            <g mask="url(#b)">
                <path fill="#B487EF" d="M31.502 56h153v105c0 6.627-5.372 12-12 12h-143V58a2 2 0 0 1 2-2z"/>
                <path fill="#CFBFE5" d="M159.502 147h13v22c-7.18 0-13-5.82-13-13v-9z"/>
                <path fill="#E2D5F5" d="M184.14 159.071c-1.344-5.454-6.268-9.5-12.138-9.5-5.869 0-10.794 4.046-12.137 9.5a12.529 12.529 0 0 1-.363-3V49.5c0-6.904 5.597-12.5 12.5-12.5 6.904 0 12.5 5.596 12.5 12.5v106.571c0 1.034-.125 2.04-.362 3z"/>
                <text font-family="Arial-Black, Arial Black" font-size="34" font-weight="700" transform="translate(29 37)">
                    <tspan x="10" y="65" fill="#703DB2">4.5</tspan>
                </text>
                <path fill="#FEFDFF" d="M39 120h80v5H39zM39 132h49v5H39z"/>
                <g>
                    <path fill="#DECDF5" d="M43.535 151.362l-2.262 1.184a.43.43 0 0 1-.624-.452l.424-2.526-1.824-1.794a.43.43 0 0 1 .238-.732l2.527-.376 1.136-2.292a.43.43 0 0 1 .77 0l1.136 2.292 2.526.376a.43.43 0 0 1 .238.732l-1.824 1.794.424 2.526a.43.43 0 0 1-.623.452l-2.262-1.184zM54.535 151.362l-2.262 1.184a.43.43 0 0 1-.624-.452l.424-2.526-1.824-1.794a.43.43 0 0 1 .238-.732l2.527-.376 1.136-2.292a.43.43 0 0 1 .77 0l1.136 2.292 2.526.376a.43.43 0 0 1 .238.732l-1.824 1.794.424 2.526a.43.43 0 0 1-.623.452l-2.262-1.184zM65.535 151.362l-2.262 1.184a.43.43 0 0 1-.624-.452l.424-2.526-1.824-1.794a.43.43 0 0 1 .238-.732l2.527-.376 1.136-2.292a.43.43 0 0 1 .77 0l1.136 2.292 2.526.376a.43.43 0 0 1 .238.732l-1.824 1.794.424 2.526a.43.43 0 0 1-.623.452l-2.262-1.184zM76.535 151.362l-2.262 1.184a.43.43 0 0 1-.624-.452l.424-2.526-1.824-1.794a.43.43 0 0 1 .238-.732l2.527-.376 1.136-2.292a.43.43 0 0 1 .77 0l1.136 2.292 2.526.376a.43.43 0 0 1 .238.732l-1.824 1.794.424 2.526a.43.43 0 0 1-.623.452l-2.262-1.184z"/>
                    <path fill="#EADFF9" d="M87.535 151.362l-2.262 1.184a.43.43 0 0 1-.624-.452l.424-2.526-1.824-1.794a.43.43 0 0 1 .238-.732l2.527-.376 1.136-2.292a.43.43 0 0 1 .77 0l1.136 2.292 2.526.376a.43.43 0 0 1 .238.732l-1.824 1.794.424 2.526a.43.43 0 0 1-.623.452l-2.262-1.184z"/>
                    <path fill="#DECDF5" d="M87.535 151.362l-2.262 1.184a.43.43 0 0 1-.624-.452l.424-2.526-1.824-1.794a.43.43 0 0 1 .238-.732l2.527-.376 1.136-2.292c.105-.212.307-.29.423-.239"/>
                </g>
            </g>
            <g>
                <path fill="#B487EF" d="M109.502 56h75v105c0 6.627-5.372 12-12 12h-65V58a2 2 0 0 1 2-2z"/>
                <path fill="#4A2B73" d="M159.502 147h13v22c-7.18 0-13-5.82-13-13v-9z"/>
                <path fill="#703DB2" d="M184.14 159.071c-1.344-5.454-6.268-9.5-12.138-9.5-5.869 0-10.794 4.046-12.137 9.5a12.529 12.529 0 0 1-.363-3V49.5c0-6.904 5.597-12.5 12.5-12.5 6.904 0 12.5 5.596 12.5 12.5v106.571c0 1.034-.125 2.04-.362 3z"/>
                <text fill="#FFF" font-family="Arial-Black, Arial Black" font-size="34" font-weight="700" transform="translate(39 37)">
                    <tspan x="0" y="65">4.5</tspan>
                </text>
                <path fill="#DBC0FE" d="M39 120h80v5H39zM39 132h49v5H39z"/>
                <g>
                    <path fill="#DAC0FC" d="M43.535 151.362l-2.262 1.184a.43.43 0 0 1-.624-.452l.424-2.526-1.824-1.794a.43.43 0 0 1 .238-.732l2.527-.376 1.136-2.292a.43.43 0 0 1 .77 0l1.136 2.292 2.526.376a.43.43 0 0 1 .238.732l-1.824 1.794.424 2.526a.43.43 0 0 1-.623.452l-2.262-1.184zM54.535 151.362l-2.262 1.184a.43.43 0 0 1-.624-.452l.424-2.526-1.824-1.794a.43.43 0 0 1 .238-.732l2.527-.376 1.136-2.292a.43.43 0 0 1 .77 0l1.136 2.292 2.526.376a.43.43 0 0 1 .238.732l-1.824 1.794.424 2.526a.43.43 0 0 1-.623.452l-2.262-1.184zM65.535 151.362l-2.262 1.184a.43.43 0 0 1-.624-.452l.424-2.526-1.824-1.794a.43.43 0 0 1 .238-.732l2.527-.376 1.136-2.292a.43.43 0 0 1 .77 0l1.136 2.292 2.526.376a.43.43 0 0 1 .238.732l-1.824 1.794.424 2.526a.43.43 0 0 1-.623.452l-2.262-1.184zM76.535 151.362l-2.262 1.184a.43.43 0 0 1-.624-.452l.424-2.526-1.824-1.794a.43.43 0 0 1 .238-.732l2.527-.376 1.136-2.292a.43.43 0 0 1 .77 0l1.136 2.292 2.526.376a.43.43 0 0 1 .238.732l-1.824 1.794.424 2.526a.43.43 0 0 1-.623.452l-2.262-1.184z"/>
                    <path fill="#FFF" d="M87.535 151.362l-2.262 1.184a.43.43 0 0 1-.624-.452l.424-2.526-1.824-1.794a.43.43 0 0 1 .238-.732l2.527-.376 1.136-2.292a.43.43 0 0 1 .77 0l1.136 2.292 2.526.376a.43.43 0 0 1 .238.732l-1.824 1.794.424 2.526a.43.43 0 0 1-.623.452l-2.262-1.184z"/>
                    <path fill="#DAC0FC" d="M87.535 151.362l-2.262 1.184a.43.43 0 0 1-.624-.452l.424-2.526-1.824-1.794a.43.43 0 0 1 .238-.732l2.527-.376 1.136-2.292c.105-.212.307-.29.423-.239"/>
                </g>
            </g>
            <g transform="translate(103 75)">
                <circle cx="14" cy="14" r="14" fill="#C59EF8"/>
                <path fill="#E9D9FF" d="M10.58 12.36a9.838 9.838 0 0 1-.322-2.535V9.26h-.913a.34.34 0 0 0-.336.394 4.376 4.376 0 0 0 1.57 2.707zm2.572 4.96h1.714a2.043 2.043 0 0 1-.52-1.332 2.373 2.373 0 0 1-.678.004 2.029 2.029 0 0 1-.516 1.328zm-.793 1.72h3.297v-1.105h-3.297v1.105zm4.765 1.344v-.42a.306.306 0 0 0-.303-.309h-5.628a.306.306 0 0 0-.302.308v.421h6.233zm1.853-10.73a.34.34 0 0 0-.336-.395h-.913v.566c0 .888-.111 1.748-.322 2.535a4.376 4.376 0 0 0 1.57-2.707zm.385-.671a.963.963 0 0 1 .211.77 4.978 4.978 0 0 1-2.485 3.554c-.12.295-.256.574-.408.834-.477.818-1.07 1.387-1.721 1.67a1.403 1.403 0 0 0 1.065 1.516l.004.001a.307.307 0 0 1 .232.3v1.412h.561c.5 0 .907.414.907.923v.73c0 .17-.135.307-.302.307h-6.837a.305.305 0 0 1-.303-.308v-.729c0-.509.407-.923.907-.923h.561v-1.412c0-.146.1-.267.232-.3h.004a1.404 1.404 0 0 0 1.066-1.505c-.663-.277-1.266-.851-1.75-1.682a6.627 6.627 0 0 1-.409-.834 4.979 4.979 0 0 1-2.485-3.555.963.963 0 0 1 .212-.77.938.938 0 0 1 .72-.339h.914v-.29c0-.36.287-.653.64-.653h6.19c.353 0 .64.293.64.652v.291h.913c.278 0 .54.124.72.34z"/>
                <path fill="#C59EF8" d="M14.487 11.903l.29-.297-.401-.061a.263.263 0 0 1-.197-.15L14 11.014l-.18.38a.262.262 0 0 1-.196.151l-.4.061.29.297c.06.063.089.154.075.243l-.069.42.358-.198a.252.252 0 0 1 .244 0l.358.198-.069-.42a.284.284 0 0 1 .076-.243zm1.1-.573c.031.1.005.208-.066.281l-.571.585.135.825a.282.282 0 0 1-.104.269.252.252 0 0 1-.275.02L14 12.922l-.706.39a.25.25 0 0 1-.275-.021.282.282 0 0 1-.104-.269l.135-.825-.571-.585a.284.284 0 0 1-.066-.281c.03-.1.112-.172.21-.187l.79-.12.352-.752a.26.26 0 0 1 .235-.153c.1 0 .19.06.235.153l.352.751.79.12c.098.016.18.088.21.188z"/>
            </g>
        </g>
    </g>
</svg>
