<svg xmlns="http://www.w3.org/2000/svg" width="44" height="50" viewBox="0 0 44 50">
    <g fill="none" fill-rule="evenodd">
        <path fill="#E2574C" d="M3.143 0h26.703L44 14.019v32.856A3.135 3.135 0 0 1 40.857 50H3.143A3.134 3.134 0 0 1 0 46.875V3.125A3.135 3.135 0 0 1 3.143 0z"/>
        <path fill="#B53629" d="M44 14.393H32.757c-1.782 0-3.226-1.437-3.226-3.206V0L44 14.393z"/>
        <path fill="#FFF" d="M32.455 24.037c.516 0 .77-.435.77-.857 0-.437-.264-.859-.77-.859h-2.94c-.574 0-.895.461-.895.97v6.99c0 .623.367.969.863.969.493 0 .861-.346.861-.97v-1.918h1.778c.552 0 .828-.437.828-.87 0-.425-.276-.847-.828-.847h-1.778v-2.608h2.111zm-9.936-1.716h-2.151c-.584 0-.998.388-.998.964v7.002c0 .714.595.937 1.023.937h2.256c2.673 0 4.437-1.7 4.437-4.326-.002-2.776-1.663-4.577-4.567-4.577zm.103 7.178h-1.31v-5.451h1.18c1.79 0 2.567 1.161 2.567 2.764 0 1.5-.764 2.687-2.437 2.687zm-7.879-7.178h-2.132c-.601 0-.938.385-.938.97v6.99c0 .623.386.969.903.969.518 0 .904-.346.904-.97v-2.04h1.335c1.648 0 3.009-1.13 3.009-2.947 0-1.778-1.312-2.972-3.081-2.972zm-.036 4.28H13.48v-2.638h1.227c.758 0 1.24.572 1.24 1.32 0 .745-.482 1.318-1.24 1.318z"/>
    </g>
</svg>
