<svg xmlns="http://www.w3.org/2000/svg" width="557" height="216" viewBox="0 0 557 216">
    <g fill="none" fill-rule="evenodd">
        <path fill="#9D9DF7" d="M556.69 215.442H105.77l-18.968-45.11a61 61 0 0 1-4.712-26.28c1.455-33.658 29.92-59.763 63.578-58.308 85.97 3.717 159.33-1.373 220.076-15.272C427.122 56.428 490.45 33.085 555.727.443c.32-.16.64-.316.963-.47v215.469z" opacity=".038"/>
        <path fill="#9999E5" d="M542.2 215H.668c6.381-25.197 28.529-44.435 55.85-45.913 78.706-4.255 146.592-12.911 203.66-25.968 55.785-12.764 113.173-34.265 172.162-64.503a61 61 0 0 1 13.825-5.087c32.79-7.733 65.64 12.58 73.372 45.371L542.2 215z" opacity=".1"/>
    </g>
</svg>
