<svg xmlns="http://www.w3.org/2000/svg" width="152" height="259" viewBox="0 0 152 259">
    <g fill="#D8D8D8" fill-rule="evenodd" opacity=".9">
        <g opacity=".6" transform="matrix(-1 0 0 1 216 0)">
            <ellipse cx="107.885" cy="150.875" rx="1.416" ry="1.411" transform="rotate(72 107.885 150.875)"/>
            <ellipse cx="97.308" cy="150.875" rx="1.414" ry="1.412" transform="rotate(54 97.308 150.875)"/>
            <ellipse cx="86.731" cy="150.875" rx="1.412" ry="1.414" transform="rotate(36 86.73 150.875)"/>
            <ellipse cx="76.154" cy="150.875" rx="1.411" ry="1.416" transform="rotate(18 76.154 150.875)"/>
            <ellipse cx="65.577" cy="150.875" rx="1.41" ry="1.417"/>
            <ellipse cx="107.885" cy="140.25" rx="1.414" ry="1.412" transform="rotate(-126 107.885 140.25)"/>
            <ellipse cx="97.308" cy="140.25" rx="1.412" ry="1.414" transform="rotate(-144 97.308 140.25)"/>
            <ellipse cx="86.731" cy="140.25" rx="1.411" ry="1.416" transform="rotate(-162 86.73 140.25)"/>
            <ellipse cx="76.154" cy="140.25" rx="1.41" ry="1.417" transform="rotate(-180 76.154 140.25)"/>
            <ellipse cx="65.577" cy="140.25" rx="1.411" ry="1.416" transform="rotate(162 65.577 140.25)"/>
            <ellipse cx="107.885" cy="129.625" rx="1.412" ry="1.414" transform="rotate(36 107.885 129.625)"/>
            <ellipse cx="97.308" cy="129.625" rx="1.411" ry="1.416" transform="rotate(18 97.308 129.625)"/>
            <ellipse cx="86.731" cy="129.625" rx="1.41" ry="1.417"/>
            <ellipse cx="76.154" cy="129.625" rx="1.411" ry="1.416" transform="rotate(-18 76.154 129.625)"/>
            <ellipse cx="65.577" cy="129.625" rx="1.412" ry="1.414" transform="rotate(-36 65.577 129.625)"/>
            <ellipse cx="107.885" cy="119" rx="1.411" ry="1.416" transform="rotate(-162 107.885 119)"/>
            <ellipse cx="97.308" cy="119" rx="1.41" ry="1.417" transform="rotate(-180 97.308 119)"/>
            <ellipse cx="86.731" cy="119" rx="1.411" ry="1.416" transform="rotate(162 86.73 119)"/>
            <ellipse cx="76.154" cy="119" rx="1.412" ry="1.414" transform="rotate(144 76.154 119)"/>
            <ellipse cx="65.577" cy="119" rx="1.414" ry="1.412" transform="rotate(126 65.577 119)"/>
            <ellipse cx="107.885" cy="108.375" rx="1.41" ry="1.417"/>
            <ellipse cx="97.308" cy="108.375" rx="1.411" ry="1.416" transform="rotate(-18 97.308 108.375)"/>
            <ellipse cx="86.731" cy="108.375" rx="1.412" ry="1.414" transform="rotate(-36 86.73 108.375)"/>
            <ellipse cx="76.154" cy="108.375" rx="1.414" ry="1.412" transform="rotate(-54 76.154 108.375)"/>
            <ellipse cx="65.577" cy="108.375" rx="1.416" ry="1.411" transform="rotate(-72 65.577 108.375)"/>
            <ellipse cx="107.885" cy="97.75" rx="1.411" ry="1.416" transform="rotate(162 107.885 97.75)"/>
            <ellipse cx="97.308" cy="97.75" rx="1.412" ry="1.414" transform="rotate(144 97.308 97.75)"/>
            <ellipse cx="86.731" cy="97.75" rx="1.414" ry="1.412" transform="rotate(126 86.73 97.75)"/>
            <ellipse cx="76.154" cy="97.75" rx="1.416" ry="1.411" transform="rotate(108 76.154 97.75)"/>
            <ellipse cx="65.577" cy="97.75" rx="1.417" ry="1.41" transform="rotate(90 65.577 97.75)"/>
            <ellipse cx="107.885" cy="87.125" rx="1.412" ry="1.414" transform="rotate(-36 107.885 87.125)"/>
            <ellipse cx="97.308" cy="87.125" rx="1.414" ry="1.412" transform="rotate(-54 97.308 87.125)"/>
            <ellipse cx="86.731" cy="87.125" rx="1.416" ry="1.411" transform="rotate(-72 86.73 87.125)"/>
            <ellipse cx="76.154" cy="87.125" rx="1.417" ry="1.41" transform="rotate(-90 76.154 87.125)"/>
            <ellipse cx="65.577" cy="87.125" rx="1.416" ry="1.411" transform="rotate(-108 65.577 87.125)"/>
            <ellipse cx="107.885" cy="76.5" rx="1.414" ry="1.412" transform="rotate(126 107.885 76.5)"/>
            <ellipse cx="97.308" cy="76.5" rx="1.416" ry="1.411" transform="rotate(108 97.308 76.5)"/>
            <ellipse cx="86.731" cy="76.5" rx="1.417" ry="1.41" transform="rotate(90 86.73 76.5)"/>
            <ellipse cx="76.154" cy="76.5" rx="1.416" ry="1.411" transform="rotate(72 76.154 76.5)"/>
            <ellipse cx="65.577" cy="76.5" rx="1.414" ry="1.412" transform="rotate(54 65.577 76.5)"/>
            <ellipse cx="107.885" cy="65.875" rx="1.416" ry="1.411" transform="rotate(-72 107.885 65.875)"/>
            <ellipse cx="97.308" cy="65.875" rx="1.417" ry="1.41" transform="rotate(-90 97.308 65.875)"/>
            <ellipse cx="86.731" cy="65.875" rx="1.416" ry="1.411" transform="rotate(-108 86.73 65.875)"/>
            <ellipse cx="76.154" cy="65.875" rx="1.414" ry="1.412" transform="rotate(-126 76.154 65.875)"/>
            <ellipse cx="65.577" cy="65.875" rx="1.412" ry="1.414" transform="rotate(-144 65.577 65.875)"/>
            <ellipse cx="107.885" cy="55.25" rx="1.417" ry="1.41" transform="rotate(90 107.885 55.25)"/>
            <ellipse cx="97.308" cy="55.25" rx="1.416" ry="1.411" transform="rotate(72 97.308 55.25)"/>
            <ellipse cx="86.731" cy="55.25" rx="1.414" ry="1.412" transform="rotate(54 86.73 55.25)"/>
            <ellipse cx="76.154" cy="55.25" rx="1.412" ry="1.414" transform="rotate(36 76.154 55.25)"/>
            <ellipse cx="65.577" cy="55.25" rx="1.411" ry="1.416" transform="rotate(18 65.577 55.25)"/>
            <ellipse cx="107.885" cy="44.625" rx="1.416" ry="1.411" transform="rotate(-108 107.885 44.625)"/>
            <ellipse cx="97.308" cy="44.625" rx="1.414" ry="1.412" transform="rotate(-126 97.308 44.625)"/>
            <ellipse cx="86.731" cy="44.625" rx="1.412" ry="1.414" transform="rotate(-144 86.73 44.625)"/>
            <ellipse cx="76.154" cy="44.625" rx="1.411" ry="1.416" transform="rotate(-162 76.154 44.625)"/>
            <ellipse cx="65.577" cy="44.625" rx="1.41" ry="1.417" transform="rotate(180 65.577 44.625)"/>
            <ellipse cx="107.885" cy="34" rx="1.414" ry="1.412" transform="rotate(54 107.885 34)"/>
            <ellipse cx="97.308" cy="34" rx="1.412" ry="1.414" transform="rotate(36 97.308 34)"/>
            <ellipse cx="86.731" cy="34" rx="1.411" ry="1.416" transform="rotate(18 86.73 34)"/>
            <ellipse cx="76.154" cy="34" rx="1.41" ry="1.417"/>
            <ellipse cx="65.577" cy="34" rx="1.411" ry="1.416" transform="rotate(-18 65.577 34)"/>
            <ellipse cx="107.885" cy="23.375" rx="1.412" ry="1.414" transform="rotate(-144 107.885 23.375)"/>
            <ellipse cx="97.308" cy="23.375" rx="1.411" ry="1.416" transform="rotate(-162 97.308 23.375)"/>
            <ellipse cx="86.731" cy="23.375" rx="1.41" ry="1.417" transform="rotate(180 86.73 23.375)"/>
            <ellipse cx="76.154" cy="23.375" rx="1.411" ry="1.416" transform="rotate(162 76.154 23.375)"/>
            <ellipse cx="65.577" cy="23.375" rx="1.412" ry="1.414" transform="rotate(144 65.577 23.375)"/>
            <ellipse cx="107.885" cy="12.75" rx="1.411" ry="1.416" transform="rotate(18 107.885 12.75)"/>
            <ellipse cx="97.308" cy="12.75" rx="1.41" ry="1.417"/>
            <ellipse cx="86.731" cy="12.75" rx="1.411" ry="1.416" transform="rotate(-18 86.73 12.75)"/>
            <ellipse cx="76.154" cy="12.75" rx="1.412" ry="1.414" transform="rotate(-36 76.154 12.75)"/>
            <ellipse cx="65.577" cy="12.75" rx="1.414" ry="1.412" transform="rotate(-54 65.577 12.75)"/>
            <ellipse cx="107.885" cy="2.125" rx="1.41" ry="1.417" transform="rotate(180 107.885 2.125)"/>
            <ellipse cx="97.308" cy="2.125" rx="1.411" ry="1.416" transform="rotate(162 97.308 2.125)"/>
            <ellipse cx="86.731" cy="2.125" rx="1.412" ry="1.414" transform="rotate(144 86.73 2.125)"/>
            <ellipse cx="76.154" cy="2.125" rx="1.414" ry="1.412" transform="rotate(126 76.154 2.125)"/>
            <ellipse cx="65.577" cy="2.125" rx="1.416" ry="1.411" transform="rotate(108 65.577 2.125)"/>
        </g>
        <g opacity=".6" transform="matrix(-1 0 0 1 110 106)">
            <ellipse cx="107.885" cy="150.875" rx="1.416" ry="1.411" transform="rotate(72 107.885 150.875)"/>
            <ellipse cx="97.308" cy="150.875" rx="1.414" ry="1.412" transform="rotate(54 97.308 150.875)"/>
            <ellipse cx="86.731" cy="150.875" rx="1.412" ry="1.414" transform="rotate(36 86.73 150.875)"/>
            <ellipse cx="76.154" cy="150.875" rx="1.411" ry="1.416" transform="rotate(18 76.154 150.875)"/>
            <ellipse cx="65.577" cy="150.875" rx="1.41" ry="1.417"/>
            <ellipse cx="55" cy="150.875" rx="1.411" ry="1.416" transform="rotate(-18 55 150.875)"/>
            <ellipse cx="44.423" cy="150.875" rx="1.412" ry="1.414" transform="rotate(-36 44.423 150.875)"/>
            <ellipse cx="33.846" cy="150.875" rx="1.414" ry="1.412" transform="rotate(-54 33.846 150.875)"/>
            <ellipse cx="23.269" cy="150.875" rx="1.416" ry="1.411" transform="rotate(-72 23.27 150.875)"/>
            <ellipse cx="12.692" cy="150.875" rx="1.417" ry="1.41" transform="rotate(-90 12.692 150.875)"/>
            <ellipse cx="2.115" cy="150.875" rx="1.416" ry="1.411" transform="rotate(-108 2.115 150.875)"/>
            <ellipse cx="107.885" cy="140.25" rx="1.414" ry="1.412" transform="rotate(-126 107.885 140.25)"/>
            <ellipse cx="97.308" cy="140.25" rx="1.412" ry="1.414" transform="rotate(-144 97.308 140.25)"/>
            <ellipse cx="86.731" cy="140.25" rx="1.411" ry="1.416" transform="rotate(-162 86.73 140.25)"/>
            <ellipse cx="76.154" cy="140.25" rx="1.41" ry="1.417" transform="rotate(-180 76.154 140.25)"/>
            <ellipse cx="65.577" cy="140.25" rx="1.411" ry="1.416" transform="rotate(162 65.577 140.25)"/>
            <ellipse cx="55" cy="140.25" rx="1.412" ry="1.414" transform="rotate(144 55 140.25)"/>
            <ellipse cx="44.423" cy="140.25" rx="1.414" ry="1.412" transform="rotate(126 44.423 140.25)"/>
            <ellipse cx="33.846" cy="140.25" rx="1.416" ry="1.411" transform="rotate(108 33.846 140.25)"/>
            <ellipse cx="23.269" cy="140.25" rx="1.417" ry="1.41" transform="rotate(90 23.27 140.25)"/>
            <ellipse cx="12.692" cy="140.25" rx="1.416" ry="1.411" transform="rotate(72 12.692 140.25)"/>
            <ellipse cx="2.115" cy="140.25" rx="1.414" ry="1.412" transform="rotate(54 2.115 140.25)"/>
            <ellipse cx="107.885" cy="129.625" rx="1.412" ry="1.414" transform="rotate(36 107.885 129.625)"/>
            <ellipse cx="97.308" cy="129.625" rx="1.411" ry="1.416" transform="rotate(18 97.308 129.625)"/>
            <ellipse cx="86.731" cy="129.625" rx="1.41" ry="1.417"/>
            <ellipse cx="76.154" cy="129.625" rx="1.411" ry="1.416" transform="rotate(-18 76.154 129.625)"/>
            <ellipse cx="65.577" cy="129.625" rx="1.412" ry="1.414" transform="rotate(-36 65.577 129.625)"/>
            <ellipse cx="55" cy="129.625" rx="1.414" ry="1.412" transform="rotate(-54 55 129.625)"/>
            <ellipse cx="44.423" cy="129.625" rx="1.416" ry="1.411" transform="rotate(-72 44.423 129.625)"/>
            <ellipse cx="33.846" cy="129.625" rx="1.417" ry="1.41" transform="rotate(-90 33.846 129.625)"/>
            <ellipse cx="23.269" cy="129.625" rx="1.416" ry="1.411" transform="rotate(-108 23.27 129.625)"/>
            <ellipse cx="12.692" cy="129.625" rx="1.414" ry="1.412" transform="rotate(-126 12.692 129.625)"/>
            <ellipse cx="2.115" cy="129.625" rx="1.412" ry="1.414" transform="rotate(-144 2.115 129.625)"/>
            <ellipse cx="107.885" cy="119" rx="1.411" ry="1.416" transform="rotate(-162 107.885 119)"/>
            <ellipse cx="97.308" cy="119" rx="1.41" ry="1.417" transform="rotate(-180 97.308 119)"/>
            <ellipse cx="86.731" cy="119" rx="1.411" ry="1.416" transform="rotate(162 86.73 119)"/>
            <ellipse cx="76.154" cy="119" rx="1.412" ry="1.414" transform="rotate(144 76.154 119)"/>
            <ellipse cx="65.577" cy="119" rx="1.414" ry="1.412" transform="rotate(126 65.577 119)"/>
            <ellipse cx="55" cy="119" rx="1.416" ry="1.411" transform="rotate(108 55 119)"/>
            <ellipse cx="44.423" cy="119" rx="1.417" ry="1.41" transform="rotate(90 44.423 119)"/>
            <ellipse cx="33.846" cy="119" rx="1.416" ry="1.411" transform="rotate(72 33.846 119)"/>
            <ellipse cx="23.269" cy="119" rx="1.414" ry="1.412" transform="rotate(54 23.27 119)"/>
            <ellipse cx="12.692" cy="119" rx="1.412" ry="1.414" transform="rotate(36 12.692 119)"/>
            <ellipse cx="2.115" cy="119" rx="1.411" ry="1.416" transform="rotate(18 2.115 119)"/>
            <ellipse cx="107.885" cy="108.375" rx="1.41" ry="1.417"/>
            <ellipse cx="97.308" cy="108.375" rx="1.411" ry="1.416" transform="rotate(-18 97.308 108.375)"/>
            <ellipse cx="86.731" cy="108.375" rx="1.412" ry="1.414" transform="rotate(-36 86.73 108.375)"/>
            <ellipse cx="76.154" cy="108.375" rx="1.414" ry="1.412" transform="rotate(-54 76.154 108.375)"/>
            <ellipse cx="65.577" cy="108.375" rx="1.416" ry="1.411" transform="rotate(-72 65.577 108.375)"/>
            <ellipse cx="55" cy="108.375" rx="1.417" ry="1.41" transform="rotate(-90 55 108.375)"/>
            <ellipse cx="44.423" cy="108.375" rx="1.416" ry="1.411" transform="rotate(-108 44.423 108.375)"/>
            <ellipse cx="33.846" cy="108.375" rx="1.414" ry="1.412" transform="rotate(-126 33.846 108.375)"/>
            <ellipse cx="23.269" cy="108.375" rx="1.412" ry="1.414" transform="rotate(-144 23.27 108.375)"/>
            <ellipse cx="12.692" cy="108.375" rx="1.411" ry="1.416" transform="rotate(-162 12.692 108.375)"/>
            <ellipse cx="2.115" cy="108.375" rx="1.41" ry="1.417" transform="rotate(-180 2.115 108.375)"/>
            <ellipse cx="107.885" cy="97.75" rx="1.411" ry="1.416" transform="rotate(162 107.885 97.75)"/>
            <ellipse cx="97.308" cy="97.75" rx="1.412" ry="1.414" transform="rotate(144 97.308 97.75)"/>
            <ellipse cx="86.731" cy="97.75" rx="1.414" ry="1.412" transform="rotate(126 86.73 97.75)"/>
            <ellipse cx="76.154" cy="97.75" rx="1.416" ry="1.411" transform="rotate(108 76.154 97.75)"/>
            <ellipse cx="65.577" cy="97.75" rx="1.417" ry="1.41" transform="rotate(90 65.577 97.75)"/>
            <ellipse cx="55" cy="97.75" rx="1.416" ry="1.411" transform="rotate(72 55 97.75)"/>
            <ellipse cx="44.423" cy="97.75" rx="1.414" ry="1.412" transform="rotate(54 44.423 97.75)"/>
            <ellipse cx="33.846" cy="97.75" rx="1.412" ry="1.414" transform="rotate(36 33.846 97.75)"/>
            <ellipse cx="23.269" cy="97.75" rx="1.411" ry="1.416" transform="rotate(18 23.27 97.75)"/>
            <ellipse cx="12.692" cy="97.75" rx="1.41" ry="1.417"/>
            <ellipse cx="2.115" cy="97.75" rx="1.411" ry="1.416" transform="rotate(-18 2.115 97.75)"/>
            <ellipse cx="107.885" cy="87.125" rx="1.412" ry="1.414" transform="rotate(-36 107.885 87.125)"/>
            <ellipse cx="97.308" cy="87.125" rx="1.414" ry="1.412" transform="rotate(-54 97.308 87.125)"/>
            <ellipse cx="86.731" cy="87.125" rx="1.416" ry="1.411" transform="rotate(-72 86.73 87.125)"/>
            <ellipse cx="76.154" cy="87.125" rx="1.417" ry="1.41" transform="rotate(-90 76.154 87.125)"/>
            <ellipse cx="65.577" cy="87.125" rx="1.416" ry="1.411" transform="rotate(-108 65.577 87.125)"/>
            <ellipse cx="55" cy="87.125" rx="1.414" ry="1.412" transform="rotate(-126 55 87.125)"/>
            <ellipse cx="44.423" cy="87.125" rx="1.412" ry="1.414" transform="rotate(-144 44.423 87.125)"/>
            <ellipse cx="33.846" cy="87.125" rx="1.411" ry="1.416" transform="rotate(-162 33.846 87.125)"/>
            <ellipse cx="23.269" cy="87.125" rx="1.41" ry="1.417" transform="rotate(180 23.27 87.125)"/>
            <ellipse cx="12.692" cy="87.125" rx="1.411" ry="1.416" transform="rotate(162 12.692 87.125)"/>
            <ellipse cx="2.115" cy="87.125" rx="1.412" ry="1.414" transform="rotate(144 2.115 87.125)"/>
            <ellipse cx="107.885" cy="76.5" rx="1.414" ry="1.412" transform="rotate(126 107.885 76.5)"/>
            <ellipse cx="97.308" cy="76.5" rx="1.416" ry="1.411" transform="rotate(108 97.308 76.5)"/>
            <ellipse cx="86.731" cy="76.5" rx="1.417" ry="1.41" transform="rotate(90 86.73 76.5)"/>
            <ellipse cx="76.154" cy="76.5" rx="1.416" ry="1.411" transform="rotate(72 76.154 76.5)"/>
            <ellipse cx="65.577" cy="76.5" rx="1.414" ry="1.412" transform="rotate(54 65.577 76.5)"/>
            <ellipse cx="55" cy="76.5" rx="1.412" ry="1.414" transform="rotate(36 55 76.5)"/>
            <ellipse cx="44.423" cy="76.5" rx="1.411" ry="1.416" transform="rotate(18 44.423 76.5)"/>
            <ellipse cx="33.846" cy="76.5" rx="1.41" ry="1.417"/>
            <ellipse cx="23.269" cy="76.5" rx="1.411" ry="1.416" transform="rotate(-18 23.27 76.5)"/>
            <ellipse cx="12.692" cy="76.5" rx="1.412" ry="1.414" transform="rotate(-36 12.692 76.5)"/>
            <ellipse cx="2.115" cy="76.5" rx="1.414" ry="1.412" transform="rotate(-54 2.115 76.5)"/>
            <ellipse cx="107.885" cy="65.875" rx="1.416" ry="1.411" transform="rotate(-72 107.885 65.875)"/>
            <ellipse cx="97.308" cy="65.875" rx="1.417" ry="1.41" transform="rotate(-90 97.308 65.875)"/>
            <ellipse cx="86.731" cy="65.875" rx="1.416" ry="1.411" transform="rotate(-108 86.73 65.875)"/>
            <ellipse cx="76.154" cy="65.875" rx="1.414" ry="1.412" transform="rotate(-126 76.154 65.875)"/>
            <ellipse cx="65.577" cy="65.875" rx="1.412" ry="1.414" transform="rotate(-144 65.577 65.875)"/>
            <ellipse cx="55" cy="65.875" rx="1.411" ry="1.416" transform="rotate(-162 55 65.875)"/>
            <ellipse cx="44.423" cy="65.875" rx="1.41" ry="1.417" transform="rotate(180 44.423 65.875)"/>
            <ellipse cx="33.846" cy="65.875" rx="1.411" ry="1.416" transform="rotate(162 33.846 65.875)"/>
            <ellipse cx="23.269" cy="65.875" rx="1.412" ry="1.414" transform="rotate(144 23.27 65.875)"/>
            <ellipse cx="12.692" cy="65.875" rx="1.414" ry="1.412" transform="rotate(126 12.692 65.875)"/>
            <ellipse cx="2.115" cy="65.875" rx="1.416" ry="1.411" transform="rotate(108 2.115 65.875)"/>
            <ellipse cx="107.885" cy="55.25" rx="1.417" ry="1.41" transform="rotate(90 107.885 55.25)"/>
            <ellipse cx="97.308" cy="55.25" rx="1.416" ry="1.411" transform="rotate(72 97.308 55.25)"/>
            <ellipse cx="86.731" cy="55.25" rx="1.414" ry="1.412" transform="rotate(54 86.73 55.25)"/>
            <ellipse cx="76.154" cy="55.25" rx="1.412" ry="1.414" transform="rotate(36 76.154 55.25)"/>
            <ellipse cx="65.577" cy="55.25" rx="1.411" ry="1.416" transform="rotate(18 65.577 55.25)"/>
            <ellipse cx="55" cy="55.25" rx="1.41" ry="1.417"/>
            <ellipse cx="44.423" cy="55.25" rx="1.411" ry="1.416" transform="rotate(-18 44.423 55.25)"/>
            <ellipse cx="33.846" cy="55.25" rx="1.412" ry="1.414" transform="rotate(-36 33.846 55.25)"/>
            <ellipse cx="23.269" cy="55.25" rx="1.414" ry="1.412" transform="rotate(-54 23.27 55.25)"/>
            <ellipse cx="12.692" cy="55.25" rx="1.416" ry="1.411" transform="rotate(-72 12.692 55.25)"/>
            <ellipse cx="2.115" cy="55.25" rx="1.417" ry="1.41" transform="rotate(-90 2.115 55.25)"/>
            <ellipse cx="107.885" cy="44.625" rx="1.416" ry="1.411" transform="rotate(-108 107.885 44.625)"/>
            <ellipse cx="97.308" cy="44.625" rx="1.414" ry="1.412" transform="rotate(-126 97.308 44.625)"/>
            <ellipse cx="86.731" cy="44.625" rx="1.412" ry="1.414" transform="rotate(-144 86.73 44.625)"/>
            <ellipse cx="76.154" cy="44.625" rx="1.411" ry="1.416" transform="rotate(-162 76.154 44.625)"/>
            <ellipse cx="65.577" cy="44.625" rx="1.41" ry="1.417" transform="rotate(180 65.577 44.625)"/>
            <ellipse cx="55" cy="44.625" rx="1.411" ry="1.416" transform="rotate(162 55 44.625)"/>
            <ellipse cx="44.423" cy="44.625" rx="1.412" ry="1.414" transform="rotate(144 44.423 44.625)"/>
            <ellipse cx="33.846" cy="44.625" rx="1.414" ry="1.412" transform="rotate(126 33.846 44.625)"/>
            <ellipse cx="23.269" cy="44.625" rx="1.416" ry="1.411" transform="rotate(108 23.27 44.625)"/>
            <ellipse cx="12.692" cy="44.625" rx="1.417" ry="1.41" transform="rotate(90 12.692 44.625)"/>
            <ellipse cx="2.115" cy="44.625" rx="1.416" ry="1.411" transform="rotate(72 2.115 44.625)"/>
            <ellipse cx="107.885" cy="34" rx="1.414" ry="1.412" transform="rotate(54 107.885 34)"/>
            <ellipse cx="97.308" cy="34" rx="1.412" ry="1.414" transform="rotate(36 97.308 34)"/>
            <ellipse cx="86.731" cy="34" rx="1.411" ry="1.416" transform="rotate(18 86.73 34)"/>
            <ellipse cx="76.154" cy="34" rx="1.41" ry="1.417"/>
            <ellipse cx="65.577" cy="34" rx="1.411" ry="1.416" transform="rotate(-18 65.577 34)"/>
            <ellipse cx="55" cy="34" rx="1.412" ry="1.414" transform="rotate(-36 55 34)"/>
            <ellipse cx="44.423" cy="34" rx="1.414" ry="1.412" transform="rotate(-54 44.423 34)"/>
            <ellipse cx="33.846" cy="34" rx="1.416" ry="1.411" transform="rotate(-72 33.846 34)"/>
            <ellipse cx="23.269" cy="34" rx="1.417" ry="1.41" transform="rotate(-90 23.27 34)"/>
            <ellipse cx="12.692" cy="34" rx="1.416" ry="1.411" transform="rotate(-108 12.692 34)"/>
            <ellipse cx="2.115" cy="34" rx="1.414" ry="1.412" transform="rotate(-126 2.115 34)"/>
            <ellipse cx="107.885" cy="23.375" rx="1.412" ry="1.414" transform="rotate(-144 107.885 23.375)"/>
            <ellipse cx="97.308" cy="23.375" rx="1.411" ry="1.416" transform="rotate(-162 97.308 23.375)"/>
            <ellipse cx="86.731" cy="23.375" rx="1.41" ry="1.417" transform="rotate(180 86.73 23.375)"/>
            <ellipse cx="76.154" cy="23.375" rx="1.411" ry="1.416" transform="rotate(162 76.154 23.375)"/>
            <ellipse cx="65.577" cy="23.375" rx="1.412" ry="1.414" transform="rotate(144 65.577 23.375)"/>
            <ellipse cx="55" cy="23.375" rx="1.414" ry="1.412" transform="rotate(126 55 23.375)"/>
            <ellipse cx="44.423" cy="23.375" rx="1.416" ry="1.411" transform="rotate(108 44.423 23.375)"/>
            <ellipse cx="33.846" cy="23.375" rx="1.417" ry="1.41" transform="rotate(90 33.846 23.375)"/>
            <ellipse cx="23.269" cy="23.375" rx="1.416" ry="1.411" transform="rotate(72 23.27 23.375)"/>
            <ellipse cx="12.692" cy="23.375" rx="1.414" ry="1.412" transform="rotate(54 12.692 23.375)"/>
            <ellipse cx="2.115" cy="23.375" rx="1.412" ry="1.414" transform="rotate(36 2.115 23.375)"/>
            <ellipse cx="107.885" cy="12.75" rx="1.411" ry="1.416" transform="rotate(18 107.885 12.75)"/>
            <ellipse cx="97.308" cy="12.75" rx="1.41" ry="1.417"/>
            <ellipse cx="86.731" cy="12.75" rx="1.411" ry="1.416" transform="rotate(-18 86.73 12.75)"/>
            <ellipse cx="76.154" cy="12.75" rx="1.412" ry="1.414" transform="rotate(-36 76.154 12.75)"/>
            <ellipse cx="65.577" cy="12.75" rx="1.414" ry="1.412" transform="rotate(-54 65.577 12.75)"/>
            <ellipse cx="55" cy="12.75" rx="1.416" ry="1.411" transform="rotate(-72 55 12.75)"/>
            <ellipse cx="44.423" cy="12.75" rx="1.417" ry="1.41" transform="rotate(-90 44.423 12.75)"/>
            <ellipse cx="33.846" cy="12.75" rx="1.416" ry="1.411" transform="rotate(-108 33.846 12.75)"/>
            <ellipse cx="23.269" cy="12.75" rx="1.414" ry="1.412" transform="rotate(-126 23.27 12.75)"/>
            <ellipse cx="12.692" cy="12.75" rx="1.412" ry="1.414" transform="rotate(-144 12.692 12.75)"/>
            <ellipse cx="2.115" cy="12.75" rx="1.411" ry="1.416" transform="rotate(-162 2.115 12.75)"/>
            <ellipse cx="107.885" cy="2.125" rx="1.41" ry="1.417" transform="rotate(180 107.885 2.125)"/>
            <ellipse cx="97.308" cy="2.125" rx="1.411" ry="1.416" transform="rotate(162 97.308 2.125)"/>
            <ellipse cx="86.731" cy="2.125" rx="1.412" ry="1.414" transform="rotate(144 86.73 2.125)"/>
            <ellipse cx="76.154" cy="2.125" rx="1.414" ry="1.412" transform="rotate(126 76.154 2.125)"/>
            <ellipse cx="65.577" cy="2.125" rx="1.416" ry="1.411" transform="rotate(108 65.577 2.125)"/>
            <ellipse cx="55" cy="2.125" rx="1.417" ry="1.41" transform="rotate(90 55 2.125)"/>
            <ellipse cx="44.423" cy="2.125" rx="1.416" ry="1.411" transform="rotate(72 44.423 2.125)"/>
            <ellipse cx="33.846" cy="2.125" rx="1.414" ry="1.412" transform="rotate(54 33.846 2.125)"/>
            <ellipse cx="23.269" cy="2.125" rx="1.412" ry="1.414" transform="rotate(36 23.27 2.125)"/>
            <ellipse cx="12.692" cy="2.125" rx="1.411" ry="1.416" transform="rotate(18 12.692 2.125)"/>
            <ellipse cx="2.115" cy="2.125" rx="1.41" ry="1.417"/>
        </g>
    </g>
</svg>
