<svg xmlns="http://www.w3.org/2000/svg" xmlns:xlink="http://www.w3.org/1999/xlink" width="48" height="48" viewBox="0 0 48 48">
    <defs>
        <path id="a" d="M.005.005h36.96V36.94H.004z"/>
    </defs>
    <g fill="none" fill-rule="evenodd">
        <path fill="#FFF" fill-opacity=".004" d="M0 0h48v48H0z"/>
        <g transform="translate(6 6)">
            <mask id="b" fill="#fff">
                <use xlink:href="#a"/>
            </mask>
            <path fill="#703DB2" d="M32.707 26.095a.541.541 0 0 0-.591.118l-5.93 5.944a.545.545 0 0 0 .384.928h5.93c.3 0 .542-.243.542-.544v-5.944a.545.545 0 0 0-.335-.502zm-4.827 5.902l4.077-4.086v4.086H27.88z" mask="url(#b)"/>
            <path fill="#703DB2" d="M36.63 17.378a.542.542 0 0 0-.592.118l-1.625 1.628V8.05c0-.3-.243-.543-.543-.543h-4.168l1.513-1.517v-.001l1.459-1.462a1.65 1.65 0 0 0 .484-1.173c0-.442-.172-.859-.484-1.172L30.988.49a1.642 1.642 0 0 0-1.17-.486c-.442 0-.857.173-1.17.486L21.65 7.505H4.81v-5.38c0-.3-.243-.544-.543-.544A4.278 4.278 0 0 0 0 5.859v23.1c0 .04.005.079.013.117.075 1 .507 1.93 1.229 2.636a4.08 4.08 0 0 0 2.868 1.17h16.579l-3.123 3.13a.545.545 0 0 0 .384.928h18.472c.299 0 .542-.243.542-.543V17.88a.544.544 0 0 0-.335-.502zM29.414 1.26a.569.569 0 0 1 .805 0l1.687 1.69a.573.573 0 0 1 0 .807L30.83 4.835l-2.49-2.497 1.074-1.078zm-1.842 1.847l2.49 2.497-.995.998-2.49-2.497.995-.998zm8.306 20.884h-1.001a.543.543 0 0 0 0 1.088h1.001v1.639h-1.001a.543.543 0 0 0 0 1.088h1.001v1.639h-1.001a.543.543 0 0 0 0 1.087h1.001v1.64h-1.001a.543.543 0 0 0 0 1.087h1.001v2.594h-16.62l5.48-5.493a.545.545 0 0 0-.077-.834.542.542 0 0 0-.69.064l-2.198 2.205H4.11a3.01 3.01 0 0 1-3.022-2.935 3.07 3.07 0 0 1 .024-.307v-.002c.006-.048.013-.096.022-.143a2.764 2.764 0 0 1 .028-.143l.008-.036a2.731 2.731 0 0 1 .095-.326l.02-.057c.014-.036.027-.071.042-.106l.012-.03c.019-.043.038-.087.059-.13l.002-.004a3.195 3.195 0 0 1 2.22-1.74l.008-.002a2.8 2.8 0 0 1 .136-.025l.023-.004a2.85 2.85 0 0 1 .125-.016l.035-.004.121-.01.038-.002c.054-.003.107-.004.161-.004.3 0 .543-.244.543-.544v-3.944a.543.543 0 1 0-1.085 0v3.434a4.231 4.231 0 0 0-2.64 1.396V5.86a3.193 3.193 0 0 1 2.64-3.144v16.391a.543.543 0 1 0 1.085 0V8.593h15.755L17.566 11.6a.542.542 0 1 0 .767.77l3.926-3.936 3.551-3.56 2.49 2.497-.291.293h-.001l-10.94 10.967-2.49-2.497 2.156-2.162a.545.545 0 0 0 0-.769.542.542 0 0 0-.768 0l-2.54 2.547a.446.446 0 0 0-.038.042l-.01.016a.49.49 0 0 0-.052.08l-.01.022a.7.7 0 0 0-.013.032l-.004.011-1.778 5.048a.568.568 0 0 0-.022.083H9.695a.543.543 0 0 0 0 1.088H24.72a.543.543 0 0 0 0-1.088H13.94l3.309-1.17.008-.004a.441.441 0 0 0 .038-.016l.015-.007a.554.554 0 0 0 .038-.021l.012-.007a.49.49 0 0 0 .039-.028l.01-.007a.566.566 0 0 0 .043-.039L28.617 8.593h4.71v11.62l-7.76 7.779a.545.545 0 0 0 .384.929.54.54 0 0 0 .383-.16l9.545-9.568v4.798zm-19.803-4.816l-1.554.55-1.036-1.038.55-1.558 2.04 2.046z" mask="url(#b)"/>
        </g>
    </g>
</svg>
