<svg xmlns="http://www.w3.org/2000/svg" width="31" height="43" viewBox="0 0 31 43">
    <g fill="none" fill-rule="evenodd">
        <path d="M3.444 37.035H9.35V43H3.444z"/>
        <path fill="#703DB2" stroke="#DFCBFA" stroke-width="3" d="M16.382-1.213C19.185.826 21.43 2.223 23.09 2.973c1.669.754 4.437 1.62 8.274 2.576l1.137.284v11.679c0 10.433-7.103 20.102-16.639 22.47l-.361.09-.361-.09C5.603 37.614-1.5 27.945-1.5 17.512V6.037l17.177-7.763.705.513z"/>
        <g stroke="#FFF" stroke-linecap="round" stroke-linejoin="round" stroke-width=".984">
            <path d="M19.929 18.204v.414c-.002 1.992-1.293 3.746-3.173 4.31a4.396 4.396 0 0 1-4.971-1.865 4.553 4.553 0 0 1 .349-5.37 4.383 4.383 0 0 1 5.168-1.186"/>
            <path d="M19.929 15.02L15.5 19.522l-1.329-1.35"/>
        </g>
    </g>
</svg>
