<svg xmlns="http://www.w3.org/2000/svg" width="141" height="115" viewBox="0 0 141 115">
    <g fill="#FFF" fill-rule="evenodd" stroke="#292929" stroke-linecap="round" stroke-linejoin="round" stroke-width="2">
        <path d="M18.19 1h72.62C100.304 1 108 8.696 108 18.19v78.62c0 9.494-7.696 17.19-17.19 17.19H18.19C8.696 114 1 106.304 1 96.81V18.19C1 8.696 8.696 1 18.19 1z"/>
        <path d="M15.719 18h78.409c.95 0 1.719.77 1.719 1.719v10.237c0 .95-.77 1.719-1.719 1.719H15.719c-.95 0-1.719-.77-1.719-1.72V19.72c0-.95.77-1.719 1.719-1.719z"/>
        <path d="M26.292 23.698c-9.45 7.807-11.813 18.48-7.087 32.016 7.087 20.305 8.94 27.712 0 33.51h64.878c5.338-3.602 6.673-10.088 4.004-19.457-4.004-14.053-15.495-29.593 2.076-46.07h-63.87zM32.188 59.025h3.14m4.754 0h33.03M29.346 49.338h3.14m4.754 0h33.03M30.483 37.943h3.14m4.754 0h33.03"/>
        <path d="M18.267 90.363c-1.296-.093-2.46-1.204-3.493-3.33-1.032-2.128-1.032-4.056 0-5.786h63.273c-.28 3.877 1.675 6.515 5.864 7.914l-65.644 1.202z"/>
        <g>
            <path d="M109.152 27.137h6.27v10.088h9.052"/>
            <path d="M121.743 32.724h17.956v9.731h-17.956z"/>
        </g>
    </g>
</svg>
