<svg xmlns="http://www.w3.org/2000/svg" width="48" height="48" viewBox="0 0 48 48">
    <g fill="none" fill-rule="evenodd">
        <path fill="#FFF" fill-opacity=".004" d="M0 0h48v48H0z"/>
        <g fill="#8D959D">
            <path d="M33.745 32.301a.603.603 0 0 0-1.205-.06c-.063 1.253-.746 2.477-1.794 3.28-.647-1.365-2.001-1.99-3.112-1.727-.883.208-1.575 1.065-1.575 1.951 0 1.338 1.56 2.382 3.84 1.59a3.176 3.176 0 0 1-.48 1.53c-.61.963-2.033 1.74-3.202 2.059-.025-1.512-.789-2.216-1.826-4.31a3.057 3.057 0 0 0-4.137-1.23l-.588.317a3.356 3.356 0 0 1-4.544-1.35l-3.943-7.274a3.34 3.34 0 0 1 1.354-4.532l.588-.318a3.042 3.042 0 0 0 1.233-4.127l-1.34-2.47c-1.41-2.602-5.1-2.847-6.83-.38a11.608 11.608 0 0 0-.703 12.215l3.662 6.755a.604.604 0 0 0 1.061-.573l-3.662-6.755a10.406 10.406 0 0 1 .631-10.952c1.199-1.709 3.779-1.583 4.78.263 1.201 2.34 1.562 2.578 1.562 3.344 0 1.408-1.365 1.784-1.557 1.94a4.542 4.542 0 0 0-1.841 6.163l3.943 7.274a4.56 4.56 0 0 0 4.014 2.385c1.496 0 2.392-.71 2.754-.866a1.847 1.847 0 0 1 2.501.744l1.34 2.471c.973 1.796-.24 4.053-2.332 4.13-3.805.142-7.612-1.803-9.598-5.465l-1.386-2.558a.604.604 0 0 0-1.062.573l1.387 2.558c2.168 3.999 6.36 6.256 10.703 6.096a3.973 3.973 0 0 0 3.654-2.792c1.572-.3 3.55-1.342 4.404-2.693.497-.784.75-1.78.647-2.755 1.542-.993 2.572-2.697 2.66-4.45zm-6.48 3.444c0-.357.348-.806.885-.806.538 0 1.212.402 1.545 1.185-1.25.506-2.43.27-2.43-.379z"/>
            <path d="M31.618 6.04a.605.605 0 0 0-.853-.04.601.601 0 0 0-.04.85c2.838 3.115.634 8.16-3.62 8.16h-6.827a.604.604 0 0 0-.552.358l-1.733 3.899c-.191.429-.828.291-.828-.175v-4.136a.602.602 0 0 0-.316-.53 4.888 4.888 0 0 1-2.582-4.299c0-2.693 2.196-4.883 4.895-4.883 7.565.104 8.295-.263 9.822.377a.602.602 0 1 0 .467-1.11 6.05 6.05 0 0 0-2.346-.471h-7.943c-3.365 0-6.102 2.73-6.102 6.087a6.085 6.085 0 0 0 2.898 5.175v3.79c0 1.753 2.418 2.282 3.138.663l1.574-3.54h6.434c5.302 0 8.052-6.291 4.514-10.175z"/>
            <path d="M40.734 28.6a.602.602 0 0 0-.316.53v.887a.603.603 0 0 0 1.207 0v-.538a6.963 6.963 0 0 0 3.362-5.95c0-3.839-3.132-6.963-6.981-6.963h-9.213c-3.85 0-6.98 3.124-6.98 6.964 0 3.84 3.13 6.964 6.98 6.964h7.525l1.852 4.164c.795 1.786 3.455 1.197 3.455-.73v-1.503a.603.603 0 0 0-1.207 0v1.503c0 .64-.88.835-1.144.241l-2.011-4.522a.603.603 0 0 0-.552-.357h-7.918c-3.184 0-5.774-2.584-5.774-5.76 0-3.176 2.59-5.76 5.774-5.76h9.213c3.184 0 5.774 2.584 5.774 5.76a5.765 5.765 0 0 1-3.046 5.07zM18.401 9.746a.963.963 0 0 1-.964.962.964.964 0 0 1-.965-.962.964.964 0 0 1 1.93 0zM22.2 9.746a.964.964 0 0 1-.965.962.963.963 0 1 1 0-1.925c.533 0 .964.431.964.963zM25.997 9.746a.964.964 0 0 1-.965.962.964.964 0 0 1-.965-.962.964.964 0 0 1 1.93 0zM29.794 9.746a.963.963 0 0 1-.965.962.964.964 0 0 1-.965-.962.964.964 0 0 1 1.93 0z"/>
            <path d="M33.136 26.503a.81.81 0 0 0-.8.81c0 .43.346.812.8.812a.82.82 0 0 0 .814-.811.821.821 0 0 0-.814-.811zM33.268 19.285c-1.447 0-2.2.835-2.2 1.408 0 .393.322.572.597.572.55 0 .395-.823 1.567-.823.73 0 1.232.358 1.232 1.026 0 .811-.754 1.229-1.172 1.622-.335.299-.718.776-.718 1.886 0 .512.156.668.55.668 1.207 0 0-1.03 1.196-2.005.36-.334 1.412-1.11 1.412-2.338 0-1.145-.945-2.016-2.464-2.016z"/>
        </g>
    </g>
</svg>
