<svg xmlns="http://www.w3.org/2000/svg" width="90" height="150" viewBox="0 0 90 150">
    <g fill="none" fill-rule="evenodd" stroke="#292929" stroke-linecap="round" stroke-linejoin="round">
        <path fill="#FFF" stroke-width="2" d="M4.94 35.45l-.737-8.461 6.413-.564M34.318 38.91l6.413-.564-1.258-14.46-6.413.565"/>
        <path fill="#FFF" stroke-width="2" d="M31.242 3.565L8.798 5.54l3.076 35.345 22.444-1.974z"/>
        <path stroke-width="2.645" d="M15.77 11.401l1.603-.14M16.33 17.828l1.603-.141M24.345 17.123l1.603-.141M16.889 24.254l1.603-.14M24.905 23.55l1.603-.142M17.448 30.68l1.603-.14M25.464 29.976l1.603-.141M23.096 39.897l-.28-3.213"/>
        <path fill="#FFF" stroke-width="2" d="M43.891 9.612v27.436h17.732v-9.574h-6.049V23.33h-5.767v-8.456zM68.751 18.434L66.05 35.535l17.513 2.78 3.105-19.651-6.938 5.154-5.696-.904.561-3.552zM46.756 26.776h5.512M70.181 26.097l11.82 1.821"/>
        <path fill="#FFF" stroke-width="2" d="M38.487 97V67.78L3.227 38.113A9.061 9.061 0 0 1 0 31.181C0 30.529.53 30 1.184 30h87.632c.654 0 1.184.529 1.184 1.18a8.748 8.748 0 0 1-3.3 6.846L49.317 67.779v23.246"/>
        <path fill="#FFF" stroke-width="2" d="M49.118 90.85c-.843-1.403-11.836 4.844-10.523 6.348 1.313 1.504 10.639-3.241 10.523-6.349z"/>
        <g fill="#FFF" stroke-width="2">
            <path d="M37.735 147.539l-6.272 1.349-2.999-14.276 6.271-1.349M59.685 142.819l6.271-1.349-3-14.276-6.27 1.349M52.353 107.922l-21.95 4.72 7.332 34.897 21.95-4.72zM38.008 117.638l1.567-.337M39.34 123.983l1.568-.337M47.18 122.297l1.568-.337M45.847 115.953l1.568-.338M40.674 130.328l1.567-.337M48.513 128.642l1.568-.337M42.007 136.673l1.567-.337M49.846 134.987l1.568-.337M48.71 145.179l-.667-3.173M41.05 101.266v5.48M46.927 98.293v3.696"/>
        </g>
    </g>
</svg>
