<svg xmlns="http://www.w3.org/2000/svg" width="48" height="48" viewBox="0 0 48 48">
    <g fill="none" fill-rule="evenodd">
        <g fill="#8D959D">
            <path d="M27.01 41.014a.682.682 0 0 0-.965.963l2.731 2.724a.682.682 0 0 0 .965-.963l-2.73-2.724zM24.48 36.728a.682.682 0 0 0-.683.681v1.761l-4.578 4.568A.68.68 0 0 0 19.7 44.9c.175 0 .35-.067.483-.2l4.778-4.766c.128-.128.2-.301.2-.482V37.41a.682.682 0 0 0-.682-.68zM44.277 5.402H25.163V4.72a.682.682 0 0 0-1.366 0v.68H4.683A.682.682 0 0 0 4 6.084v2.724c0 .376.305.68.683.68H40.18a.682.682 0 1 0 0-1.361H5.365V6.764h38.23v1.362h-.683a.682.682 0 0 0-.683.68v23.155a2.048 2.048 0 0 1-2.048 2.043H8.78A2.048 2.048 0 0 1 6.73 31.96v-20.43a.682.682 0 0 0-1.366 0v20.43a3.413 3.413 0 0 0 3.414 3.405H40.18a3.413 3.413 0 0 0 3.413-3.405V9.488h.683a.682.682 0 0 0 .683-.681V6.083a.682.682 0 0 0-.683-.681z"/>
            <path d="M34.72 17.66c1.926 0 2.044 1.703 2.048 2.046a.682.682 0 0 0 1.365-.003c0-1.178-.713-3.405-3.413-3.405-2.7 0-3.413 2.227-3.413 3.405v2.724c0 1.178.713 3.405 3.413 3.405 2.7 0 3.413-2.227 3.413-3.405a.68.68 0 0 0-.678-.68h-.004a.684.684 0 0 0-.683.677c-.004.341-.12 2.046-2.048 2.046-1.927 0-2.044-1.705-2.048-2.043v-2.72c.004-.342.121-2.047 2.048-2.047zM17.706 24.051a.682.682 0 0 0 1.26-.524l-3.413-8.172a.683.683 0 0 0-1.26 0l-3.414 8.172a.682.682 0 1 0 1.26.525l.394-.944h1.707a.681.681 0 1 0 0-1.362h-1.138l1.82-4.358 2.784 6.663zM22.432 19.022a.682.682 0 0 0-.683.68v8.173c0 .376.305.68.683.68h2.73c1.181 0 3.414-.568 3.414-2.723 0-.864-.36-1.474-.866-1.893.574-.49.866-1.227.866-2.193 0-1.01-.319-1.77-.946-2.258-1.043-.813-2.473-.485-2.633-.446a.68.68 0 1 0 .33 1.321c.01-.002.94-.21 1.462.198.28.218.421.616.421 1.185 0 .567-.14.964-.417 1.182-.228.18-.545.243-.833.254a4.606 4.606 0 0 0-.797-.074.68.68 0 0 0-.166 1.342c.072.018.403.093.84.098.598.124 1.373.446 1.373 1.284 0 1.333-1.966 1.361-2.047 1.362h-2.049v-7.491a.682.682 0 0 0-.682-.68z"/>
        </g>
        <path fill="#FFF" fill-opacity=".004" d="M0 0h48v48H0z"/>
    </g>
</svg>
