<svg xmlns="http://www.w3.org/2000/svg" width="48" height="48" viewBox="0 0 48 48">
    <g fill="none" fill-rule="evenodd">
        <g fill="#8D959D">
            <path d="M37.061 5.167a.647.647 0 0 0-.294-.068H5.65a.648.648 0 0 0-.58.938l2.524 5.05v27.075c0 .358.29.649.649.649h12.966v-1.297H8.89V11.582h18.153v20.097h1.296V11.582h5.187v20.097h1.297V11.086l2.528-5.05c.16-.32.03-.71-.29-.869zM8.642 10.285l-1.944-3.89h18l1.944 3.89h-18zm25.132 0h-5.682l-1.945-3.89h9.571l-1.944 3.89z"/>
            <path d="M17.318 19.362h1.297v-1.297h-1.297zM17.318 21.955h1.297v-1.297h-1.297zM17.318 24.548h1.297v-1.297h-1.297z"/>
            <path d="M23.917 23.91a.621.621 0 0 0-.116-.01 7.693 7.693 0 0 0-1.296.122v-3.37a5.13 5.13 0 0 0-3.513-4.874 3.24 3.24 0 0 0-2.05 0 5.13 5.13 0 0 0-3.514 4.874v3.365a7.781 7.781 0 0 0-1.296-.117.648.648 0 0 0-.637.764l.713 3.942a4.53 4.53 0 0 0 4.462 3.722h2.593a4.53 4.53 0 0 0 4.46-3.722l.716-3.942a.648.648 0 0 0-.522-.754zm-7.247 7.121a3.234 3.234 0 0 1-3.184-2.658l-.568-3.13a6.495 6.495 0 0 1 5.664 5.788H16.67zm1.293-4.484a7.807 7.807 0 0 0-2.731-2h.79v-1.296h-1.297v-1.296h1.297v-1.297h-1.297v-.006c.002-.44.08-.877.23-1.29h1.067v-1.297h-.285c.44-.485.995-.849 1.615-1.057.399-.134.83-.134 1.23 0 .619.209 1.175.572 1.614 1.057h-.285v1.297h1.068c.15.413.227.85.23 1.29v.006H19.91v1.297h1.297v1.296h-1.297v1.297h.817a7.783 7.783 0 0 0-2.765 1.999zm4.483 1.826a3.232 3.232 0 0 1-2.57 2.593 7.717 7.717 0 0 0-1.12-3.349 6.493 6.493 0 0 1 4.26-2.377l-.57 3.133zM10.187 14.175h3.241v-1.297h-3.241zM10.187 16.768h3.241v-1.297h-3.241zM10.187 36.218h1.297V34.92h-1.297zM12.78 36.218h2.593V34.92H12.78zM43.345 32.982a.679.679 0 0 0-.094-.006H22.505a.649.649 0 0 0-.642.74l.355 2.519a10.956 10.956 0 0 0 2.517 5.576c.135.158.271.317.416.467.1.107.207.208.313.311.16.156.326.307.496.454.091.078.183.158.278.234.273.219.553.427.843.618a.651.651 0 0 0 .354.104h10.883a.648.648 0 0 0 .352-.104c.312-.204.613-.423.902-.657.201-.163.39-.34.575-.514.08-.074.163-.14.241-.216l.025-.025c.098-.098.19-.203.284-.305a10.837 10.837 0 0 0 .687-.806c.15-.195.291-.395.427-.6.055-.081.112-.16.165-.244.175-.28.342-.568.492-.865.003-.006.003-.014.007-.021.539-1.07.899-2.22 1.066-3.407l.355-2.52a.649.649 0 0 0-.551-.733zM40.95 39.71c-.03.05-.058.101-.089.151a9.592 9.592 0 0 1-.492.706c-.064.081-.129.16-.194.24a9.73 9.73 0 0 1-.365.424c-.086.092-.17.185-.26.274-.104.104-.214.203-.324.303-.124.114-.246.23-.373.337a9.811 9.811 0 0 1-.733.555l-10.486.002a9.57 9.57 0 0 1-.707-.536c-.082-.065-.162-.137-.24-.207a8.338 8.338 0 0 1-.413-.39c-.088-.086-.178-.172-.26-.263-.159-.17-.31-.347-.453-.528-.02-.025-.043-.048-.065-.073a10.74 10.74 0 0 1-.519-.724c-.015-.024-.033-.046-.048-.07a9.623 9.623 0 0 1-.432-.76c-.014-.026-.03-.051-.044-.079a1.477 1.477 0 0 1 1.442-1.414c.403.002.786.177 1.05.48a.648.648 0 0 0 1.094-.214c.196-.58.735-.975 1.347-.987.403.002.786.178 1.05.482a.648.648 0 0 0 1.094-.216 1.414 1.414 0 0 1 2.695 0 .648.648 0 0 0 1.094.216 1.4 1.4 0 0 1 1.05-.482 1.475 1.475 0 0 1 1.433 1.408.648.648 0 0 0 1.092.428c.26-.25.605-.392.966-.396a1.44 1.44 0 0 1 1.32.916c-.075.14-.148.281-.23.417zm1.304-3.655a9.692 9.692 0 0 1-.458 1.861 2.689 2.689 0 0 0-1.936-.833c-.346 0-.688.067-1.007.2a2.742 2.742 0 0 0-2.484-1.64c-.47 0-.93.125-1.337.361a2.686 2.686 0 0 0-4.308 0 2.678 2.678 0 0 0-1.338-.362 2.722 2.722 0 0 0-2.154 1.082 2.662 2.662 0 0 0-3.436.661 9.713 9.713 0 0 1-.296-1.33l-.25-1.781h19.255l-.25 1.781zM16.022 43.997h1.945v-1.296h-1.945zM11.675 41.864l.917-.917 1.296 1.297-.917.917zM17.967 41.404h1.944v-1.296h-1.944zM7.593 43.35H9.54v-1.298H7.593zM41.497 42.513l.917-.917 1.296 1.296-.916.917zM41.324 24.705l.512-8.55a2.48 2.48 0 1 0-4.95 0l.512 8.55a4.149 4.149 0 0 0-1.279 3.084c0 2.146 1.455 3.89 3.242 3.89s3.241-1.744 3.241-3.89a4.149 4.149 0 0 0-1.278-3.084zm-.018 3.084c0 1.43-.873 2.594-1.945 2.594-1.073 0-1.945-1.163-1.945-2.594a2.808 2.808 0 0 1 1.03-2.268.648.648 0 0 0 .265-.563l-.531-8.882a1.183 1.183 0 1 1 2.362 0l-.533 8.883a.65.65 0 0 0 .266.563 2.808 2.808 0 0 1 1.03 2.267z"/>
        </g>
        <path fill="#FFF" fill-opacity=".004" d="M0 0h48v48H0z"/>
    </g>
</svg>
