<svg xmlns="http://www.w3.org/2000/svg" width="186" height="139" viewBox="0 0 186 139">
    <g fill="#FFF" fill-rule="evenodd" stroke="#292929" stroke-linecap="round" stroke-linejoin="round" stroke-width="2">
        <path d="M93.17 25.74A26.641 26.641 0 0 0 74.381 18a26.641 26.641 0 0 0-18.787 7.74l-5.12 5.09-5.119-5.09c-10.376-10.316-27.198-10.316-37.574 0-10.376 10.316-10.376 27.041 0 37.357l5.12 5.09 37.574 37.358L88.05 68.187l5.12-5.09a26.333 26.333 0 0 0 7.784-18.679c0-7.006-2.8-13.725-7.785-18.678z"/>
        <g transform="rotate(-49 91.971 -17.872)">
            <ellipse cx="41.055" cy="41.1" rx="41.055" ry="41.1"/>
            <path d="M42.068 82.707v30.616M31.119 101.891h22.126-22.126z"/>
        </g>
    </g>
</svg>
