<svg xmlns="http://www.w3.org/2000/svg" width="48" height="48" viewBox="0 0 48 48">
    <g fill="none" fill-rule="evenodd">
        <g fill="#8D959D">
            <path d="M35.967 26.65h4.3c.395 0 .716-.32.716-.717v-2.866a.717.717 0 0 0-.716-.717h-4.3a.717.717 0 0 0-.717.717v2.866c0 .396.32.717.717.717zm.716-1.433h2.867v-1.434h-2.867v1.434zM28.8 22.35h-8.6a.717.717 0 0 0-.717.717v2.866c0 .396.321.717.717.717h8.6c.396 0 .717-.32.717-.717v-2.866a.717.717 0 0 0-.717-.717zm-7.883 2.867h7.166v-1.434h-7.166v1.434zM35.967 33.1h4.3c.395 0 .716-.32.716-.717v-2.866a.717.717 0 0 0-.716-.717h-4.3a.717.717 0 0 0-.717.717v2.866c0 .396.32.717.717.717zm.716-1.433h2.867v-1.434h-2.867v1.434zM35.967 39.55h4.3c.395 0 .716-.321.716-.717v-2.866a.717.717 0 0 0-.716-.717h-4.3a.717.717 0 0 0-.717.717v2.866c0 .396.32.717.717.717zm.716-1.434h2.867v-1.433h-2.867v1.433zM13.034 22.35h-4.3a.717.717 0 0 0-.717.717v2.866c0 .396.32.717.717.717h4.3c.395 0 .716-.32.716-.717v-2.866a.717.717 0 0 0-.716-.717zM9.45 25.217h2.867v-1.434H9.45v1.434zM13.034 28.8h-4.3a.717.717 0 0 0-.717.717v2.866c0 .396.32.717.717.717h4.3c.395 0 .716-.32.716-.717v-2.866a.717.717 0 0 0-.716-.717zM9.45 31.667h2.867v-1.434H9.45v1.434zM13.034 35.25h-4.3a.717.717 0 0 0-.717.717v2.866c0 .396.32.717.717.717h4.3c.395 0 .716-.321.716-.717v-2.866a.717.717 0 0 0-.716-.717zM9.45 38.116h2.867v-1.433H9.45v1.433zM24.5 18.767a5.734 5.734 0 1 0-5.733-5.734 5.74 5.74 0 0 0 5.733 5.734zm0-10.033a4.3 4.3 0 1 1 0 8.6 4.3 4.3 0 0 1 0-8.6z"/>
            <path d="M22.35 13.75h1.433v1.433a.717.717 0 0 0 1.434 0V13.75h1.433a.717.717 0 0 0 0-1.433h-1.433v-1.433a.717.717 0 0 0-1.434 0v1.433H22.35a.717.717 0 0 0 0 1.433z"/>
            <path d="M45.283 41.7H43.85V21.818l1.16.478a.717.717 0 1 0 .546-1.326l-11.74-4.833V8.575l1.864.815a.716.716 0 0 0 .573-1.313L24.787 3.061a.716.716 0 0 0-.574 0L12.747 8.077c-.35.166-.505.58-.35.934a.717.717 0 0 0 .923.38l1.864-.816v7.562L3.444 20.97a.717.717 0 1 0 .546 1.326l1.16-.478V41.7H3.717a.717.717 0 0 0-.717.716v2.867c0 .396.321.717.717.717h41.566c.396 0 .717-.321.717-.717v-2.867a.717.717 0 0 0-.717-.716zm-2.866-20.472V41.7h-8.6V17.686l8.6 3.542zM24.5 4.5l7.896 3.455a.53.53 0 0 0-.013.063V41.7h-2.866V29.517a.717.717 0 0 0-.717-.717h-8.6a.717.717 0 0 0-.717.717V41.7h-2.866V8.017a.613.613 0 0 0-.013-.063L24.5 4.499zm-3.583 37.2h7.166V30.234h-7.166V41.7zM6.584 21.23l8.6-3.543V41.7h-8.6V21.228zm-2.15 23.337h40.132v-1.433H4.434v1.433z"/>
        </g>
        <path fill="#FFF" fill-opacity=".004" d="M0 0h48v48H0z"/>
    </g>
</svg>
