<svg xmlns="http://www.w3.org/2000/svg" width="32" height="32" viewBox="0 0 32 32">
    <g fill="none" fill-rule="evenodd">
        <path fill="#FFF" fill-opacity=".004" d="M0 0h32v32H0z"/>
        <path fill="#BBC0C5" fill-rule="nonzero" d="M31 10.544a8.633 8.633 0 0 1-2.444 6.033L16.715 28.7a1 1 0 0 1-1.43 0L3.442 16.577c-3.257-3.334-3.257-8.731 0-12.066a8.25 8.25 0 0 1 11.852 0l.705.722.704-.721A8.282 8.282 0 0 1 22.63 2c2.225 0 4.357.904 5.926 2.511A8.633 8.633 0 0 1 31 10.544zM16 26.57l9.706-9.936 1.42-1.454A6.633 6.633 0 0 0 29 10.544c0-1.74-.675-3.408-1.874-4.635A6.282 6.282 0 0 0 22.63 4a6.282 6.282 0 0 0-4.495 1.909l-1.42 1.453a1 1 0 0 1-1.43 0l-1.42-1.453a6.25 6.25 0 0 0-8.991 0c-2.499 2.557-2.499 6.713 0 9.27L16 26.57z"/>
    </g>
</svg>
