<svg xmlns="http://www.w3.org/2000/svg" width="24" height="24" viewBox="0 0 24 24">
    <g fill="#FFF" fill-rule="evenodd">
        <path fill-opacity=".004" d="M0 0h24v24H0z"/>
        <path fill-rule="nonzero" d="M23.549 8.513c0 1.7-.655 3.331-1.824 4.537l-8.458 8.727a1 1 0 0 1-1.437 0L3.372 13.05c-2.431-2.51-2.431-6.564 0-9.073a6.15 6.15 0 0 1 8.88 0l.296.305.296-.305a6.181 6.181 0 0 1 4.44-1.895c1.669 0 3.266.683 4.44 1.895a6.519 6.519 0 0 1 1.825 4.536zm-4.275 4.192l1.015-1.047a4.52 4.52 0 0 0 1.26-3.145 4.52 4.52 0 0 0-1.26-3.144 4.182 4.182 0 0 0-3.004-1.287 4.182 4.182 0 0 0-3.004 1.287l-1.014 1.046a1 1 0 0 1-1.437 0L10.816 5.37a4.15 4.15 0 0 0-6.008 0c-1.68 1.733-1.68 4.556 0 6.289l7.74 7.987 6.726-6.94z"/>
    </g>
</svg>
