<svg xmlns="http://www.w3.org/2000/svg" width="24" height="24" viewBox="0 0 24 24">
    <g fill="none" fill-rule="evenodd">
        <path d="M0 0h24v24H0z"/>
        <path fill="#8D959D" fill-rule="nonzero" d="M6.2 5.5a.7.7 0 0 0-.7.7v11.6a.7.7 0 0 0 .7.7h7.446a.7.7 0 0 0 .7-.7V6.2a.7.7 0 0 0-.7-.7H6.2zm0-1h7.446a1.7 1.7 0 0 1 1.7 1.7v11.6a1.7 1.7 0 0 1-1.7 1.7H6.2a1.7 1.7 0 0 1-1.7-1.7V6.2a1.7 1.7 0 0 1 1.7-1.7z"/>
        <path fill="#8D959D" fill-rule="nonzero" d="M14.868 10.5a.5.5 0 1 1 0-1h3.968a1.66 1.66 0 0 1 1.664 1.657v6.686a1.66 1.66 0 0 1-1.664 1.657H14a.5.5 0 1 1 0-1h4.836a.66.66 0 0 0 .664-.657v-6.686a.66.66 0 0 0-.664-.657h-3.968zM9 10.183a.6.6 0 1 1 0-1.2h2.462a.6.6 0 0 1 0 1.2H9z"/>
    </g>
</svg>
