<svg xmlns="http://www.w3.org/2000/svg" width="24" height="24" viewBox="0 0 24 24">
    <g fill="none" fill-rule="evenodd">
        <path d="M0 0h24v24H0z"/>
        <g fill="#8D959D" fill-rule="nonzero">
            <path d="M7.2 9.5a.7.7 0 0 0-.7.7v6.6a.7.7 0 0 0 .7.7h9.6a.7.7 0 0 0 .7-.7v-6.6a.7.7 0 0 0-.7-.7H7.2zm0-1h9.6a1.7 1.7 0 0 1 1.7 1.7v6.6a1.7 1.7 0 0 1-1.7 1.7H7.2a1.7 1.7 0 0 1-1.7-1.7v-6.6a1.7 1.7 0 0 1 1.7-1.7z"/>
            <path d="M11 12.083a.5.5 0 1 1 0-1h2.462a.5.5 0 1 1 0 1H11zM9.5 7.5v1.475a.5.5 0 0 1-1 0V7a.5.5 0 0 1 .5-.5h6a.5.5 0 0 1 .5.5v1.94a.5.5 0 0 1-1 0V7.5h-5z"/>
        </g>
    </g>
</svg>
