<svg xmlns="http://www.w3.org/2000/svg" width="24" height="24" viewBox="0 0 24 24">
    <g fill="none" fill-rule="evenodd">
        <path fill="#FFF" fill-opacity=".004" d="M0 0h24v24H0z"/>
        <g fill="#8D959D" fill-rule="nonzero">
            <path d="M12.9 18.07a20.642 20.642 0 0 0 2.13-1.912C16.9 14.22 18 12.24 18 10.382 18 7.414 15.542 5 12.5 5S7 7.414 7 10.382c0 1.858 1.101 3.84 2.97 5.776a20.642 20.642 0 0 0 2.53 2.217c.127-.095.26-.196.4-.305zm-.4 1.53S6 15.345 6 10.382C6 6.857 8.91 4 12.5 4S19 6.857 19 10.382c0 4.963-6.5 9.218-6.5 9.218z"/>
            <path d="M12.5 11.51c.648 0 1.167-.51 1.167-1.128 0-.619-.519-1.127-1.167-1.127s-1.167.508-1.167 1.127c0 .618.519 1.127 1.167 1.127zm0 1c-1.197 0-2.167-.953-2.167-2.128 0-1.175.97-2.127 2.167-2.127 1.197 0 2.167.952 2.167 2.127 0 1.175-.97 2.127-2.167 2.127z"/>
        </g>
    </g>
</svg>
