<svg xmlns="http://www.w3.org/2000/svg" xmlns:xlink="http://www.w3.org/1999/xlink" width="48" height="48" viewBox="0 0 48 48">
    <defs>
        <path id="a" d="M.006.077h31.397v29.85H.006z"/>
    </defs>
    <g fill="none" fill-rule="evenodd">
        <path fill="#FFF" fill-opacity="0" d="M0 0h48v48H0z"/>
        <g transform="translate(4 8)">
            <mask id="b" fill="#fff">
                <use xlink:href="#a"/>
            </mask>
            <path fill="#8D959D" d="M28.672.077a2.725 2.725 0 0 0-2.73 2.714v.49L9.985 9.623a.68.68 0 0 0-.429.63v9.498c0 .278.17.527.429.63l15.955 6.342v.491a2.725 2.725 0 0 0 2.73 2.714 2.725 2.725 0 0 0 2.732-2.714V2.791A2.725 2.725 0 0 0 28.672.077zm1.366 27.137c0 .748-.613 1.357-1.366 1.357a1.363 1.363 0 0 1-1.365-1.357v-.95a.678.678 0 0 0-.43-.63l-15.954-6.342v-8.58L26.877 4.37a.679.679 0 0 0 .43-.63v-.95c0-.748.612-1.356 1.365-1.356s1.366.608 1.366 1.357v24.423z" mask="url(#b)"/>
            <path fill="#8D959D" d="M10.24 9.575H5.46C2.45 9.575 0 12.009 0 15.002c0 2.993 2.45 5.428 5.461 5.428h4.779a.68.68 0 0 0 .683-.679v-9.498a.681.681 0 0 0-.683-.678zm-.683 9.498H5.461c-2.259 0-4.096-1.826-4.096-4.07 0-2.246 1.837-4.071 4.096-4.071h4.096v8.14z" mask="url(#b)"/>
        </g>
        <path fill="#8D959D" d="M39.032 20.323l-4.096-1.357a.687.687 0 0 0-.615.094.676.676 0 0 0-.283.55v6.785a.68.68 0 0 0 .898.642l4.096-1.356a.677.677 0 0 0 .467-.644v-4.07a.679.679 0 0 0-.467-.644zm-.899 4.225l-2.73.905V20.55l2.73.905v3.092zM17.59 36.227l-.686-.682-2.002-7.958a.682.682 0 0 0-.662-.514H8.778a.687.687 0 0 0-.535.256c-.13.163-.177.375-.13.578l2.732 11.533a.683.683 0 0 0 .793.51l5.127-.984a1.654 1.654 0 0 0 .814-.434c.311-.306.484-.713.487-1.148a1.612 1.612 0 0 0-.476-1.157zm-.97 1.34a.273.273 0 0 1-.127.07l-4.47.858L9.642 28.43h4.066l1.92 7.626a.68.68 0 0 0 .179.316l.817.811a.27.27 0 0 1-.003.383zM40.864 23.68h4.096v-1.356h-4.096zM40.511 16.317l3.413-2.036.703 1.163-3.413 2.036zM40.518 29.69l.702-1.164 3.414 2.035-.703 1.164zM29.941 34.535h1.366V11.47H29.94zM10.827 23.002h1.365V20.29h-1.365zM8.096 23.002h1.365V20.29H8.096z"/>
    </g>
</svg>
