<svg xmlns="http://www.w3.org/2000/svg" xmlns:xlink="http://www.w3.org/1999/xlink" width="48" height="48" viewBox="0 0 48 48">
    <defs>
        <path id="a" d="M.007.033h44.95V39.9H.006z"/>
    </defs>
    <g fill="none" fill-rule="evenodd">
        <g transform="translate(1 4)">
            <mask id="b" fill="#fff">
                <use xlink:href="#a"/>
            </mask>
            <path fill="#8D959D" d="M24.366 33.642a1.983 1.983 0 0 0-1.857-1.32c-.23 0-.457.04-.675.121-1.024.379-1.553 1.531-1.181 2.57.283.79 1.03 1.32 1.857 1.32.23 0 .457-.04.675-.12 1.024-.379 1.553-1.532 1.18-2.571zm-1.631 1.314a.648.648 0 0 1-.225.04.662.662 0 0 1-.62-.44.672.672 0 0 1 .394-.856.638.638 0 0 1 .225-.041c.276 0 .525.177.62.44a.672.672 0 0 1-.394.857z" mask="url(#b)"/>
            <path fill="#8D959D" d="M44.916 27.477l-.9-2.512a.66.66 0 0 0-.341-.378l-.03-.012-.028-.012-.008-.002a.647.647 0 0 0-.438.004l-2.153.795-4.58-12.778h-.001l-1.802-5.025a.661.661 0 0 0-.843-.4.673.673 0 0 0-.394.857l1.576 4.398-8.456 3.124h-.002l-5.155 1.905-3.454-9.631 4.538-1.677.976 2.722a.66.66 0 0 0 .619.44.627.627 0 0 0 .225-.041l3.3-1.22a.672.672 0 0 0 .426-.723v-.002a.666.666 0 0 0-.01-.052.569.569 0 0 0-.022-.079l-.976-2.722 4.538-1.676.975 2.721c.096.263.344.44.62.44a.642.642 0 0 0 .225-.04.673.673 0 0 0 .394-.857l-1.202-3.35a.664.664 0 0 0-.618-.44.642.642 0 0 0-.225.04l-5.773 2.133h-.003a.024.024 0 0 1-.005.003l-3.29 1.216-.005.001-.01.004-5.766 2.131a.673.673 0 0 0-.393.857l7.657 21.36a5.36 5.36 0 0 0-1.487-.241l-9.51-26.526C12.484.5 10.59-.396 8.885.235h-.001L.434 3.328l-.001.001a.807.807 0 0 0-.044.019l-.017.007-.041.023-.017.01c-.013.007-.025.016-.037.025l-.017.011a.53.53 0 0 0-.033.028l-.016.015-.03.03-.015.016a.445.445 0 0 0-.025.032l-.015.018-.021.033a.566.566 0 0 0-.014.02l-.017.034-.012.024-.014.033-.01.026a.495.495 0 0 0-.01.034l-.009.028-.006.033-.006.03-.004.034-.003.03v.066l.003.036.003.03.007.035.006.03a.537.537 0 0 0 .011.036l.009.03v.001L.94 6.699c.007.019.017.036.025.054.006.014.011.028.019.042.01.019.022.036.034.053.008.01.013.023.022.033.014.019.03.035.046.052l.021.024a.674.674 0 0 0 .057.046l.021.017a.765.765 0 0 0 .066.04l.02.01c.022.012.047.021.07.03l.022.008c.024.008.05.013.075.018l.021.005a.63.63 0 0 0 .156.005l.012-.001a.523.523 0 0 0 .045-.006l.02-.005a.497.497 0 0 0 .035-.008l.038-.011.018-.006h.001l.001-.001L9.616 4.23l9.287 25.901a5.635 5.635 0 0 0-1.55 6.102c.786 2.194 2.859 3.667 5.157 3.667a5.485 5.485 0 0 0 4.973-3.218c.33-.716.5-1.48.515-2.247l16.525-6.1c.005-.003.008-.005.013-.006a.624.624 0 0 0 .049-.021l.02-.011a.971.971 0 0 0 .038-.021l.02-.015.034-.023.01-.008.04-.034.005-.007a.88.88 0 0 0 .079-.09c0-.002.001-.003.003-.005a.58.58 0 0 0 .031-.05l.005-.008a.624.624 0 0 0 .025-.048l.007-.019.017-.04.008-.029.01-.032a.716.716 0 0 0 .01-.05l.002-.013a.67.67 0 0 0-.033-.328zM25.746 4.914l.75 2.093-2.062.762-.751-2.093 2.063-.762zm3.904 10.888l.75 2.093-2.063.763-.75-2.094 2.063-.762zm-7.838 2.896l4.537-1.677.976 2.722a.66.66 0 0 0 .62.44.646.646 0 0 0 .224-.04l3.3-1.22a.67.67 0 0 0 .394-.857l-.976-2.721 4.539-1.677 4.355 12.148-13.139 4.85a5.578 5.578 0 0 0-.817-.774L21.81 18.698zM10.628 3.147l-.013-.032-.013-.03c-.004-.01-.009-.018-.014-.027-.005-.011-.01-.022-.017-.033l-.014-.02a.512.512 0 0 0-.023-.034c-.004-.006-.01-.011-.013-.017l-.029-.034a.589.589 0 0 0-.046-.045l-.01-.008a.517.517 0 0 0-.04-.032l-.005-.004a.581.581 0 0 0-.047-.032l-.004-.002a.658.658 0 0 0-.297-.09h-.003a.561.561 0 0 0-.061 0l-.012.001a.67.67 0 0 0-.053.006c-.008 0-.017.003-.025.005l-.04.008-.044.014-.02.006h-.001L1.952 5.616l-.45-1.257 7.83-2.867h.001a1.97 1.97 0 0 1 2.533 1.198l9.398 26.213a5.461 5.461 0 0 0-1.237.459L10.629 3.147zm15.66 32.97a4.17 4.17 0 0 1-3.78 2.446c-1.746 0-3.321-1.12-3.919-2.787-.786-2.194.332-4.628 2.493-5.427a4.1 4.1 0 0 1 1.426-.256c1.747 0 3.322 1.12 3.92 2.787a4.264 4.264 0 0 1-.14 3.237zm1.565-3.052a5.644 5.644 0 0 0-.45-1.256l15.599-5.76.45 1.257-15.6 5.759z" mask="url(#b)"/>
        </g>
        <path fill="#FFF" fill-opacity=".004" d="M0 0h48v48H0z"/>
    </g>
</svg>
