<svg xmlns="http://www.w3.org/2000/svg" width="48" height="48" viewBox="0 0 48 48">
    <g fill="#FFF" fill-rule="evenodd">
        <path fill-opacity=".004" d="M0 0h48v48H0z"/>
        <path d="M37.688 36.063c.208.229.312.5.312.812 0 .313-.104.583-.313.813-.229.208-.5.312-.812.312a1.06 1.06 0 0 1-.781-.313l-6.438-6.437C27.427 33.083 24.875 34 22 34c-3.313 0-6.14-1.172-8.484-3.516C11.172 28.141 10 25.313 10 22c0-3.313 1.172-6.14 3.516-8.484C15.859 11.172 18.687 10 22 10c3.313 0 6.14 1.172 8.484 3.516C32.828 15.859 34 18.687 34 22c0 2.875-.917 5.427-2.75 7.656l6.438 6.407zM25.78 31a9.846 9.846 0 0 0 3.11-2.11A9.846 9.846 0 0 0 31 25.782c.5-1.187.75-2.448.75-3.781 0-1.333-.25-2.594-.75-3.781a9.846 9.846 0 0 0-2.11-3.11A9.846 9.846 0 0 0 25.782 13 9.644 9.644 0 0 0 22 12.25c-1.333 0-2.594.25-3.781.75a9.846 9.846 0 0 0-3.11 2.11 9.422 9.422 0 0 0-2.078 3.109A9.31 9.31 0 0 0 12.25 22c0 1.333.26 2.594.781 3.781a9.422 9.422 0 0 0 2.078 3.11A9.846 9.846 0 0 0 18.22 31c1.187.5 2.448.75 3.781.75 1.333 0 2.594-.25 3.781-.75z"/>
    </g>
</svg>
