<svg xmlns="http://www.w3.org/2000/svg" width="56" height="47" viewBox="0 0 56 47">
    <g fill="none" fill-rule="evenodd">
        <path fill="#703DB2" d="M17.975 9.956h35.72A2.305 2.305 0 0 1 56 12.26v30.666a.922.922 0 0 1-1.55.676l-6.063-5.632H17.975a2.305 2.305 0 0 1-2.304-2.304V12.26a2.305 2.305 0 0 1 2.304-2.304z"/>
        <path fill="#FFF" d="M23.506 15.512h24.659c.509 0 .921.413.921.922v.009c0 .509-.412.922-.921.922H23.506a.922.922 0 0 1-.922-.922v-.009c0-.509.413-.922.922-.922zm0 4.63h24.659c.509 0 .921.414.921.923v.008c0 .51-.412.922-.921.922H23.506a.922.922 0 0 1-.922-.922v-.008c0-.51.413-.922.922-.922zm0 4.631h24.659c.509 0 .921.413.921.922v.009c0 .509-.412.922-.921.922H23.506a.922.922 0 0 1-.922-.922v-.009c0-.509.413-.922.922-.922zm0 4.63h17.745c.51 0 .922.414.922.923v.008c0 .51-.413.922-.922.922H23.506a.922.922 0 0 1-.922-.922v-.008c0-.51.413-.922.922-.922z" opacity=".4"/>
        <path stroke="#FFF" stroke-linecap="round" stroke-width=".922" d="M10.16 10.556l-9.178 9.22"/>
        <ellipse cx="23.391" cy="23.5" fill="#703DB2" opacity=".26" rx="23.391" ry="23.5"/>
        <g fill="#FFF8F7" fill-rule="nonzero">
            <path d="M16.747 5.598a.46.46 0 0 1 .652 0c.18.18.18.474 0 .655l-9.178 9.22a.46.46 0 0 1-.651 0 .465.465 0 0 1 0-.655l9.177-9.22z" opacity=".5"/>
            <path d="M25.965 7.913a.46.46 0 0 1 .652 0c.18.18.18.474 0 .655L10.92 24.337a.46.46 0 0 1-.651 0 .465.465 0 0 1 0-.655L25.965 7.913z" opacity=".8"/>
        </g>
    </g>
</svg>
