<svg xmlns="http://www.w3.org/2000/svg" xmlns:xlink="http://www.w3.org/1999/xlink" width="28" height="28" viewBox="0 0 28 28">
    <defs>
        <path id="a" d="M.002.004H16v13.088H.002z"/>
    </defs>
    <g fill="none" fill-rule="evenodd">
        <circle cx="14" cy="14" r="14" fill="#B1A4F7"/>
        <path fill="#FFF" d="M14.001 6a1.408 1.408 0 1 1 0 2.815 1.408 1.408 0 0 1 0-2.815"/>
        <g transform="translate(6 7.906)">
            <mask id="b" fill="#fff">
                <use xlink:href="#a"/>
            </mask>
            <path fill="#FFF" d="M10.284.004A2.347 2.347 0 0 1 8 1.833 2.347 2.347 0 0 1 5.716.003c-.84.188-1.47.935-1.47 1.83V3.71a.94.94 0 0 0 1.877 0V2.77h3.754v.939a.94.94 0 0 0 1.877 0V1.833c0-.895-.63-1.642-1.47-1.83M15.272 9.547a1.408 1.408 0 1 0-1.407 2.438c.673.388 1.565.158 1.954-.516.389-.673.127-1.534-.547-1.922" mask="url(#b)"/>
            <path fill="#FFF" d="M14.414 6.342l-1.626-.939a.94.94 0 0 0-.938 1.626l.813.47-1.877 3.25-.813-.47a.94.94 0 0 0-.938 1.626l1.625.938a1.878 1.878 0 0 0 2.319-.357 2.347 2.347 0 0 1-.442-2.893 2.347 2.347 0 0 1 2.726-1.064 1.878 1.878 0 0 0-.85-2.187M2.135 11.985A1.408 1.408 0 1 0 .728 9.547c-.674.388-.936 1.25-.547 1.922.389.674 1.281.904 1.954.516" mask="url(#b)"/>
            <path fill="#FFF" d="M6.965 11.905a.94.94 0 0 0-.938-1.625l-.813.469-1.877-3.25.813-.47a.94.94 0 0 0-.938-1.626l-1.626.939a1.878 1.878 0 0 0-.85 2.187 2.347 2.347 0 0 1 2.727 1.064 2.347 2.347 0 0 1-.442 2.893 1.878 1.878 0 0 0 2.319.357l1.625-.938" mask="url(#b)"/>
        </g>
    </g>
</svg>
