<svg xmlns="http://www.w3.org/2000/svg" xmlns:xlink="http://www.w3.org/1999/xlink" width="46" height="46" viewBox="0 0 46 46">
    <defs>
        <circle id="a" cx="22" cy="22" r="22"/>
    </defs>
    <g fill="none" fill-rule="evenodd" transform="translate(1 1)">
        <mask id="b" fill="#fff">
            <use xlink:href="#a"/>
        </mask>
        <use stroke="#FFF" xlink:href="#a"/>
        <g mask="url(#b)">
            <path stroke="#8d959d" stroke-linecap="round" stroke-linejoin="round" stroke-width=".8" d="M32.01 24.78l1.304 1.86H11.258l1.305-1.862m1.19-.89h17.22M7.949 17.144h5.79v7.569h-5.79zM30.971 17.144h5.79v7.569h-5.79zM32.983 13.68l.901-.39.868.38a3.383 3.383 0 0 1 2.008 3.474h-5.79a3.368 3.368 0 0 1 2.013-3.465zM16.265 15.217a3.011 3.011 0 0 1 1.748-3.465l4.45-1.902 4.375 1.892a3.025 3.025 0 0 1 1.745 3.475M28.627 15.217v6.881H16.22v-6.88M9.962 13.68l.9-.39.868.38a3.383 3.383 0 0 1 2.009 3.474h-5.79a3.368 3.368 0 0 1 2.013-3.465zM10.43 36.273h23.298l2.067 1.79H7.95z"/>
            <path stroke="#8d959d" stroke-linecap="round" stroke-linejoin="round" stroke-width=".8" d="M29.041 26.64h6.755v11.423h-6.755zM7.811 26.64h6.755v11.423H7.811zM16.945 26.64h2.24v7.147l.345.605v1.881H16.6v-1.816l.345-.656zM24.245 26.64h2.24v7.147l.345.605v1.881H23.9v-1.816l.345-.656z"/>
            <path stroke="#8d959d" stroke-linecap="round" stroke-linejoin="round" stroke-width=".8" d="M32.418 28.566c.8 0 1.448.649 1.448 1.448v1.443H30.97v-1.443c0-.8.648-1.448 1.447-1.448zM11.327 28.566c.799 0 1.447.649 1.447 1.448v1.443H9.879v-1.443c0-.8.648-1.448 1.448-1.448zM11.313 26.64H4.64l1.93-1.927h5.887M32.392 26.64h6.672l-1.93-1.927h-5.095M31.025 21.915h6.203M15.36 17.026l2.464-1.718h8.929l2.71 1.718M15.36 18.815l2.464-1.718h8.929l2.71 1.718M19.542 17.387v3.372M22.3 17.387v3.372M25.194 17.387v3.372M7.514 21.916h6.203M13.832 21.031h2.37v2.538M30.909 21.031h-2.271v2.538M21.39 10.125V8.474h1.93v1.651M20.713 6.814l.372.906c.184.45.34.745.827.745m.871 0c.506 0 .651-.317.823-.793l.31-.858M9.88 18.808v-1.389m1.929 0v1.367m0 3.177v1.65m-1.93 0v-1.648M32.9 18.808v-1.389m1.93 0v1.367m0 3.177v1.65m-1.93 0v-1.648M35.795 26.64h8.685v11.423h-8.685z"/>
            <path stroke="#8d959d" stroke-linecap="round" stroke-linejoin="round" stroke-width=".8" d="M44.48 26.64h5.928v11.422H44.48zM44.756 17.144h5.79v7.569h-5.79zM46.769 13.68l.9-.39.868.38a3.383 3.383 0 0 1 2.009 3.474h-5.79a3.368 3.368 0 0 1 2.013-3.465zM43.48 26.64h8.68l-1.586-1.927h-5.787zM7.81 26.64H-.873v11.423H7.81zM-.873 26.64h-5.928v11.422h5.928zM.127 26.64h-8.68l1.585-1.927h5.787zM-.627 17.165H-7.7M14.307 17.165H7.454M51.206 17.165h-7.073M37.32 17.165h-6.89M10.884 13.344v-1.028M33.864 13.292v-1.028M37.95 29.39h2.068v1.789H37.95zM41.396 29.39h2.068v1.789h-2.068zM38.984 33.493c.57 0 1.034.463 1.034 1.034v.755H37.95v-.755c0-.571.463-1.034 1.034-1.034z"/>
            <path fill="#8D959D" d="M42.43 33.493c.57 0 1.034.463 1.034 1.034v.755h-2.068v-.755c0-.571.463-1.034 1.034-1.034z"/>
            <g>
                <path stroke="#8d959d" stroke-linecap="round" stroke-linejoin="round" stroke-width=".8" d="M-.481 29.39h2.068v1.789H-.481zM2.965 29.39h2.068v1.789H2.965z"/>
                <path fill="#8D959D" d="M.553 33.493c.57 0 1.033.463 1.033 1.034v.755H-.48v-.755c0-.571.463-1.034 1.034-1.034z"/>
                <path stroke="#8d959d" stroke-linecap="round" stroke-linejoin="round" stroke-width=".8" d="M3.999 33.493c.57 0 1.034.463 1.034 1.034v.755H2.965v-.755c0-.571.463-1.034 1.034-1.034z"/>
            </g>
        </g>
    </g>
</svg>
