<svg xmlns="http://www.w3.org/2000/svg" width="28" height="28" viewBox="0 0 28 28">
    <g fill="none" fill-rule="evenodd">
        <circle cx="14" cy="14" r="14" fill="#97E6D4"/>
        <g fill="#FFF">
            <path d="M10.269 9.477l5.576-1.473-.295-.578a.798.798 0 0 0-1.052-.344L9.506 9.477h.763zM17.576 8.046a.81.81 0 0 0-.207.027l-1.31.347-4 1.057h6.52l-.245-.87a.78.78 0 0 0-.758-.56zM19.397 10.009H7.787a.794.794 0 0 0-.614.286.752.752 0 0 0-.173.474v8.47c0 .42.352.761.785.761h11.61c.434 0 .786-.34.786-.76v-2.121h-4.66c-.738 0-1.336-.58-1.336-1.293v-1.69c0-.35.145-.668.379-.9a1.339 1.339 0 0 1 .955-.391h4.662v-2.076a.771.771 0 0 0-.784-.76z"/>
            <path d="M20.732 13.572a.79.79 0 0 0-.53-.2H15.52a.773.773 0 0 0-.785.76v1.693c0 .42.352.76.785.76h4.683c.09 0 .174-.015.254-.041a.768.768 0 0 0 .531-.72v-1.691a.747.747 0 0 0-.256-.561zM17.16 15.13c0 .21-.176.38-.393.38h-.26a.387.387 0 0 1-.393-.38v-.252c0-.122.058-.23.15-.298a.405.405 0 0 1 .243-.083h.26c.217 0 .393.17.393.38v.253z"/>
        </g>
    </g>
</svg>
