<svg xmlns="http://www.w3.org/2000/svg" xmlns:xlink="http://www.w3.org/1999/xlink" width="28" height="28" viewBox="0 0 28 28">
    <defs>
        <path id="a" d="M.002.004h11.986v8.36H.002z"/>
        <path id="c" d="M.002.006h8.992V9H.002z"/>
    </defs>
    <g fill="none" fill-rule="evenodd">
        <circle cx="14" cy="14" r="14" fill="#B397E6"/>
        <g transform="translate(7 8.74)">
            <mask id="b" fill="#fff">
                <use xlink:href="#a"/>
            </mask>
            <path fill="#FFF" d="M4.94 4.325h2.108v-.673H4.94z" mask="url(#b)"/>
            <path fill="#FFF" d="M9.726 4.325H7.75v.337a.344.344 0 0 1-.35.336H4.59a.344.344 0 0 1-.352-.336v-.337H2.262a1.05 1.05 0 0 1-1-.69L0 .004v7.35c0 .557.473 1.01 1.054 1.01h9.88c.582 0 1.054-.453 1.054-1.01V.005l-1.263 3.63a1.05 1.05 0 0 1-.999.691z" mask="url(#b)"/>
        </g>
        <path fill="#FFF" d="M14.4 7.006h-2.81c-.582 0-1.054.453-1.054 1.01v.336H7.604l1.325 3.809a.35.35 0 0 0 .333.23h1.976v-.336c0-.187.157-.337.351-.337h2.81c.194 0 .351.15.351.337v.336h1.976a.35.35 0 0 0 .333-.23l1.325-3.809h-2.931v-.337c0-.556-.473-1.01-1.054-1.01zm-3.162 1.346v-.337c0-.185.158-.336.351-.336h2.81c.194 0 .351.15.351.336v.337h-3.512z"/>
        <g>
            <g transform="translate(13 13)">
                <mask id="d" fill="#fff">
                    <use xlink:href="#c"/>
                </mask>
                <path fill="#FFF" stroke="#B397E6" stroke-width=".6" d="M4.497 1.006A3.5 3.5 0 0 0 1 4.503 3.5 3.5 0 0 0 4.497 8a3.5 3.5 0 0 0 3.497-3.497 3.501 3.501 0 0 0-3.497-3.497z" mask="url(#d)"/>
            </g>
            <path fill="#B397E6" d="M16.733 16.723a.378.378 0 1 1-.756 0 .378.378 0 0 1 .756 0zM19.072 16.723a.378.378 0 1 1-.756 0 .378.378 0 0 1 .756 0zM17.49 19.44c.732 0 1.433-.374 1.834-.995l-.318-.205a1.812 1.812 0 0 1-1.717.81 1.813 1.813 0 0 1-1.301-.81l-.318.205a2.195 2.195 0 0 0 1.82.995z"/>
        </g>
    </g>
</svg>
