<svg xmlns="http://www.w3.org/2000/svg" width="28" height="28" viewBox="0 0 28 28">
    <g fill="none" fill-rule="evenodd">
        <circle cx="14" cy="14" r="14" fill="#DA96E8"/>
        <g fill="#FFF">
            <path d="M11.607 15.171c.533.083 1.183-.044 1.893-.088.132.031.265.052.402.052.14 0 .278-.021.415-.055 1.848.094 3.288.637 3.288-3.272C17.605 9.155 15.948 7 13.902 7 11.857 7 10.2 9.155 10.2 11.808c0 2.134.392 2.963 1.03 3.251.118.058.245.091.377.112zm-.59-4.862c.388.558 1.393.439 2.26-.268.22-.18.413-.385.568-.593.02.003.04.005.06.01.085.016.162.047.25.076.078.039.162.07.237.12.078.041.148.098.218.148.063.057.132.111.185.174.055.057.107.12.147.18.045.056.078.116.11.168.033.052.06.099.075.14l.06.128-.022-.14c-.005-.047-.018-.1-.033-.162a2.03 2.03 0 0 0-.162-.444c-.038-.083-.093-.164-.145-.252-.063-.08-.12-.17-.195-.247-.07-.083-.155-.153-.238-.229-.077-.057-.16-.12-.247-.169.037-.08.067-.164.092-.242.31.146.628.33.88.593.928.964.563 2.084 1.278 1.344a1.99 1.99 0 0 0 .277-.361c.025 0 .05-.003.07.002.098.026.16.104.196.167.097.168.12.413.06.657-.09.364-.32.58-.506.603l-.15.02-.04.154c-.354 1.339-1.312 2.763-2.395 2.763-1.082 0-2.037-1.424-2.395-2.763l-.04-.153-.15-.02c-.182-.027-.415-.243-.505-.604-.06-.244-.037-.489.06-.657a.343.343 0 0 1 .14-.143zM16.688 15.525c-.29.514-.628.948-1.073 1.187-.92.49-1.605.89-1.605.89l-.003-.003v-.008l-.007.005-.008-.005v.008l-.002.002s-.683-.395-1.605-.889c-.445-.239-.78-.673-1.072-1.187C9.95 16.102 9 17.422 9 18.579v2.396h10v-2.396c0-1.154-.953-2.477-2.313-3.054z"/>
        </g>
    </g>
</svg>
