<svg xmlns="http://www.w3.org/2000/svg" xmlns:xlink="http://www.w3.org/1999/xlink" width="28" height="28" viewBox="0 0 28 28">
    <defs>
        <path id="a" d="M.002.003h13.71v11.994H.002z"/>
    </defs>
    <g fill="none" fill-rule="evenodd">
        <circle cx="14" cy="14" r="14" fill="#C2E1A4"/>
        <g transform="translate(7 9)">
            <mask id="b" fill="#fff">
                <use xlink:href="#a"/>
            </mask>
            <path fill="#FFF" d="M8.5 10.982H7.57V2.393h3.913L9.827 5.048a.29.29 0 0 0 .24.442.285.285 0 0 0 .243-.135l1.437-2.302 1.438 2.302c.084.135.26.175.393.09a.29.29 0 0 0 .09-.397L12.01 2.393h.021c.245 0 .443-.2.443-.446a.445.445 0 0 0-.443-.447H8.776a1.448 1.448 0 0 0-.773-.571A1.011 1.011 0 0 0 7 .003c-.526 0-.958.407-1.003.926a1.449 1.449 0 0 0-.773.571H1.969c-.245 0-.443.2-.443.447 0 .246.198.446.443.446h.02L.333 5.048a.29.29 0 0 0 .241.442.285.285 0 0 0 .242-.135l1.438-2.302L3.69 5.355c.084.135.26.175.394.09a.29.29 0 0 0 .09-.397L2.515 2.393h3.913v8.589h-.928a1.01 1.01 0 0 0-1.007 1.015h5.012c0-.56-.45-1.015-1.006-1.015z" mask="url(#b)"/>
            <path fill="#FFF" d="M4.353 5.796h-4.2A.153.153 0 0 0 0 5.95c0 1.253 1.01 2.273 2.253 2.273A2.266 2.266 0 0 0 4.505 5.95a.153.153 0 0 0-.152-.154z" mask="url(#b)"/>
        </g>
        <path fill="#FFF" d="M20.848 14.796h-4.201a.153.153 0 0 0-.152.154 2.266 2.266 0 0 0 2.252 2.273c1.242 0 2.253-1.02 2.253-2.273a.153.153 0 0 0-.152-.154z"/>
    </g>
</svg>
