<svg xmlns="http://www.w3.org/2000/svg" xmlns:xlink="http://www.w3.org/1999/xlink" width="28" height="28" viewBox="0 0 28 28">
    <defs>
        <path id="a" d="M.004.053h13.972v9.144H.004z"/>
    </defs>
    <g fill="none" fill-rule="evenodd">
        <circle cx="14" cy="14" r="14" fill="#81B0E6"/>
        <path fill="#FFF" d="M9.138 8.029h-.001a.488.488 0 0 0-.35.148.515.515 0 0 0-.148.363v7.663c0 .281.225.51.5.511 1.165.003 3.116.251 4.46 1.69v-8.02a.496.496 0 0 0-.068-.259c-1.104-1.817-3.226-2.094-4.393-2.096zM19.337 16.203V8.54a.515.515 0 0 0-.147-.363.487.487 0 0 0-.35-.148h-.002c-1.166.002-3.288.279-4.393 2.096a.497.497 0 0 0-.068.259v8.02c1.345-1.439 3.295-1.687 4.46-1.69.276 0 .5-.23.5-.51z"/>
        <g transform="translate(7 9.743)">
            <mask id="b" fill="#fff">
                <use xlink:href="#a"/>
            </mask>
            <path fill="#FFF" d="M13.476.053h-.362V6.46c0 .718-.572 1.303-1.276 1.304-.987.003-2.615.2-3.768 1.315 1.994-.499 4.096-.174 5.294.105a.49.49 0 0 0 .424-.099.512.512 0 0 0 .188-.4V.565a.506.506 0 0 0-.5-.511zM.863 6.46V.053H.5c-.276 0-.5.229-.5.51v8.123c0 .156.068.302.188.399a.49.49 0 0 0 .424.099c1.198-.28 3.3-.604 5.295-.105-1.153-1.115-2.782-1.312-3.769-1.315C1.435 7.763.863 7.178.863 6.46z" mask="url(#b)"/>
        </g>
    </g>
</svg>
