<svg xmlns="http://www.w3.org/2000/svg" width="28" height="28" viewBox="0 0 28 28">
    <g fill="none" fill-rule="evenodd">
        <circle cx="14" cy="14" r="14" fill="#FF8E8E"/>
        <path fill="#FFF" d="M15.265 17.377h1.002c2.404 0 4.387-1.839 4.628-4.188.069-.302.105-.616.105-.939C21 9.907 19.102 8 16.769 8h-1.205c-.298.003-.74.21-.74.77v3.737h-5.07l-.529-1.98A1.157 1.157 0 0 0 8.14 9.69H6.602a.603.603 0 0 0 0 1.208h1.476l.71 2.653c.008.032.02.062.032.092a4.668 4.668 0 0 0 4.56 3.734h.681v2.052h-.417a1.974 1.974 0 0 0-1.878-1.381c-1.086 0-1.97.886-1.97 1.976 0 1.09.884 1.976 1.97 1.976.873 0 1.615-.573 1.872-1.364h1.996c.258.79 1 1.364 1.873 1.364 1.086 0 1.969-.887 1.969-1.976 0-1.09-.883-1.976-1.97-1.976-.879 0-1.625.581-1.878 1.381h-.363v-2.052zm-3.499 3.416a.768.768 0 0 1 0-1.538.768.768 0 0 1 0 1.538zm5.74-1.538a.768.768 0 0 1 0 1.538.769.769 0 0 1 0-1.538z"/>
    </g>
</svg>
