<svg xmlns="http://www.w3.org/2000/svg" width="48" height="48" viewBox="0 0 48 48">
    <g fill="none" fill-rule="evenodd">
        <path d="M0 0h48v48H0z"/>
        <g fill-rule="nonzero">
            <path fill="#8D959D" d="M9.75 31.943h3.3v-15.1h-3.3v15.1zm-.7-16.5h4.7a.7.7 0 0 1 .7.7v16.5a.7.7 0 0 1-.7.7h-4.7a.7.7 0 0 1-.7-.7v-16.5a.7.7 0 0 1 .7-.7z"/>
            <path fill="#8D959D" d="M7.67 14.486l.318.957h6.824l.318-.957H7.67zm-.97-1.4h9.4a.7.7 0 0 1 .664.92l-.783 2.358a.7.7 0 0 1-.664.479H7.483a.7.7 0 0 1-.664-.48l-.783-2.357a.7.7 0 0 1 .664-.92z"/>
            <path fill="#8D959D" d="M9.559 13.086h3.682l1.33-4.1H8.23l1.329 4.1zm-2.292-5.5h8.266a.7.7 0 0 1 .666.916l-1.783 5.5a.7.7 0 0 1-.666.484h-4.7a.7.7 0 0 1-.666-.484l-1.783-5.5a.7.7 0 0 1 .666-.916zM2.7 33.343V39.8h22.1v-6.457H2.7zm-.7-1.4h23.5a.7.7 0 0 1 .7.7V40.5a.7.7 0 0 1-.7.7H2a.7.7 0 0 1-.7-.7v-7.857a.7.7 0 0 1 .7-.7z"/>
            <path fill="#8D959D" d="M2.7 41.2v3.314h32.283V41.2H2.7zM2 39.8h33.683a.7.7 0 0 1 .7.7v4.714a.7.7 0 0 1-.7.7H2a.7.7 0 0 1-.7-.7V40.5a.7.7 0 0 1 .7-.7zM11.177 7.547a.7.7 0 1 1-1.4 0V5.401a.7.7 0 1 1 1.4 0v2.146zM13.527 7.547a.7.7 0 0 1-1.4 0V2.258a.7.7 0 0 1 1.4 0v5.29z"/>
            <g fill="#8D959D">
                <path d="M10.737 9.58a.393.393 0 0 1 .556.555l-.83.833a.393.393 0 1 1-.557-.555l.831-.833zM12.392 10.365a.393.393 0 0 1 .556.555l-1.661 1.667a.393.393 0 0 1-.557-.555l1.662-1.667z"/>
            </g>
            <path fill="#8D959D" d="M8.392 34.768a.7.7 0 1 1 1.4 0v3.41a.7.7 0 0 1-1.4 0v-3.41zM17.792 34.768a.7.7 0 1 1 1.4 0v3.41a.7.7 0 0 1-1.4 0v-3.41zM4.35 43.557a.7.7 0 1 1 0-1.4l15.859.018a.7.7 0 0 1-.002 1.4l-15.858-.018z"/>
            <g fill="#8D959D">
                <path d="M30.196 43.557a.7.7 0 1 1 .008-1.4l2.858.018a.7.7 0 1 1-.009 1.4l-2.857-.018zM23.933 43.575a.7.7 0 1 1 0-1.4h2.35a.7.7 0 0 1 0 1.4h-2.35z"/>
            </g>
            <path fill="#703DB2" d="M37.869 11.446l2.722-1.433.681-.358c.219-.122.219-.122.052.011a.7.7 0 0 1 .207-.147c.566-.262.996-.362 1.617-.362 1.141.004 2.15.573 2.898 1.439.229.265.394.593.394.927 0 .33-.186.688-.472.99a3.824 3.824 0 0 1-.914.69l-5.244 2.78-4.181 10.895a.7.7 0 0 1-.367.387l-2.36 1.063a.7.7 0 0 1-.98-.742l1.227-8.248-4.86 2.448a3.04 3.04 0 0 1-1.38.382c-.696-.006-1.389-.265-1.76-.788l-3.17-3.532a.7.7 0 0 1 .299-1.131l2.398-.804a.7.7 0 0 1 .563.052l1.962 1.092 10.668-5.611zm4.056-.553l-.682.359-2.723 1.433-10.878 5.721a.934.934 0 0 1-.9-.002l-1.914-1.066-1.097.368 2.507 2.797c.114.16.39.262.677.265.169 0 .489-.087.708-.213l5.715-2.879a.932.932 0 0 1 .968.106.95.95 0 0 1 .357.888l-1.168 7.855.93-.418 4.127-10.754a.951.951 0 0 1 .446-.524l5.394-2.859c.207-.112.42-.274.561-.422l.034-.037c-.506-.584-1.157-.951-1.84-.954-.411 0-.642.053-1.026.232-.064.04-.104.06-.196.104zM31.577 14.65l-.292-.157a178.269 178.269 0 0 0-3.25-1.695.7.7 0 0 1 .076-1.28l2.844-1.053a.7.7 0 0 1 .433-.017l5.206 1.464a.7.7 0 0 1 .137 1.293l-2.739 1.443-.686.361c-.14.088-.14.088-.541.2a.7.7 0 0 1-.473-.17 97.411 97.411 0 0 0-.715-.389zm.368-1.391a125.077 125.077 0 0 1 .83.448l.565-.297 1.186-.625-3.298-.928-1.142.423c.644.334 1.27.663 1.86.979z"/>
        </g>
    </g>
</svg>
