<svg xmlns="http://www.w3.org/2000/svg" width="49" height="50" viewBox="0 0 49 50">
    <g fill="none" fill-rule="evenodd">
        <path d="M0 1h48v48H0z"/>
        <g fill="#8D959D" fill-rule="nonzero">
            <path d="M12.047 32.484a.7.7 0 0 1 .897-.672c.813.238 1.52.33 2.118.284.37-.029.748-.076 1.163-.142.217-.035.81-.138.867-.148.139-.022.236-.035.32-.04a.914.914 0 0 1 .242.015c.3.06.578.26.586.69.023 1.27.183 2.093.415 2.414.01.014.147.085.415.152.361.09.874.15 1.502.176 4.744 0 8.626 3.567 8.626 7.983v3.795a1.7 1.7 0 0 1-1.7 1.7H3.518a1.7 1.7 0 0 1-1.7-1.7v-3.795c0-4.416 3.883-7.983 8.613-7.983.886-.02 1.368-.166 1.452-.296.107-.167.164-.956.164-2.433zm1.014 3.188c-.414.647-1.283.912-2.615.94-3.997 0-7.227 2.969-7.227 6.584v3.795a.3.3 0 0 0 .3.3h23.98a.3.3 0 0 0 .3-.3v-3.795c0-3.615-3.23-6.583-7.255-6.584-1.619-.065-2.59-.306-3.024-.908-.368-.51-.572-1.313-.648-2.44-.162.029-.328.057-.427.073-.45.071-.862.123-1.274.155a6.484 6.484 0 0 1-1.73-.118c-.02 1.283-.105 1.87-.38 2.298zM11.62 8.269a5.28 5.28 0 0 1-.415-2.058c0-2.913 2.357-5.284 5.257-5.284 2.9 0 5.257 2.37 5.257 5.284a5.275 5.275 0 0 1-.874 2.915c-2.318-.82-4.065-1.284-5.24-1.393-.875-.081-2.203.097-3.985.536zm8.048.1a3.88 3.88 0 0 0 .65-2.158c0-2.142-1.73-3.884-3.856-3.884-2.125 0-3.857 1.742-3.857 3.884 0 .533.107 1.041.301 1.504"/>
            <path d="M25.515 20.9a.7.7 0 1 1-1.4 0l.006-.9c1.018-7.794-2.647-11.756-9.256-11.756-5.617 0-9.216 4.29-9.216 10.734a.7.7 0 0 1-1.4 0c0-7.168 4.166-12.134 10.616-12.134 7.437 0 11.774 4.688 10.65 13.247v.808z"/>
            <path d="M21.35 16.46c-3.422 3.19-8.686 4.027-15.717 2.564v3.86c0 4.784 4.095 8.865 8.942 9.125 4.482-.11 7.183-2.185 8.57-5.622.775-1.923 1.036-4.142.986-5.312-1.651-1.207-2.538-3.004-2.782-4.615zm4.15 4.152c.032.291.029 1.15-.055 2.04-.136 1.446-.453 2.895-1.003 4.26-1.585 3.931-4.764 6.372-9.887 6.496-5.628-.3-10.322-4.978-10.322-10.524V18.85c0-.799.732-1.4 1.514-1.233 7.602 1.616 12.824.445 15.782-3.438.461-.606 1.42-.144 1.236.594-.096.384-.07 1.318.167 2.194.346 1.274 1.07 2.36 2.255 3.136a.7.7 0 0 1 .312.508zM9.728 36.743a.7.7 0 0 1 1.042-.935l1.202 1.34a4.198 4.198 0 0 0 6.637-.501l.753-1.15a.7.7 0 0 1 1.171.768l-.754 1.15a5.598 5.598 0 0 1-8.849.668l-1.202-1.34z"/>
        </g>
        <path fill="#703DB2" fill-rule="nonzero" d="M34.964 20.408a.7.7 0 0 1 .45-.164h10.3c.876 0 1.586-.71 1.586-1.585V7.286c0-.876-.71-1.586-1.586-1.586H30.857c-.876 0-1.586.71-1.586 1.586v11.373c0 .875.71 1.585 1.586 1.585h.826a.7.7 0 0 1 .67.902l-.58 1.932 3.191-2.67zm-7.093-1.75V7.287A2.986 2.986 0 0 1 30.857 4.3h14.857A2.986 2.986 0 0 1 48.7 7.286v11.373a2.986 2.986 0 0 1-2.986 2.985H35.668l-4.789 4.007c-.533.446-1.32-.073-1.12-.738l.984-3.27a2.986 2.986 0 0 1-2.872-2.984z"/>
        <path fill="#703DB2" fill-rule="nonzero" d="M31.77 16.754a.7.7 0 0 1-.914-1.06l4.516-3.895a.7.7 0 0 1 .997.085l1.474 1.787 5.116-4.634a.7.7 0 0 1 .94 1.037l-5.66 5.127a.7.7 0 0 1-1.01-.073l-1.485-1.801-3.973 3.427z"/>
        <path fill="#703DB2" fill-rule="nonzero" d="M41.433 9.133a.7.7 0 0 1 0-1.4h3.084a.7.7 0 0 1 .7.7v2.806a.7.7 0 0 1-1.4 0V9.133h-2.384z"/>
    </g>
</svg>
